<svg xmlns="http://www.w3.org/2000/svg" xmlns:xlink="http://www.w3.org/1999/xlink" width="140" zoomAndPan="magnify" viewBox="0 0 104.88 44.999999" height="60" preserveAspectRatio="xMidYMid meet" version="1.0"><defs><g/><clipPath id="c3ae74c5e8"><path d="M 1 1.007812 L 13 1.007812 L 13 17.84375 L 1 17.84375 Z M 1 1.007812 " clip-rule="nonzero"/></clipPath><clipPath id="31768cb4cd"><path d="M 15.636719 0.136719 L 16.050781 0.136719 L 16.050781 25.785156 L 15.636719 25.785156 Z M 15.636719 0.136719 " clip-rule="nonzero"/></clipPath><clipPath id="660202a0ea"><path d="M 0.570312 18 L 14 18 L 14 24 L 0.570312 24 Z M 0.570312 18 " clip-rule="nonzero"/></clipPath><clipPath id="547ab88db5"><path d="M 0.570312 1 L 2 1 L 2 3 L 0.570312 3 Z M 0.570312 1 " clip-rule="nonzero"/></clipPath><clipPath id="66215aecb6"><path d="M 12 1 L 13.992188 1 L 13.992188 3 L 12 3 Z M 12 1 " clip-rule="nonzero"/></clipPath><clipPath id="464878f916"><rect x="0" width="14" y="0" height="6"/></clipPath><clipPath id="4c5195a6af"><path d="M 0.0703125 1 L 2 1 L 2 5 L 0.0703125 5 Z M 0.0703125 1 " clip-rule="nonzero"/></clipPath><clipPath id="2847f13312"><rect x="0" width="24" y="0" height="7"/></clipPath><clipPath id="63170692a3"><path d="M 18 8 L 50.429688 8 L 50.429688 15 L 18 15 Z M 18 8 " clip-rule="nonzero"/></clipPath><clipPath id="379cef3469"><path d="M 0.0703125 1 L 4 1 L 4 5 L 0.0703125 5 Z M 0.0703125 1 " clip-rule="nonzero"/></clipPath><clipPath id="b36a2c990b"><path d="M 29 1 L 32.429688 1 L 32.429688 5 L 29 5 Z M 29 1 " clip-rule="nonzero"/></clipPath><clipPath id="b0081485c8"><rect x="0" width="33" y="0" height="7"/></clipPath><clipPath id="4eb1c2ecd4"><path d="M 0.0703125 1 L 3 1 L 3 5 L 0.0703125 5 Z M 0.0703125 1 " clip-rule="nonzero"/></clipPath><clipPath id="04c39a0721"><path d="M 14 1 L 17.808594 1 L 17.808594 5 L 14 5 Z M 14 1 " clip-rule="nonzero"/></clipPath><clipPath id="06ef587c98"><rect x="0" width="18" y="0" height="6"/></clipPath><clipPath id="c8fbdb1113"><rect x="0" width="51" y="0" height="26"/></clipPath></defs><g transform="matrix(1, 0, 0, 1, 27, 9)"><g clip-path="url(#c8fbdb1113)"><g clip-path="url(#c3ae74c5e8)"><path fill="#545454" d="M 6.199219 2.835938 L 6.378906 2.695312 C 6.484375 2.613281 6.589844 2.613281 6.695312 2.691406 L 6.757812 2.738281 C 6.839844 2.800781 6.855469 2.878906 6.800781 2.96875 C 6.738281 3.070312 6.742188 3.167969 6.808594 3.265625 L 6.929688 3.4375 C 6.972656 3.492188 7.023438 3.535156 7.089844 3.558594 L 7.089844 3.890625 C 7.011719 4.011719 6.898438 4.09375 6.75 4.125 C 6.742188 4.125 6.730469 4.128906 6.71875 4.128906 C 6.5625 4.148438 6.453125 4.089844 6.382812 3.945312 C 6.304688 3.800781 6.320312 3.667969 6.433594 3.546875 C 6.488281 3.492188 6.484375 3.4375 6.429688 3.382812 C 6.371094 3.332031 6.320312 3.332031 6.265625 3.390625 C 6.078125 3.589844 6.050781 3.8125 6.175781 4.050781 C 6.257812 4.210938 6.382812 4.308594 6.554688 4.347656 C 6.585938 4.5 6.65625 4.625 6.773438 4.726562 C 6.886719 4.824219 7.019531 4.882812 7.171875 4.890625 C 7.183594 4.890625 7.195312 4.890625 7.207031 4.890625 C 7.367188 4.890625 7.507812 4.839844 7.632812 4.734375 C 7.753906 4.632812 7.832031 4.503906 7.863281 4.347656 C 8.035156 4.308594 8.160156 4.210938 8.238281 4.050781 C 8.363281 3.808594 8.332031 3.585938 8.144531 3.386719 C 8.089844 3.332031 8.039062 3.328125 7.980469 3.382812 C 7.925781 3.433594 7.925781 3.488281 7.976562 3.542969 C 8.089844 3.664062 8.109375 3.800781 8.03125 3.949219 C 7.960938 4.089844 7.851562 4.148438 7.695312 4.128906 C 7.683594 4.128906 7.671875 4.125 7.660156 4.125 C 7.515625 4.09375 7.402344 4.011719 7.320312 3.890625 L 7.320312 3.558594 C 7.386719 3.535156 7.441406 3.492188 7.480469 3.4375 L 7.601562 3.265625 C 7.671875 3.167969 7.675781 3.070312 7.613281 2.96875 C 7.558594 2.878906 7.570312 2.800781 7.65625 2.738281 L 7.71875 2.691406 C 7.824219 2.613281 7.929688 2.613281 8.035156 2.695312 L 8.214844 2.835938 C 8.273438 2.882812 8.328125 2.878906 8.375 2.816406 C 8.421875 2.757812 8.417969 2.703125 8.355469 2.65625 L 8.175781 2.511719 C 7.976562 2.359375 7.777344 2.355469 7.578125 2.507812 L 7.515625 2.554688 C 7.433594 2.617188 7.382812 2.699219 7.363281 2.800781 C 7.34375 2.90625 7.363281 3 7.417969 3.089844 C 7.425781 3.101562 7.425781 3.117188 7.414062 3.132812 L 7.292969 3.304688 C 7.273438 3.332031 7.242188 3.347656 7.207031 3.347656 C 7.167969 3.347656 7.140625 3.332031 7.117188 3.304688 L 6.996094 3.132812 C 6.988281 3.117188 6.988281 3.101562 6.996094 3.089844 C 7.050781 3 7.070312 2.90625 7.050781 2.800781 C 7.03125 2.699219 6.980469 2.617188 6.894531 2.554688 L 6.835938 2.507812 C 6.632812 2.355469 6.433594 2.359375 6.238281 2.511719 L 6.054688 2.65625 C 5.996094 2.703125 5.992188 2.757812 6.039062 2.816406 C 6.085938 2.875 6.136719 2.882812 6.199219 2.835938 Z M 7.207031 4.113281 C 7.316406 4.238281 7.453125 4.316406 7.617188 4.351562 C 7.621094 4.351562 7.621094 4.351562 7.625 4.351562 C 7.558594 4.566406 7.410156 4.671875 7.183594 4.660156 C 6.984375 4.644531 6.855469 4.542969 6.796875 4.351562 C 6.957031 4.316406 7.097656 4.238281 7.207031 4.113281 Z M 4.40625 8 C 4.46875 7.914062 4.492188 7.816406 4.476562 7.707031 C 4.460938 7.601562 4.40625 7.515625 4.320312 7.449219 C 4.257812 7.402344 4.203125 7.414062 4.160156 7.472656 C 4.113281 7.535156 4.121094 7.589844 4.183594 7.636719 C 4.273438 7.699219 4.285156 7.777344 4.21875 7.867188 C 4.152344 7.953125 4.078125 7.964844 3.988281 7.902344 C 3.925781 7.855469 3.875 7.863281 3.828125 7.925781 C 3.785156 7.988281 3.792969 8.039062 3.851562 8.085938 C 3.941406 8.152344 4.039062 8.175781 4.144531 8.160156 C 4.253906 8.140625 4.339844 8.089844 4.40625 8 Z M 4.15625 5.933594 C 4.175781 5.9375 4.195312 5.9375 4.214844 5.9375 C 4.378906 5.9375 4.496094 5.863281 4.566406 5.71875 C 4.640625 5.574219 4.628906 5.4375 4.53125 5.308594 C 4.488281 5.246094 4.433594 5.238281 4.371094 5.285156 C 4.308594 5.328125 4.300781 5.382812 4.347656 5.445312 C 4.410156 5.53125 4.402344 5.609375 4.3125 5.675781 C 4.222656 5.738281 4.148438 5.730469 4.082031 5.640625 C 4.035156 5.578125 3.984375 5.570312 3.921875 5.617188 C 3.859375 5.664062 3.851562 5.714844 3.898438 5.777344 C 3.960938 5.867188 4.046875 5.917969 4.15625 5.933594 Z M 4.261719 6.929688 C 4.328125 6.84375 4.351562 6.746094 4.335938 6.636719 C 4.320312 6.53125 4.269531 6.445312 4.183594 6.378906 C 4.121094 6.332031 4.066406 6.339844 4.019531 6.402344 C 3.976562 6.464844 3.984375 6.515625 4.046875 6.5625 C 4.132812 6.628906 4.144531 6.707031 4.078125 6.792969 C 4.011719 6.882812 3.9375 6.890625 3.847656 6.828125 C 3.785156 6.78125 3.730469 6.789062 3.6875 6.851562 C 3.640625 6.910156 3.648438 6.964844 3.710938 7.011719 C 3.796875 7.078125 3.894531 7.101562 4.003906 7.085938 C 4.109375 7.070312 4.199219 7.019531 4.261719 6.929688 Z M 10.378906 7.902344 C 10.292969 7.964844 10.214844 7.953125 10.148438 7.867188 C 10.085938 7.777344 10.097656 7.699219 10.1875 7.636719 C 10.25 7.589844 10.257812 7.535156 10.210938 7.472656 C 10.164062 7.410156 10.109375 7.402344 10.050781 7.449219 C 9.90625 7.554688 9.855469 7.691406 9.898438 7.863281 C 9.941406 8.03125 10.050781 8.132812 10.222656 8.160156 C 10.242188 8.160156 10.261719 8.164062 10.285156 8.164062 C 10.371094 8.164062 10.449219 8.136719 10.515625 8.085938 C 10.578125 8.039062 10.585938 7.988281 10.539062 7.925781 C 10.496094 7.863281 10.441406 7.855469 10.378906 7.902344 Z M 7.207031 7.25 C 7.316406 7.25 7.410156 7.210938 7.484375 7.132812 C 7.5625 7.058594 7.601562 6.964844 7.601562 6.855469 C 7.601562 6.777344 7.5625 6.738281 7.484375 6.738281 C 7.410156 6.738281 7.371094 6.777344 7.371094 6.855469 C 7.371094 6.964844 7.316406 7.019531 7.207031 7.019531 C 7.097656 7.019531 7.042969 6.964844 7.042969 6.855469 C 7.042969 6.777344 7.003906 6.738281 6.925781 6.738281 C 6.847656 6.738281 6.8125 6.777344 6.8125 6.855469 C 6.8125 6.964844 6.851562 7.058594 6.925781 7.132812 C 7.003906 7.210938 7.097656 7.25 7.207031 7.25 Z M 10.523438 6.828125 C 10.433594 6.890625 10.355469 6.882812 10.292969 6.792969 C 10.226562 6.707031 10.238281 6.628906 10.324219 6.5625 C 10.386719 6.515625 10.394531 6.464844 10.347656 6.402344 C 10.300781 6.339844 10.246094 6.332031 10.1875 6.378906 C 10.097656 6.445312 10.046875 6.53125 10.03125 6.636719 C 10.015625 6.746094 10.039062 6.84375 10.105469 6.933594 C 10.171875 7.019531 10.257812 7.070312 10.367188 7.085938 C 10.472656 7.101562 10.574219 7.078125 10.660156 7.011719 C 10.722656 6.964844 10.730469 6.910156 10.683594 6.847656 C 10.636719 6.789062 10.582031 6.78125 10.523438 6.828125 Z M 11.421875 5.457031 C 11.613281 5.457031 11.765625 5.382812 11.890625 5.238281 L 12.511719 4.515625 C 12.617188 4.390625 12.664062 4.25 12.65625 4.089844 C 12.648438 3.925781 12.589844 3.789062 12.472656 3.675781 L 12.316406 3.523438 L 12.296875 3.265625 C 12.285156 3.097656 12.222656 2.953125 12.105469 2.832031 C 11.992188 2.710938 11.847656 2.640625 11.683594 2.621094 L 11.578125 2.609375 C 11.453125 2.59375 11.351562 2.539062 11.269531 2.441406 L 10.976562 2.082031 C 10.742188 1.796875 10.449219 1.707031 10.097656 1.816406 L 9.195312 2.085938 C 9.140625 1.871094 9.023438 1.695312 8.847656 1.558594 C 8.671875 1.421875 8.472656 1.355469 8.25 1.355469 L 6.164062 1.355469 C 5.941406 1.355469 5.742188 1.421875 5.570312 1.558594 C 5.394531 1.691406 5.277344 1.867188 5.21875 2.082031 L 4.316406 1.816406 C 3.964844 1.710938 3.671875 1.796875 3.4375 2.082031 L 3.140625 2.441406 C 3.0625 2.539062 2.957031 2.59375 2.835938 2.609375 L 2.730469 2.621094 C 2.5625 2.640625 2.421875 2.710938 2.304688 2.832031 C 2.191406 2.953125 2.125 3.097656 2.113281 3.265625 L 2.097656 3.523438 L 1.9375 3.675781 C 1.824219 3.789062 1.761719 3.925781 1.753906 4.089844 C 1.75 4.25 1.796875 4.390625 1.902344 4.515625 L 2.523438 5.238281 C 2.617188 5.351562 2.738281 5.421875 2.886719 5.445312 C 3.03125 5.472656 3.167969 5.445312 3.296875 5.371094 L 3.476562 5.269531 L 3.144531 6.738281 C 3.019531 7.292969 3.121094 7.804688 3.449219 8.269531 L 4.066406 9.152344 C 4.121094 9.230469 4.191406 9.289062 4.273438 9.328125 L 4.273438 12.003906 C 4.273438 12.160156 4.199219 12.261719 4.050781 12.304688 L 3.867188 12.363281 C 3.609375 12.441406 3.480469 12.613281 3.480469 12.886719 L 3.480469 13.179688 L 3.355469 13.179688 C 3.097656 13.179688 2.875 13.269531 2.691406 13.453125 C 2.507812 13.636719 2.414062 13.859375 2.414062 14.121094 L 2.414062 15.890625 C 2.414062 16.148438 2.503906 16.367188 2.683594 16.550781 C 2.863281 16.734375 3.082031 16.828125 3.335938 16.832031 L 3.335938 16.949219 C 3.335938 17.109375 3.394531 17.242188 3.503906 17.355469 C 3.617188 17.46875 3.753906 17.523438 3.914062 17.523438 L 10.5 17.523438 C 10.660156 17.523438 10.792969 17.46875 10.90625 17.355469 C 11.019531 17.242188 11.074219 17.109375 11.074219 16.949219 L 11.074219 16.832031 C 11.332031 16.828125 11.550781 16.734375 11.730469 16.550781 C 11.90625 16.367188 11.996094 16.148438 12 15.890625 L 12 14.121094 C 11.996094 13.859375 11.90625 13.636719 11.722656 13.453125 C 11.539062 13.269531 11.316406 13.179688 11.054688 13.179688 L 10.933594 13.179688 L 10.933594 12.886719 C 10.933594 12.613281 10.804688 12.441406 10.542969 12.363281 L 10.359375 12.304688 C 10.210938 12.261719 10.136719 12.160156 10.136719 12.003906 L 10.136719 9.328125 C 10.222656 9.289062 10.289062 9.230469 10.34375 9.152344 L 10.964844 8.269531 C 11.292969 7.804688 11.394531 7.292969 11.269531 6.738281 L 10.9375 5.269531 L 11.113281 5.371094 C 11.210938 5.425781 11.3125 5.457031 11.421875 5.457031 Z M 11.785156 5.007812 L 11.226562 4.574219 C 11.164062 4.527344 11.164062 4.480469 11.21875 4.425781 L 11.40625 4.253906 C 11.453125 4.214844 11.496094 4.214844 11.539062 4.257812 L 12.03125 4.722656 Z M 5.417969 2.332031 C 5.417969 2.125 5.492188 1.949219 5.636719 1.804688 C 5.78125 1.660156 5.957031 1.585938 6.164062 1.585938 L 8.25 1.585938 C 8.453125 1.585938 8.632812 1.660156 8.777344 1.804688 C 8.921875 1.949219 8.996094 2.125 8.996094 2.332031 L 8.996094 3.398438 C 8.992188 4.0625 8.726562 4.597656 8.199219 5 C 7.972656 5.171875 7.714844 5.261719 7.429688 5.261719 L 6.980469 5.261719 C 6.695312 5.261719 6.441406 5.171875 6.210938 5 C 5.683594 4.597656 5.417969 4.0625 5.417969 3.398438 Z M 8.878906 12.527344 L 9.046875 12.738281 C 9.125 12.832031 9.140625 12.9375 9.097656 13.050781 L 9.050781 13.179688 L 7.667969 13.179688 L 7.617188 13.0625 C 7.566406 12.941406 7.582031 12.828125 7.667969 12.726562 L 7.832031 12.53125 C 7.929688 12.417969 7.972656 12.285156 7.960938 12.136719 L 7.800781 9.800781 L 8.945312 9.304688 L 8.761719 12.148438 C 8.75 12.289062 8.789062 12.414062 8.878906 12.527344 Z M 5.664062 12.136719 L 5.46875 9.304688 L 6.613281 9.800781 L 6.460938 12.148438 C 6.453125 12.289062 6.492188 12.414062 6.582031 12.527344 L 6.75 12.738281 C 6.824219 12.832031 6.839844 12.9375 6.800781 13.050781 L 6.753906 13.179688 L 5.367188 13.179688 L 5.320312 13.0625 C 5.265625 12.941406 5.285156 12.828125 5.371094 12.726562 L 5.535156 12.53125 C 5.632812 12.417969 5.675781 12.285156 5.664062 12.136719 Z M 7.40625 13.152344 L 7.417969 13.179688 L 7 13.179688 L 7.015625 13.132812 C 7.085938 12.9375 7.058594 12.757812 6.929688 12.59375 L 6.761719 12.382812 C 6.710938 12.316406 6.6875 12.246094 6.691406 12.160156 L 6.839844 9.890625 C 7.085938 9.964844 7.332031 9.964844 7.578125 9.890625 L 7.734375 12.152344 C 7.738281 12.242188 7.714844 12.316406 7.65625 12.382812 L 7.492188 12.578125 C 7.34375 12.753906 7.316406 12.945312 7.40625 13.152344 Z M 7.089844 13.414062 L 7.089844 14.542969 C 7.070312 14.546875 7.046875 14.554688 7.027344 14.5625 L 6.363281 13.648438 C 6.585938 13.511719 6.828125 13.429688 7.089844 13.414062 Z M 6.839844 14.699219 C 6.828125 14.714844 6.8125 14.734375 6.800781 14.753906 L 5.726562 14.402344 C 5.828125 14.160156 5.976562 13.953125 6.175781 13.785156 Z M 6.730469 14.972656 C 6.730469 14.984375 6.730469 14.996094 6.730469 15.003906 C 6.730469 15.015625 6.730469 15.027344 6.730469 15.039062 L 5.65625 15.386719 C 5.59375 15.132812 5.59375 14.878906 5.65625 14.621094 Z M 6.800781 15.257812 C 6.8125 15.277344 6.828125 15.296875 6.839844 15.3125 L 6.175781 16.226562 C 5.976562 16.058594 5.828125 15.851562 5.726562 15.609375 Z M 7.027344 15.449219 C 7.046875 15.457031 7.070312 15.464844 7.089844 15.46875 L 7.089844 16.597656 C 6.828125 16.578125 6.585938 16.5 6.363281 16.363281 Z M 6.960938 15.003906 C 6.960938 14.9375 6.984375 14.878906 7.03125 14.832031 C 7.078125 14.78125 7.136719 14.757812 7.207031 14.757812 C 7.273438 14.757812 7.332031 14.78125 7.382812 14.832031 C 7.429688 14.878906 7.453125 14.9375 7.453125 15.003906 C 7.453125 15.074219 7.429688 15.132812 7.382812 15.179688 C 7.332031 15.226562 7.273438 15.253906 7.207031 15.253906 C 7.042969 15.253906 6.960938 15.171875 6.960938 15.003906 Z M 7.320312 15.46875 C 7.34375 15.464844 7.363281 15.457031 7.386719 15.449219 L 8.050781 16.363281 C 7.824219 16.5 7.582031 16.578125 7.320312 16.597656 Z M 7.570312 15.3125 C 7.585938 15.296875 7.597656 15.277344 7.609375 15.257812 L 8.683594 15.609375 C 8.585938 15.851562 8.4375 16.058594 8.234375 16.226562 Z M 7.683594 15.039062 C 7.683594 15.027344 7.683594 15.015625 7.683594 15.003906 C 7.683594 14.996094 7.683594 14.984375 7.683594 14.972656 L 8.757812 14.621094 C 8.820312 14.878906 8.820312 15.132812 8.757812 15.386719 Z M 7.609375 14.753906 C 7.597656 14.734375 7.585938 14.714844 7.570312 14.699219 L 8.234375 13.785156 C 8.4375 13.953125 8.585938 14.160156 8.683594 14.402344 Z M 7.386719 14.5625 C 7.363281 14.554688 7.34375 14.546875 7.320312 14.542969 L 7.320312 13.414062 C 7.582031 13.429688 7.824219 13.511719 8.050781 13.648438 Z M 7.621094 9.628906 C 7.34375 9.746094 7.066406 9.746094 6.789062 9.628906 L 5.296875 8.980469 C 5.222656 8.945312 5.171875 8.886719 5.15625 8.804688 L 4.875 7.488281 C 4.8125 7.199219 4.839844 6.917969 4.953125 6.644531 L 5.703125 4.828125 C 5.8125 4.960938 5.9375 5.082031 6.074219 5.183594 C 6.339844 5.386719 6.644531 5.492188 6.980469 5.492188 L 7.429688 5.492188 C 7.769531 5.492188 8.070312 5.386719 8.339844 5.183594 C 8.476562 5.078125 8.601562 4.960938 8.714844 4.824219 L 9.457031 6.640625 C 9.570312 6.910156 9.597656 7.191406 9.535156 7.480469 L 9.257812 8.804688 C 9.238281 8.886719 9.191406 8.945312 9.113281 8.980469 Z M 2.382812 4.722656 L 2.875 4.257812 C 2.917969 4.214844 2.960938 4.214844 3.003906 4.253906 L 3.191406 4.425781 C 3.25 4.480469 3.246094 4.527344 3.1875 4.574219 L 2.625 5.007812 Z M 3.183594 5.171875 C 3.050781 5.25 2.921875 5.246094 2.792969 5.167969 L 3.328125 4.757812 C 3.40625 4.695312 3.449219 4.613281 3.453125 4.511719 C 3.457031 4.410156 3.421875 4.328125 3.347656 4.257812 L 3.160156 4.085938 C 3.097656 4.027344 3.023438 4 2.9375 4 C 2.851562 4 2.777344 4.03125 2.714844 4.089844 L 2.234375 4.546875 L 2.078125 4.363281 C 2.011719 4.289062 1.980469 4.199219 1.984375 4.097656 C 1.988281 3.996094 2.027344 3.910156 2.101562 3.839844 L 2.289062 3.65625 C 2.308594 3.636719 2.320312 3.609375 2.324219 3.582031 L 2.34375 3.28125 C 2.351562 3.167969 2.394531 3.074219 2.472656 2.992188 C 2.550781 2.910156 2.644531 2.863281 2.757812 2.847656 L 2.859375 2.835938 C 2.953125 2.824219 3.039062 2.796875 3.121094 2.75 L 3.140625 2.761719 C 3.28125 2.855469 3.394531 2.976562 3.476562 3.125 L 4.011719 4.101562 C 4.089844 4.246094 4.078125 4.378906 3.96875 4.5 L 3.570312 4.945312 Z M 4.257812 9.023438 L 3.636719 8.136719 C 3.347656 7.726562 3.257812 7.277344 3.371094 6.789062 L 3.75 5.089844 L 4.140625 4.65625 C 4.320312 4.453125 4.347656 4.230469 4.214844 3.992188 L 3.679688 3.011719 C 3.589844 2.847656 3.464844 2.707031 3.308594 2.597656 C 3.3125 2.59375 3.316406 2.589844 3.320312 2.585938 L 3.613281 2.230469 C 3.785156 2.023438 3.996094 1.960938 4.25 2.035156 L 5.1875 2.3125 C 5.1875 2.316406 5.1875 2.324219 5.1875 2.332031 L 5.1875 3.398438 C 5.1875 3.835938 5.304688 4.238281 5.542969 4.609375 L 4.738281 6.558594 C 4.609375 6.875 4.578125 7.199219 4.648438 7.535156 L 4.929688 8.855469 C 4.933594 8.859375 4.933594 8.867188 4.9375 8.875 L 4.726562 9.070312 C 4.65625 9.136719 4.574219 9.164062 4.480469 9.152344 C 4.386719 9.144531 4.3125 9.097656 4.257812 9.023438 Z M 3.710938 12.886719 C 3.710938 12.726562 3.785156 12.628906 3.9375 12.582031 L 4.117188 12.527344 C 4.375 12.449219 4.507812 12.273438 4.503906 12.003906 L 4.503906 9.382812 C 4.507812 9.382812 4.511719 9.386719 4.511719 9.386719 C 4.65625 9.386719 4.777344 9.335938 4.882812 9.238281 L 5.050781 9.082031 C 5.09375 9.128906 5.148438 9.164062 5.207031 9.191406 L 5.230469 9.203125 L 5.433594 12.152344 C 5.441406 12.242188 5.414062 12.316406 5.359375 12.382812 L 5.195312 12.578125 C 5.046875 12.753906 5.015625 12.945312 5.109375 13.152344 L 5.117188 13.179688 L 3.710938 13.179688 Z M 3.355469 16.601562 C 3.160156 16.601562 2.992188 16.53125 2.855469 16.394531 C 2.714844 16.253906 2.644531 16.085938 2.644531 15.890625 L 2.644531 14.121094 C 2.644531 13.925781 2.714844 13.757812 2.855469 13.617188 C 2.992188 13.476562 3.160156 13.410156 3.355469 13.410156 L 6.320312 13.410156 C 6.257812 13.441406 6.199219 13.480469 6.140625 13.519531 C 6.136719 13.523438 6.136719 13.523438 6.132812 13.527344 C 6.128906 13.527344 6.128906 13.53125 6.125 13.53125 C 5.808594 13.765625 5.589844 14.066406 5.46875 14.4375 C 5.46875 14.441406 5.46875 14.441406 5.46875 14.441406 C 5.34375 14.816406 5.34375 15.195312 5.46875 15.570312 C 5.46875 15.570312 5.46875 15.570312 5.46875 15.574219 C 5.589844 15.945312 5.808594 16.246094 6.125 16.476562 C 6.128906 16.480469 6.128906 16.484375 6.132812 16.484375 C 6.136719 16.488281 6.140625 16.488281 6.144531 16.492188 C 6.199219 16.53125 6.257812 16.570312 6.320312 16.601562 Z M 10.84375 16.949219 C 10.84375 17.042969 10.8125 17.125 10.742188 17.191406 C 10.675781 17.261719 10.59375 17.292969 10.5 17.292969 L 3.914062 17.292969 C 3.816406 17.292969 3.734375 17.261719 3.667969 17.191406 C 3.601562 17.125 3.566406 17.042969 3.566406 16.949219 L 3.566406 16.832031 L 10.84375 16.832031 Z M 11.054688 13.410156 C 11.25 13.410156 11.417969 13.476562 11.558594 13.617188 C 11.699219 13.757812 11.765625 13.925781 11.765625 14.121094 L 11.765625 15.890625 C 11.765625 16.085938 11.699219 16.253906 11.558594 16.394531 C 11.417969 16.53125 11.25 16.601562 11.054688 16.601562 L 8.09375 16.601562 C 8.152344 16.570312 8.210938 16.53125 8.269531 16.492188 C 8.273438 16.488281 8.277344 16.488281 8.28125 16.484375 C 8.28125 16.484375 8.285156 16.480469 8.289062 16.476562 C 8.601562 16.246094 8.820312 15.945312 8.945312 15.574219 C 8.945312 15.570312 8.945312 15.570312 8.945312 15.570312 C 9.066406 15.195312 9.066406 14.816406 8.945312 14.441406 C 8.945312 14.441406 8.945312 14.441406 8.945312 14.4375 C 8.820312 14.066406 8.601562 13.765625 8.289062 13.53125 C 8.285156 13.53125 8.28125 13.527344 8.28125 13.527344 C 8.277344 13.523438 8.273438 13.523438 8.269531 13.519531 C 8.214844 13.480469 8.15625 13.441406 8.09375 13.410156 Z M 10.292969 12.527344 L 10.476562 12.582031 C 10.625 12.628906 10.703125 12.726562 10.703125 12.886719 L 10.703125 13.179688 L 9.296875 13.179688 L 9.316406 13.132812 C 9.386719 12.9375 9.359375 12.757812 9.230469 12.59375 L 9.058594 12.382812 C 9.007812 12.316406 8.984375 12.246094 8.992188 12.160156 L 9.183594 9.203125 L 9.207031 9.191406 C 9.265625 9.164062 9.316406 9.128906 9.363281 9.082031 L 9.53125 9.238281 C 9.632812 9.335938 9.757812 9.386719 9.898438 9.386719 C 9.902344 9.386719 9.90625 9.382812 9.90625 9.382812 L 9.90625 12.003906 C 9.90625 12.273438 10.035156 12.449219 10.292969 12.527344 Z M 11.042969 6.789062 C 11.152344 7.277344 11.0625 7.726562 10.777344 8.136719 L 10.15625 9.019531 C 10.101562 9.097656 10.027344 9.144531 9.933594 9.152344 C 9.839844 9.164062 9.757812 9.136719 9.6875 9.070312 L 9.476562 8.871094 C 9.476562 8.867188 9.480469 8.859375 9.480469 8.851562 L 9.761719 7.527344 C 9.832031 7.191406 9.804688 6.867188 9.671875 6.550781 L 8.871094 4.605469 C 9.105469 4.234375 9.226562 3.832031 9.226562 3.398438 L 9.226562 2.332031 C 9.226562 2.328125 9.226562 2.324219 9.226562 2.320312 L 10.164062 2.035156 C 10.417969 1.960938 10.628906 2.023438 10.796875 2.230469 L 11.09375 2.585938 C 11.097656 2.589844 11.101562 2.59375 11.105469 2.597656 C 10.949219 2.707031 10.824219 2.847656 10.734375 3.011719 L 10.195312 3.992188 C 10.066406 4.230469 10.09375 4.453125 10.273438 4.65625 L 10.660156 5.089844 Z M 10.839844 4.945312 L 10.445312 4.5 C 10.335938 4.378906 10.320312 4.246094 10.398438 4.101562 L 10.933594 3.125 C 11.015625 2.976562 11.128906 2.855469 11.273438 2.761719 L 11.289062 2.75 C 11.371094 2.796875 11.457031 2.824219 11.550781 2.835938 L 11.65625 2.847656 C 11.765625 2.863281 11.863281 2.910156 11.941406 2.992188 C 12.019531 3.074219 12.0625 3.167969 12.070312 3.28125 L 12.089844 3.582031 C 12.089844 3.609375 12.101562 3.636719 12.125 3.65625 L 12.3125 3.839844 C 12.382812 3.910156 12.421875 3.996094 12.425781 4.097656 C 12.429688 4.199219 12.402344 4.289062 12.335938 4.363281 L 12.179688 4.546875 L 11.699219 4.089844 C 11.636719 4.03125 11.5625 4 11.476562 4 C 11.390625 4 11.316406 4.027344 11.25 4.085938 L 11.0625 4.257812 C 10.988281 4.328125 10.953125 4.410156 10.957031 4.511719 C 10.964844 4.613281 11.003906 4.695312 11.085938 4.757812 L 11.621094 5.167969 C 11.492188 5.246094 11.359375 5.25 11.230469 5.171875 Z M 11.632812 3.675781 C 11.664062 3.675781 11.6875 3.667969 11.710938 3.644531 L 11.855469 3.503906 C 11.910156 3.453125 11.910156 3.398438 11.855469 3.339844 C 11.800781 3.285156 11.746094 3.285156 11.691406 3.339844 L 11.550781 3.480469 C 11.511719 3.515625 11.503906 3.558594 11.523438 3.605469 C 11.542969 3.652344 11.578125 3.675781 11.632812 3.675781 Z M 10.132812 5.9375 C 10.152344 5.9375 10.171875 5.9375 10.191406 5.933594 C 10.296875 5.917969 10.382812 5.867188 10.449219 5.777344 C 10.496094 5.714844 10.488281 5.664062 10.425781 5.617188 C 10.363281 5.570312 10.308594 5.578125 10.265625 5.640625 C 10.199219 5.730469 10.121094 5.742188 10.035156 5.675781 C 9.945312 5.609375 9.933594 5.53125 10 5.445312 C 10.046875 5.382812 10.039062 5.328125 9.976562 5.28125 C 9.914062 5.238281 9.859375 5.246094 9.816406 5.308594 C 9.71875 5.4375 9.707031 5.574219 9.777344 5.71875 C 9.851562 5.863281 9.96875 5.9375 10.132812 5.9375 Z M 6.792969 7.660156 C 6.71875 7.660156 6.679688 7.699219 6.679688 7.777344 C 6.679688 7.886719 6.625 7.941406 6.515625 7.941406 C 6.40625 7.941406 6.351562 7.886719 6.351562 7.777344 C 6.351562 7.699219 6.3125 7.660156 6.234375 7.660156 C 6.15625 7.660156 6.121094 7.699219 6.121094 7.777344 C 6.121094 7.886719 6.15625 7.980469 6.234375 8.054688 C 6.3125 8.132812 6.40625 8.171875 6.515625 8.171875 C 6.625 8.171875 6.71875 8.132812 6.792969 8.054688 C 6.871094 7.980469 6.910156 7.886719 6.910156 7.777344 C 6.910156 7.699219 6.871094 7.660156 6.792969 7.660156 Z M 6.449219 6.855469 C 6.449219 6.777344 6.410156 6.738281 6.332031 6.738281 C 6.257812 6.738281 6.21875 6.777344 6.21875 6.855469 C 6.21875 6.964844 6.164062 7.019531 6.054688 7.019531 C 5.945312 7.019531 5.890625 6.964844 5.890625 6.855469 C 5.890625 6.777344 5.851562 6.738281 5.773438 6.738281 C 5.695312 6.738281 5.660156 6.777344 5.660156 6.855469 C 5.660156 6.964844 5.695312 7.058594 5.773438 7.132812 C 5.851562 7.210938 5.945312 7.25 6.054688 7.25 C 6.164062 7.25 6.253906 7.210938 6.332031 7.132812 C 6.410156 7.058594 6.449219 6.964844 6.449219 6.855469 Z M 7.484375 8.582031 C 7.410156 8.582031 7.371094 8.621094 7.371094 8.699219 C 7.371094 8.808594 7.316406 8.863281 7.207031 8.863281 C 7.097656 8.863281 7.042969 8.808594 7.042969 8.699219 C 7.042969 8.621094 7.003906 8.582031 6.925781 8.582031 C 6.847656 8.582031 6.8125 8.621094 6.8125 8.699219 C 6.8125 8.808594 6.851562 8.902344 6.925781 8.976562 C 7.003906 9.054688 7.097656 9.09375 7.207031 9.09375 C 7.316406 9.09375 7.410156 9.054688 7.484375 8.976562 C 7.5625 8.902344 7.601562 8.808594 7.601562 8.699219 C 7.601562 8.621094 7.5625 8.582031 7.484375 8.582031 Z M 2.71875 3.339844 C 2.664062 3.285156 2.609375 3.285156 2.554688 3.339844 C 2.5 3.398438 2.503906 3.453125 2.558594 3.503906 L 2.699219 3.644531 C 2.757812 3.699219 2.808594 3.695312 2.863281 3.640625 C 2.917969 3.585938 2.917969 3.53125 2.863281 3.480469 Z M 8.179688 7.660156 C 8.101562 7.660156 8.0625 7.699219 8.0625 7.777344 C 8.0625 7.886719 8.007812 7.941406 7.898438 7.941406 C 7.789062 7.941406 7.734375 7.886719 7.734375 7.777344 C 7.734375 7.699219 7.695312 7.660156 7.617188 7.660156 C 7.542969 7.660156 7.503906 7.699219 7.503906 7.777344 C 7.503906 7.886719 7.542969 7.980469 7.617188 8.054688 C 7.695312 8.132812 7.789062 8.171875 7.898438 8.171875 C 8.007812 8.171875 8.101562 8.132812 8.175781 8.054688 C 8.253906 7.980469 8.292969 7.886719 8.292969 7.777344 C 8.292969 7.699219 8.253906 7.660156 8.179688 7.660156 Z M 8.640625 6.738281 C 8.5625 6.738281 8.523438 6.777344 8.523438 6.855469 C 8.523438 6.964844 8.46875 7.019531 8.359375 7.019531 C 8.25 7.019531 8.195312 6.964844 8.195312 6.855469 C 8.195312 6.777344 8.15625 6.738281 8.078125 6.738281 C 8.003906 6.738281 7.964844 6.777344 7.964844 6.855469 C 7.964844 6.964844 8.003906 7.058594 8.078125 7.132812 C 8.15625 7.210938 8.25 7.25 8.359375 7.25 C 8.46875 7.25 8.5625 7.210938 8.636719 7.132812 C 8.714844 7.058594 8.753906 6.964844 8.753906 6.855469 C 8.753906 6.777344 8.714844 6.738281 8.640625 6.738281 Z M 8.640625 6.738281 " fill-opacity="1" fill-rule="nonzero"/></g><g clip-path="url(#31768cb4cd)"><path fill="#545454" d="M 15.863281 25.605469 C 15.738281 25.605469 15.636719 25.503906 15.636719 25.382812 L 15.636719 0.496094 C 15.636719 0.375 15.738281 0.273438 15.863281 0.273438 C 15.988281 0.273438 16.085938 0.375 16.085938 0.496094 L 16.085938 25.382812 C 16.085938 25.503906 15.988281 25.605469 15.863281 25.605469 Z M 15.863281 25.605469 " fill-opacity="1" fill-rule="nonzero"/></g><g clip-path="url(#660202a0ea)"><g transform="matrix(1, 0, 0, 1, 0.000000000000003553, 18)"><g clip-path="url(#464878f916)"><g clip-path="url(#547ab88db5)"><g fill="#545454" fill-opacity="1"><g transform="translate(0.660595, 2.491585)"><g><path d="M 0.734375 0.0195312 C 0.644531 0.0195312 0.5625 0.00390625 0.484375 -0.0273438 C 0.410156 -0.0625 0.34375 -0.105469 0.289062 -0.164062 C 0.234375 -0.222656 0.191406 -0.292969 0.160156 -0.375 C 0.128906 -0.453125 0.113281 -0.542969 0.113281 -0.636719 C 0.113281 -0.734375 0.128906 -0.824219 0.160156 -0.902344 C 0.191406 -0.984375 0.234375 -1.050781 0.289062 -1.113281 C 0.34375 -1.171875 0.410156 -1.21875 0.484375 -1.25 C 0.5625 -1.28125 0.644531 -1.300781 0.734375 -1.300781 C 0.820312 -1.300781 0.898438 -1.285156 0.96875 -1.253906 C 1.039062 -1.222656 1.097656 -1.183594 1.144531 -1.132812 C 1.191406 -1.085938 1.226562 -1.035156 1.246094 -0.980469 L 1.117188 -0.921875 C 1.085938 -0.996094 1.035156 -1.058594 0.96875 -1.101562 C 0.90625 -1.148438 0.824219 -1.171875 0.734375 -1.171875 C 0.640625 -1.171875 0.558594 -1.148438 0.484375 -1.101562 C 0.410156 -1.058594 0.351562 -0.996094 0.3125 -0.917969 C 0.269531 -0.835938 0.25 -0.746094 0.25 -0.636719 C 0.25 -0.53125 0.269531 -0.441406 0.3125 -0.359375 C 0.351562 -0.28125 0.410156 -0.21875 0.484375 -0.175781 C 0.558594 -0.128906 0.640625 -0.109375 0.734375 -0.109375 C 0.824219 -0.109375 0.90625 -0.128906 0.96875 -0.175781 C 1.035156 -0.21875 1.085938 -0.277344 1.117188 -0.351562 L 1.246094 -0.296875 C 1.226562 -0.246094 1.191406 -0.195312 1.144531 -0.144531 C 1.097656 -0.0976562 1.039062 -0.0546875 0.96875 -0.0273438 C 0.898438 0.00390625 0.820312 0.0195312 0.734375 0.0195312 Z M 0.734375 0.0195312 "/></g></g></g></g><g fill="#545454" fill-opacity="1"><g transform="translate(2.000531, 2.491585)"><g><path d="M 0.132812 0 L 0.132812 -1.300781 L 0.261719 -1.300781 L 0.261719 -0.742188 L 0.230469 -0.75 C 0.253906 -0.808594 0.292969 -0.855469 0.34375 -0.890625 C 0.394531 -0.921875 0.457031 -0.941406 0.523438 -0.941406 C 0.589844 -0.941406 0.648438 -0.925781 0.699219 -0.894531 C 0.753906 -0.867188 0.792969 -0.824219 0.824219 -0.773438 C 0.855469 -0.722656 0.871094 -0.664062 0.871094 -0.597656 L 0.871094 0 L 0.742188 0 L 0.742188 -0.546875 C 0.742188 -0.601562 0.730469 -0.652344 0.710938 -0.691406 C 0.691406 -0.730469 0.660156 -0.757812 0.625 -0.78125 C 0.589844 -0.800781 0.546875 -0.8125 0.503906 -0.8125 C 0.457031 -0.8125 0.414062 -0.800781 0.378906 -0.78125 C 0.34375 -0.757812 0.3125 -0.726562 0.292969 -0.6875 C 0.269531 -0.648438 0.261719 -0.601562 0.261719 -0.546875 L 0.261719 0 Z M 0.132812 0 "/></g></g></g><g fill="#545454" fill-opacity="1"><g transform="translate(2.98361, 2.491585)"><g><path d="M 0.132812 0 L 0.132812 -0.917969 L 0.261719 -0.917969 L 0.261719 0 Z M 0.132812 -1.089844 L 0.132812 -1.277344 L 0.261719 -1.277344 L 0.261719 -1.089844 Z M 0.132812 -1.089844 "/></g></g></g><g fill="#545454" fill-opacity="1"><g transform="translate(3.376498, 2.491585)"><g><path d="M 0.550781 0.0195312 C 0.464844 0.0195312 0.386719 0 0.316406 -0.0429688 C 0.25 -0.0820312 0.195312 -0.140625 0.15625 -0.214844 C 0.113281 -0.289062 0.09375 -0.371094 0.09375 -0.464844 C 0.09375 -0.554688 0.113281 -0.636719 0.152344 -0.710938 C 0.191406 -0.78125 0.246094 -0.835938 0.3125 -0.878906 C 0.378906 -0.917969 0.453125 -0.941406 0.535156 -0.941406 C 0.601562 -0.941406 0.664062 -0.929688 0.714844 -0.902344 C 0.765625 -0.878906 0.8125 -0.84375 0.847656 -0.804688 C 0.882812 -0.761719 0.914062 -0.714844 0.933594 -0.664062 C 0.953125 -0.609375 0.960938 -0.558594 0.960938 -0.503906 C 0.960938 -0.492188 0.960938 -0.476562 0.960938 -0.464844 C 0.957031 -0.449219 0.957031 -0.433594 0.953125 -0.421875 L 0.175781 -0.421875 L 0.175781 -0.539062 L 0.878906 -0.539062 L 0.820312 -0.488281 C 0.828125 -0.550781 0.820312 -0.609375 0.796875 -0.65625 C 0.773438 -0.707031 0.738281 -0.746094 0.691406 -0.777344 C 0.644531 -0.804688 0.59375 -0.820312 0.535156 -0.820312 C 0.480469 -0.820312 0.425781 -0.804688 0.378906 -0.777344 C 0.328125 -0.746094 0.292969 -0.703125 0.265625 -0.652344 C 0.238281 -0.597656 0.226562 -0.535156 0.230469 -0.460938 C 0.226562 -0.386719 0.238281 -0.324219 0.265625 -0.269531 C 0.296875 -0.214844 0.335938 -0.175781 0.386719 -0.144531 C 0.4375 -0.113281 0.492188 -0.0976562 0.550781 -0.0976562 C 0.617188 -0.0976562 0.675781 -0.117188 0.71875 -0.148438 C 0.765625 -0.179688 0.804688 -0.21875 0.832031 -0.269531 L 0.941406 -0.210938 C 0.921875 -0.167969 0.894531 -0.128906 0.859375 -0.09375 C 0.820312 -0.0585938 0.773438 -0.03125 0.722656 -0.0117188 C 0.671875 0.0117188 0.613281 0.0195312 0.550781 0.0195312 Z M 0.550781 0.0195312 "/></g></g></g><g fill="#545454" fill-opacity="1"><g transform="translate(4.431633, 2.491585)"><g><path d="M 0.226562 0 L 0.226562 -0.792969 L 0.0429688 -0.792969 L 0.0429688 -0.917969 L 0.226562 -0.917969 L 0.226562 -1.003906 C 0.226562 -1.066406 0.242188 -1.121094 0.269531 -1.164062 C 0.296875 -1.207031 0.335938 -1.242188 0.382812 -1.265625 C 0.429688 -1.289062 0.480469 -1.300781 0.535156 -1.300781 C 0.546875 -1.300781 0.558594 -1.296875 0.574219 -1.296875 C 0.589844 -1.292969 0.601562 -1.292969 0.609375 -1.289062 L 0.609375 -1.171875 C 0.601562 -1.175781 0.589844 -1.175781 0.578125 -1.179688 C 0.5625 -1.179688 0.554688 -1.179688 0.546875 -1.179688 C 0.492188 -1.179688 0.445312 -1.164062 0.410156 -1.140625 C 0.375 -1.113281 0.355469 -1.066406 0.355469 -1.003906 L 0.355469 -0.917969 L 0.578125 -0.917969 L 0.578125 -0.792969 L 0.355469 -0.792969 L 0.355469 0 Z M 0.226562 0 "/></g></g></g><g fill="#545454" fill-opacity="1"><g transform="translate(5.10589, 2.491585)"><g/></g></g><g fill="#545454" fill-opacity="1"><g transform="translate(5.397554, 2.491585)"><g><path d="M 0.152344 0 L 0.152344 -1.277344 L 0.976562 -1.277344 L 0.976562 -1.148438 L 0.289062 -1.148438 L 0.289062 -0.707031 L 0.941406 -0.707031 L 0.941406 -0.578125 L 0.289062 -0.578125 L 0.289062 -0.128906 L 0.976562 -0.128906 L 0.976562 0 Z M 0.152344 0 "/></g></g></g><g fill="#545454" fill-opacity="1"><g transform="translate(6.447544, 2.491585)"><g><path d="M 0.546875 0.0195312 C 0.460938 0.0195312 0.382812 0 0.316406 -0.0429688 C 0.246094 -0.0820312 0.191406 -0.140625 0.152344 -0.214844 C 0.113281 -0.285156 0.09375 -0.367188 0.09375 -0.460938 C 0.09375 -0.550781 0.113281 -0.636719 0.152344 -0.707031 C 0.191406 -0.777344 0.246094 -0.835938 0.316406 -0.878906 C 0.382812 -0.917969 0.460938 -0.941406 0.546875 -0.941406 C 0.625 -0.941406 0.695312 -0.921875 0.757812 -0.890625 C 0.820312 -0.855469 0.867188 -0.808594 0.902344 -0.75 L 0.882812 -0.714844 L 0.882812 -1.300781 L 1.011719 -1.300781 L 1.011719 0 L 0.882812 0 L 0.882812 -0.207031 L 0.902344 -0.1875 C 0.871094 -0.121094 0.824219 -0.0703125 0.761719 -0.0351562 C 0.699219 0.00390625 0.625 0.0195312 0.546875 0.0195312 Z M 0.554688 -0.109375 C 0.617188 -0.109375 0.671875 -0.125 0.722656 -0.15625 C 0.769531 -0.183594 0.8125 -0.226562 0.839844 -0.28125 C 0.867188 -0.332031 0.882812 -0.394531 0.882812 -0.460938 C 0.882812 -0.527344 0.867188 -0.585938 0.839844 -0.640625 C 0.8125 -0.691406 0.769531 -0.734375 0.722656 -0.765625 C 0.671875 -0.796875 0.617188 -0.8125 0.554688 -0.8125 C 0.492188 -0.8125 0.4375 -0.796875 0.390625 -0.765625 C 0.339844 -0.734375 0.300781 -0.691406 0.273438 -0.640625 C 0.246094 -0.585938 0.230469 -0.527344 0.230469 -0.460938 C 0.230469 -0.394531 0.246094 -0.332031 0.273438 -0.28125 C 0.300781 -0.226562 0.339844 -0.183594 0.386719 -0.15625 C 0.4375 -0.125 0.492188 -0.109375 0.554688 -0.109375 Z M 0.554688 -0.109375 "/></g></g></g><g fill="#545454" fill-opacity="1"><g transform="translate(7.591895, 2.491585)"><g><path d="M 0.457031 0.0195312 C 0.394531 0.0195312 0.335938 0.00390625 0.28125 -0.0234375 C 0.230469 -0.0546875 0.1875 -0.0976562 0.160156 -0.152344 C 0.128906 -0.207031 0.113281 -0.269531 0.113281 -0.339844 L 0.113281 -0.917969 L 0.242188 -0.917969 L 0.242188 -0.355469 C 0.242188 -0.304688 0.253906 -0.261719 0.273438 -0.226562 C 0.292969 -0.1875 0.320312 -0.160156 0.355469 -0.140625 C 0.390625 -0.117188 0.433594 -0.109375 0.480469 -0.109375 C 0.527344 -0.109375 0.570312 -0.117188 0.605469 -0.140625 C 0.640625 -0.160156 0.671875 -0.191406 0.691406 -0.230469 C 0.710938 -0.269531 0.722656 -0.316406 0.722656 -0.371094 L 0.722656 -0.917969 L 0.851562 -0.917969 L 0.851562 0 L 0.722656 0 L 0.722656 -0.179688 L 0.75 -0.171875 C 0.730469 -0.113281 0.691406 -0.0664062 0.640625 -0.03125 C 0.585938 0.00390625 0.527344 0.0195312 0.457031 0.0195312 Z M 0.457031 0.0195312 "/></g></g></g><g fill="#545454" fill-opacity="1"><g transform="translate(8.574974, 2.491585)"><g><path d="M 0.550781 0.0195312 C 0.460938 0.0195312 0.382812 0 0.3125 -0.0429688 C 0.246094 -0.0859375 0.191406 -0.144531 0.152344 -0.214844 C 0.113281 -0.289062 0.09375 -0.371094 0.09375 -0.460938 C 0.09375 -0.554688 0.113281 -0.636719 0.152344 -0.707031 C 0.191406 -0.777344 0.246094 -0.835938 0.3125 -0.878906 C 0.382812 -0.917969 0.460938 -0.941406 0.550781 -0.941406 C 0.609375 -0.941406 0.664062 -0.929688 0.714844 -0.910156 C 0.765625 -0.890625 0.808594 -0.859375 0.847656 -0.828125 C 0.886719 -0.792969 0.914062 -0.75 0.933594 -0.707031 L 0.820312 -0.644531 C 0.796875 -0.695312 0.761719 -0.734375 0.714844 -0.765625 C 0.667969 -0.796875 0.613281 -0.8125 0.550781 -0.8125 C 0.492188 -0.8125 0.4375 -0.796875 0.386719 -0.765625 C 0.339844 -0.734375 0.300781 -0.695312 0.273438 -0.640625 C 0.246094 -0.585938 0.230469 -0.527344 0.230469 -0.460938 C 0.230469 -0.394531 0.246094 -0.332031 0.273438 -0.28125 C 0.300781 -0.226562 0.339844 -0.183594 0.386719 -0.15625 C 0.4375 -0.125 0.492188 -0.109375 0.550781 -0.109375 C 0.613281 -0.109375 0.667969 -0.125 0.714844 -0.15625 C 0.757812 -0.183594 0.792969 -0.226562 0.820312 -0.277344 L 0.933594 -0.214844 C 0.914062 -0.167969 0.886719 -0.128906 0.847656 -0.09375 C 0.808594 -0.0585938 0.765625 -0.03125 0.714844 -0.0117188 C 0.664062 0.0117188 0.609375 0.0195312 0.550781 0.0195312 Z M 0.550781 0.0195312 "/></g></g></g><g fill="#545454" fill-opacity="1"><g transform="translate(9.604374, 2.491585)"><g><path d="M 0.398438 0.0195312 C 0.339844 0.0195312 0.289062 0.0078125 0.242188 -0.0117188 C 0.195312 -0.0351562 0.160156 -0.0664062 0.132812 -0.105469 C 0.109375 -0.144531 0.09375 -0.1875 0.09375 -0.238281 C 0.09375 -0.285156 0.105469 -0.332031 0.125 -0.371094 C 0.144531 -0.410156 0.179688 -0.441406 0.222656 -0.46875 C 0.265625 -0.496094 0.320312 -0.515625 0.386719 -0.527344 L 0.75 -0.589844 L 0.75 -0.472656 L 0.417969 -0.417969 C 0.351562 -0.40625 0.304688 -0.382812 0.277344 -0.351562 C 0.246094 -0.324219 0.230469 -0.285156 0.230469 -0.242188 C 0.230469 -0.203125 0.246094 -0.167969 0.28125 -0.140625 C 0.3125 -0.109375 0.355469 -0.0976562 0.40625 -0.0976562 C 0.46875 -0.0976562 0.523438 -0.109375 0.570312 -0.136719 C 0.617188 -0.164062 0.65625 -0.199219 0.679688 -0.246094 C 0.707031 -0.292969 0.71875 -0.34375 0.71875 -0.398438 L 0.71875 -0.632812 C 0.71875 -0.6875 0.699219 -0.730469 0.660156 -0.765625 C 0.621094 -0.800781 0.570312 -0.816406 0.503906 -0.816406 C 0.449219 -0.816406 0.398438 -0.804688 0.355469 -0.773438 C 0.316406 -0.746094 0.28125 -0.710938 0.261719 -0.664062 L 0.144531 -0.730469 C 0.164062 -0.769531 0.191406 -0.804688 0.226562 -0.835938 C 0.265625 -0.867188 0.308594 -0.894531 0.355469 -0.910156 C 0.402344 -0.929688 0.453125 -0.941406 0.503906 -0.941406 C 0.570312 -0.941406 0.632812 -0.925781 0.683594 -0.902344 C 0.734375 -0.875 0.777344 -0.839844 0.804688 -0.792969 C 0.835938 -0.746094 0.847656 -0.691406 0.847656 -0.632812 L 0.847656 0 L 0.71875 0 L 0.71875 -0.183594 L 0.738281 -0.164062 C 0.722656 -0.128906 0.699219 -0.0976562 0.664062 -0.0703125 C 0.632812 -0.0429688 0.589844 -0.0195312 0.546875 -0.00390625 C 0.5 0.0117188 0.453125 0.0195312 0.398438 0.0195312 Z M 0.398438 0.0195312 "/></g></g></g><g fill="#545454" fill-opacity="1"><g transform="translate(10.585737, 2.491585)"><g><path d="M 0.484375 0.0117188 C 0.402344 0.0117188 0.339844 -0.015625 0.292969 -0.0625 C 0.25 -0.109375 0.226562 -0.179688 0.226562 -0.269531 L 0.226562 -0.792969 L 0.0546875 -0.792969 L 0.0546875 -0.917969 L 0.0976562 -0.917969 C 0.136719 -0.917969 0.167969 -0.933594 0.191406 -0.957031 C 0.214844 -0.984375 0.226562 -1.015625 0.226562 -1.054688 L 0.226562 -1.132812 L 0.355469 -1.132812 L 0.355469 -0.917969 L 0.558594 -0.917969 L 0.558594 -0.792969 L 0.355469 -0.792969 L 0.355469 -0.269531 C 0.355469 -0.238281 0.359375 -0.210938 0.367188 -0.1875 C 0.378906 -0.164062 0.394531 -0.144531 0.417969 -0.128906 C 0.4375 -0.117188 0.46875 -0.109375 0.507812 -0.109375 C 0.515625 -0.109375 0.527344 -0.109375 0.539062 -0.113281 C 0.550781 -0.113281 0.5625 -0.113281 0.570312 -0.113281 L 0.570312 0 C 0.558594 0.00390625 0.542969 0.0078125 0.523438 0.0078125 C 0.507812 0.0078125 0.496094 0.0117188 0.484375 0.0117188 Z M 0.484375 0.0117188 "/></g></g></g><g fill="#545454" fill-opacity="1"><g transform="translate(11.251416, 2.491585)"><g><path d="M 0.132812 0 L 0.132812 -0.917969 L 0.261719 -0.917969 L 0.261719 0 Z M 0.132812 -1.089844 L 0.132812 -1.277344 L 0.261719 -1.277344 L 0.261719 -1.089844 Z M 0.132812 -1.089844 "/></g></g></g><g fill="#545454" fill-opacity="1"><g transform="translate(11.644303, 2.491585)"><g><path d="M 0.5625 0.0195312 C 0.476562 0.0195312 0.398438 0 0.324219 -0.0429688 C 0.253906 -0.0820312 0.199219 -0.140625 0.15625 -0.214844 C 0.117188 -0.285156 0.09375 -0.367188 0.09375 -0.460938 C 0.09375 -0.554688 0.113281 -0.636719 0.15625 -0.707031 C 0.199219 -0.777344 0.253906 -0.835938 0.324219 -0.878906 C 0.394531 -0.917969 0.472656 -0.941406 0.5625 -0.941406 C 0.652344 -0.941406 0.730469 -0.917969 0.800781 -0.878906 C 0.871094 -0.835938 0.929688 -0.78125 0.96875 -0.707031 C 1.007812 -0.636719 1.03125 -0.554688 1.03125 -0.460938 C 1.03125 -0.367188 1.007812 -0.285156 0.964844 -0.210938 C 0.921875 -0.140625 0.867188 -0.0820312 0.796875 -0.0429688 C 0.726562 0 0.648438 0.0195312 0.5625 0.0195312 Z M 0.5625 -0.109375 C 0.625 -0.109375 0.679688 -0.125 0.730469 -0.15625 C 0.78125 -0.183594 0.820312 -0.226562 0.847656 -0.28125 C 0.878906 -0.335938 0.890625 -0.394531 0.890625 -0.460938 C 0.890625 -0.527344 0.878906 -0.585938 0.847656 -0.640625 C 0.820312 -0.691406 0.78125 -0.734375 0.730469 -0.765625 C 0.679688 -0.796875 0.625 -0.8125 0.5625 -0.8125 C 0.5 -0.8125 0.445312 -0.796875 0.394531 -0.765625 C 0.347656 -0.734375 0.304688 -0.691406 0.277344 -0.640625 C 0.246094 -0.585938 0.230469 -0.527344 0.230469 -0.460938 C 0.230469 -0.394531 0.246094 -0.335938 0.277344 -0.28125 C 0.304688 -0.226562 0.347656 -0.183594 0.394531 -0.15625 C 0.445312 -0.125 0.5 -0.109375 0.5625 -0.109375 Z M 0.5625 -0.109375 "/></g></g></g><g clip-path="url(#66215aecb6)"><g fill="#545454" fill-opacity="1"><g transform="translate(12.768066, 2.491585)"><g><path d="M 0.132812 0 L 0.132812 -0.917969 L 0.261719 -0.917969 L 0.261719 -0.742188 L 0.230469 -0.75 C 0.253906 -0.808594 0.292969 -0.855469 0.34375 -0.890625 C 0.394531 -0.921875 0.457031 -0.941406 0.523438 -0.941406 C 0.589844 -0.941406 0.648438 -0.925781 0.699219 -0.894531 C 0.753906 -0.867188 0.792969 -0.824219 0.824219 -0.773438 C 0.855469 -0.722656 0.871094 -0.664062 0.871094 -0.597656 L 0.871094 0 L 0.742188 0 L 0.742188 -0.546875 C 0.742188 -0.601562 0.730469 -0.652344 0.710938 -0.691406 C 0.691406 -0.730469 0.664062 -0.757812 0.628906 -0.78125 C 0.589844 -0.800781 0.550781 -0.8125 0.503906 -0.8125 C 0.457031 -0.8125 0.414062 -0.800781 0.378906 -0.78125 C 0.339844 -0.757812 0.3125 -0.726562 0.292969 -0.6875 C 0.269531 -0.648438 0.261719 -0.601562 0.261719 -0.546875 L 0.261719 0 Z M 0.132812 0 "/></g></g></g></g><g fill="#545454" fill-opacity="1"><g transform="translate(2.132897, 4.808651)"><g><path d="M 0.753906 0.0195312 C 0.664062 0.0195312 0.582031 0.00390625 0.503906 -0.0273438 C 0.425781 -0.0625 0.359375 -0.105469 0.300781 -0.164062 C 0.242188 -0.222656 0.195312 -0.292969 0.164062 -0.375 C 0.128906 -0.457031 0.113281 -0.542969 0.113281 -0.640625 C 0.113281 -0.734375 0.128906 -0.824219 0.164062 -0.90625 C 0.195312 -0.984375 0.242188 -1.054688 0.300781 -1.113281 C 0.359375 -1.171875 0.425781 -1.21875 0.503906 -1.25 C 0.582031 -1.28125 0.664062 -1.300781 0.753906 -1.300781 C 0.84375 -1.300781 0.925781 -1.28125 1.003906 -1.25 C 1.082031 -1.21875 1.148438 -1.171875 1.207031 -1.113281 C 1.265625 -1.054688 1.308594 -0.984375 1.34375 -0.902344 C 1.375 -0.824219 1.394531 -0.734375 1.394531 -0.640625 C 1.394531 -0.542969 1.375 -0.457031 1.34375 -0.375 C 1.308594 -0.292969 1.265625 -0.222656 1.207031 -0.164062 C 1.148438 -0.105469 1.082031 -0.0625 1.003906 -0.0273438 C 0.925781 0.00390625 0.84375 0.0195312 0.753906 0.0195312 Z M 0.753906 -0.109375 C 0.828125 -0.109375 0.894531 -0.121094 0.957031 -0.148438 C 1.019531 -0.175781 1.070312 -0.214844 1.117188 -0.265625 C 1.160156 -0.3125 1.195312 -0.371094 1.21875 -0.433594 C 1.242188 -0.5 1.257812 -0.566406 1.257812 -0.640625 C 1.257812 -0.710938 1.242188 -0.78125 1.21875 -0.84375 C 1.195312 -0.910156 1.160156 -0.964844 1.117188 -1.015625 C 1.070312 -1.0625 1.019531 -1.101562 0.957031 -1.128906 C 0.894531 -1.15625 0.828125 -1.171875 0.753906 -1.171875 C 0.679688 -1.171875 0.609375 -1.15625 0.550781 -1.128906 C 0.488281 -1.101562 0.4375 -1.0625 0.390625 -1.015625 C 0.347656 -0.964844 0.3125 -0.910156 0.289062 -0.84375 C 0.261719 -0.78125 0.25 -0.710938 0.25 -0.640625 C 0.25 -0.566406 0.261719 -0.5 0.289062 -0.433594 C 0.3125 -0.371094 0.347656 -0.3125 0.390625 -0.265625 C 0.4375 -0.214844 0.488281 -0.175781 0.550781 -0.148438 C 0.613281 -0.121094 0.679688 -0.109375 0.753906 -0.109375 Z M 0.753906 -0.109375 "/></g></g></g><g fill="#545454" fill-opacity="1"><g transform="translate(3.639255, 4.808651)"><g><path d="M 0.226562 0 L 0.226562 -0.792969 L 0.0429688 -0.792969 L 0.0429688 -0.917969 L 0.226562 -0.917969 L 0.226562 -1.003906 C 0.226562 -1.066406 0.242188 -1.121094 0.269531 -1.164062 C 0.296875 -1.207031 0.335938 -1.242188 0.382812 -1.265625 C 0.429688 -1.289062 0.480469 -1.300781 0.535156 -1.300781 C 0.546875 -1.300781 0.558594 -1.296875 0.574219 -1.296875 C 0.589844 -1.292969 0.601562 -1.292969 0.609375 -1.289062 L 0.609375 -1.171875 C 0.601562 -1.175781 0.589844 -1.175781 0.578125 -1.179688 C 0.5625 -1.179688 0.554688 -1.179688 0.546875 -1.179688 C 0.492188 -1.179688 0.445312 -1.164062 0.410156 -1.140625 C 0.375 -1.113281 0.355469 -1.066406 0.355469 -1.003906 L 0.355469 -0.917969 L 0.578125 -0.917969 L 0.578125 -0.792969 L 0.355469 -0.792969 L 0.355469 0 Z M 0.226562 0 "/></g></g></g><g fill="#545454" fill-opacity="1"><g transform="translate(4.313512, 4.808651)"><g><path d="M 0.226562 0 L 0.226562 -0.792969 L 0.0429688 -0.792969 L 0.0429688 -0.917969 L 0.226562 -0.917969 L 0.226562 -1.003906 C 0.226562 -1.066406 0.242188 -1.121094 0.269531 -1.164062 C 0.296875 -1.207031 0.335938 -1.242188 0.382812 -1.265625 C 0.429688 -1.289062 0.480469 -1.300781 0.535156 -1.300781 C 0.546875 -1.300781 0.558594 -1.296875 0.574219 -1.296875 C 0.589844 -1.292969 0.601562 -1.292969 0.609375 -1.289062 L 0.609375 -1.171875 C 0.601562 -1.175781 0.589844 -1.175781 0.578125 -1.179688 C 0.5625 -1.179688 0.554688 -1.179688 0.546875 -1.179688 C 0.492188 -1.179688 0.445312 -1.164062 0.410156 -1.140625 C 0.375 -1.113281 0.355469 -1.066406 0.355469 -1.003906 L 0.355469 -0.917969 L 0.578125 -0.917969 L 0.578125 -0.792969 L 0.355469 -0.792969 L 0.355469 0 Z M 0.226562 0 "/></g></g></g><g fill="#545454" fill-opacity="1"><g transform="translate(4.987769, 4.808651)"><g><path d="M 0.132812 0 L 0.132812 -0.917969 L 0.261719 -0.917969 L 0.261719 0 Z M 0.132812 -1.089844 L 0.132812 -1.277344 L 0.261719 -1.277344 L 0.261719 -1.089844 Z M 0.132812 -1.089844 "/></g></g></g><g fill="#545454" fill-opacity="1"><g transform="translate(5.380656, 4.808651)"><g><path d="M 0.550781 0.0195312 C 0.460938 0.0195312 0.382812 0 0.3125 -0.0429688 C 0.246094 -0.0859375 0.191406 -0.144531 0.152344 -0.214844 C 0.113281 -0.289062 0.09375 -0.371094 0.09375 -0.460938 C 0.09375 -0.554688 0.113281 -0.636719 0.152344 -0.707031 C 0.191406 -0.777344 0.246094 -0.835938 0.3125 -0.878906 C 0.382812 -0.917969 0.460938 -0.941406 0.550781 -0.941406 C 0.609375 -0.941406 0.664062 -0.929688 0.714844 -0.910156 C 0.765625 -0.890625 0.808594 -0.859375 0.847656 -0.828125 C 0.886719 -0.792969 0.914062 -0.75 0.933594 -0.707031 L 0.820312 -0.644531 C 0.796875 -0.695312 0.761719 -0.734375 0.714844 -0.765625 C 0.667969 -0.796875 0.613281 -0.8125 0.550781 -0.8125 C 0.492188 -0.8125 0.4375 -0.796875 0.386719 -0.765625 C 0.339844 -0.734375 0.300781 -0.695312 0.273438 -0.640625 C 0.246094 -0.585938 0.230469 -0.527344 0.230469 -0.460938 C 0.230469 -0.394531 0.246094 -0.332031 0.273438 -0.28125 C 0.300781 -0.226562 0.339844 -0.183594 0.386719 -0.15625 C 0.4375 -0.125 0.492188 -0.109375 0.550781 -0.109375 C 0.613281 -0.109375 0.667969 -0.125 0.714844 -0.15625 C 0.757812 -0.183594 0.792969 -0.226562 0.820312 -0.277344 L 0.933594 -0.214844 C 0.914062 -0.167969 0.886719 -0.128906 0.847656 -0.09375 C 0.808594 -0.0585938 0.765625 -0.03125 0.714844 -0.0117188 C 0.664062 0.0117188 0.609375 0.0195312 0.550781 0.0195312 Z M 0.550781 0.0195312 "/></g></g></g><g fill="#545454" fill-opacity="1"><g transform="translate(6.410057, 4.808651)"><g><path d="M 0.550781 0.0195312 C 0.464844 0.0195312 0.386719 0 0.316406 -0.0429688 C 0.25 -0.0820312 0.195312 -0.140625 0.15625 -0.214844 C 0.113281 -0.289062 0.09375 -0.371094 0.09375 -0.464844 C 0.09375 -0.554688 0.113281 -0.636719 0.152344 -0.710938 C 0.191406 -0.78125 0.246094 -0.835938 0.3125 -0.878906 C 0.378906 -0.917969 0.453125 -0.941406 0.535156 -0.941406 C 0.601562 -0.941406 0.664062 -0.929688 0.714844 -0.902344 C 0.765625 -0.878906 0.8125 -0.84375 0.847656 -0.804688 C 0.882812 -0.761719 0.914062 -0.714844 0.933594 -0.664062 C 0.953125 -0.609375 0.960938 -0.558594 0.960938 -0.503906 C 0.960938 -0.492188 0.960938 -0.476562 0.960938 -0.464844 C 0.957031 -0.449219 0.957031 -0.433594 0.953125 -0.421875 L 0.175781 -0.421875 L 0.175781 -0.539062 L 0.878906 -0.539062 L 0.820312 -0.488281 C 0.828125 -0.550781 0.820312 -0.609375 0.796875 -0.65625 C 0.773438 -0.707031 0.738281 -0.746094 0.691406 -0.777344 C 0.644531 -0.804688 0.59375 -0.820312 0.535156 -0.820312 C 0.480469 -0.820312 0.425781 -0.804688 0.378906 -0.777344 C 0.328125 -0.746094 0.292969 -0.703125 0.265625 -0.652344 C 0.238281 -0.597656 0.226562 -0.535156 0.230469 -0.460938 C 0.226562 -0.386719 0.238281 -0.324219 0.265625 -0.269531 C 0.296875 -0.214844 0.335938 -0.175781 0.386719 -0.144531 C 0.4375 -0.113281 0.492188 -0.0976562 0.550781 -0.0976562 C 0.617188 -0.0976562 0.675781 -0.117188 0.71875 -0.148438 C 0.765625 -0.179688 0.804688 -0.21875 0.832031 -0.269531 L 0.941406 -0.210938 C 0.921875 -0.167969 0.894531 -0.128906 0.859375 -0.09375 C 0.820312 -0.0585938 0.773438 -0.03125 0.722656 -0.0117188 C 0.671875 0.0117188 0.613281 0.0195312 0.550781 0.0195312 Z M 0.550781 0.0195312 "/></g></g></g><g fill="#545454" fill-opacity="1"><g transform="translate(7.465192, 4.808651)"><g/></g></g><g fill="#545454" fill-opacity="1"><g transform="translate(7.756857, 4.808651)"><g><path d="M 0.152344 0 L 0.152344 -1.277344 L 0.570312 -1.277344 C 0.699219 -1.277344 0.808594 -1.253906 0.902344 -1.199219 C 0.996094 -1.148438 1.070312 -1.074219 1.121094 -0.980469 C 1.171875 -0.882812 1.199219 -0.769531 1.199219 -0.640625 C 1.199219 -0.511719 1.171875 -0.398438 1.121094 -0.300781 C 1.070312 -0.207031 0.996094 -0.132812 0.902344 -0.078125 C 0.808594 -0.0273438 0.699219 0 0.570312 0 Z M 0.289062 -0.128906 L 0.570312 -0.128906 C 0.667969 -0.128906 0.753906 -0.148438 0.828125 -0.191406 C 0.898438 -0.234375 0.953125 -0.292969 0.996094 -0.367188 C 1.035156 -0.445312 1.054688 -0.535156 1.054688 -0.640625 C 1.054688 -0.742188 1.035156 -0.835938 0.992188 -0.910156 C 0.953125 -0.988281 0.898438 -1.046875 0.824219 -1.085938 C 0.753906 -1.128906 0.667969 -1.148438 0.570312 -1.148438 L 0.289062 -1.148438 Z M 0.289062 -0.128906 "/></g></g></g><g fill="#545454" fill-opacity="1"><g transform="translate(9.029883, 4.808651)"><g><path d="M 0.5625 0.0195312 C 0.476562 0.0195312 0.398438 0 0.324219 -0.0429688 C 0.253906 -0.0820312 0.199219 -0.140625 0.15625 -0.214844 C 0.117188 -0.285156 0.09375 -0.367188 0.09375 -0.460938 C 0.09375 -0.554688 0.113281 -0.636719 0.15625 -0.707031 C 0.199219 -0.777344 0.253906 -0.835938 0.324219 -0.878906 C 0.394531 -0.917969 0.472656 -0.941406 0.5625 -0.941406 C 0.652344 -0.941406 0.730469 -0.917969 0.800781 -0.878906 C 0.871094 -0.835938 0.929688 -0.78125 0.96875 -0.707031 C 1.007812 -0.636719 1.03125 -0.554688 1.03125 -0.460938 C 1.03125 -0.367188 1.007812 -0.285156 0.964844 -0.210938 C 0.921875 -0.140625 0.867188 -0.0820312 0.796875 -0.0429688 C 0.726562 0 0.648438 0.0195312 0.5625 0.0195312 Z M 0.5625 -0.109375 C 0.625 -0.109375 0.679688 -0.125 0.730469 -0.15625 C 0.78125 -0.183594 0.820312 -0.226562 0.847656 -0.28125 C 0.878906 -0.335938 0.890625 -0.394531 0.890625 -0.460938 C 0.890625 -0.527344 0.878906 -0.585938 0.847656 -0.640625 C 0.820312 -0.691406 0.78125 -0.734375 0.730469 -0.765625 C 0.679688 -0.796875 0.625 -0.8125 0.5625 -0.8125 C 0.5 -0.8125 0.445312 -0.796875 0.394531 -0.765625 C 0.347656 -0.734375 0.304688 -0.691406 0.277344 -0.640625 C 0.246094 -0.585938 0.230469 -0.527344 0.230469 -0.460938 C 0.230469 -0.394531 0.246094 -0.335938 0.277344 -0.28125 C 0.304688 -0.226562 0.347656 -0.183594 0.394531 -0.15625 C 0.445312 -0.125 0.5 -0.109375 0.5625 -0.109375 Z M 0.5625 -0.109375 "/></g></g></g><g fill="#545454" fill-opacity="1"><g transform="translate(10.153646, 4.808651)"><g><path d="M 0.546875 0.0195312 C 0.460938 0.0195312 0.382812 0 0.316406 -0.0429688 C 0.246094 -0.0820312 0.191406 -0.140625 0.152344 -0.214844 C 0.113281 -0.285156 0.09375 -0.367188 0.09375 -0.460938 C 0.09375 -0.550781 0.113281 -0.636719 0.152344 -0.707031 C 0.191406 -0.777344 0.246094 -0.835938 0.316406 -0.878906 C 0.382812 -0.917969 0.460938 -0.941406 0.546875 -0.941406 C 0.625 -0.941406 0.695312 -0.921875 0.757812 -0.890625 C 0.820312 -0.855469 0.867188 -0.808594 0.902344 -0.75 L 0.882812 -0.714844 L 0.882812 -1.300781 L 1.011719 -1.300781 L 1.011719 0 L 0.882812 0 L 0.882812 -0.207031 L 0.902344 -0.1875 C 0.871094 -0.121094 0.824219 -0.0703125 0.761719 -0.0351562 C 0.699219 0.00390625 0.625 0.0195312 0.546875 0.0195312 Z M 0.554688 -0.109375 C 0.617188 -0.109375 0.671875 -0.125 0.722656 -0.15625 C 0.769531 -0.183594 0.8125 -0.226562 0.839844 -0.28125 C 0.867188 -0.332031 0.882812 -0.394531 0.882812 -0.460938 C 0.882812 -0.527344 0.867188 -0.585938 0.839844 -0.640625 C 0.8125 -0.691406 0.769531 -0.734375 0.722656 -0.765625 C 0.671875 -0.796875 0.617188 -0.8125 0.554688 -0.8125 C 0.492188 -0.8125 0.4375 -0.796875 0.390625 -0.765625 C 0.339844 -0.734375 0.300781 -0.691406 0.273438 -0.640625 C 0.246094 -0.585938 0.230469 -0.527344 0.230469 -0.460938 C 0.230469 -0.394531 0.246094 -0.332031 0.273438 -0.28125 C 0.300781 -0.226562 0.339844 -0.183594 0.386719 -0.15625 C 0.4375 -0.125 0.492188 -0.109375 0.554688 -0.109375 Z M 0.554688 -0.109375 "/></g></g></g><g fill="#545454" fill-opacity="1"><g transform="translate(11.297997, 4.808651)"><g><path d="M 0.398438 0.0195312 C 0.339844 0.0195312 0.289062 0.0078125 0.242188 -0.0117188 C 0.195312 -0.0351562 0.160156 -0.0664062 0.132812 -0.105469 C 0.109375 -0.144531 0.09375 -0.1875 0.09375 -0.238281 C 0.09375 -0.285156 0.105469 -0.332031 0.125 -0.371094 C 0.144531 -0.410156 0.179688 -0.441406 0.222656 -0.46875 C 0.265625 -0.496094 0.320312 -0.515625 0.386719 -0.527344 L 0.75 -0.589844 L 0.75 -0.472656 L 0.417969 -0.417969 C 0.351562 -0.40625 0.304688 -0.382812 0.277344 -0.351562 C 0.246094 -0.324219 0.230469 -0.285156 0.230469 -0.242188 C 0.230469 -0.203125 0.246094 -0.167969 0.28125 -0.140625 C 0.3125 -0.109375 0.355469 -0.0976562 0.40625 -0.0976562 C 0.46875 -0.0976562 0.523438 -0.109375 0.570312 -0.136719 C 0.617188 -0.164062 0.65625 -0.199219 0.679688 -0.246094 C 0.707031 -0.292969 0.71875 -0.34375 0.71875 -0.398438 L 0.71875 -0.632812 C 0.71875 -0.6875 0.699219 -0.730469 0.660156 -0.765625 C 0.621094 -0.800781 0.570312 -0.816406 0.503906 -0.816406 C 0.449219 -0.816406 0.398438 -0.804688 0.355469 -0.773438 C 0.316406 -0.746094 0.28125 -0.710938 0.261719 -0.664062 L 0.144531 -0.730469 C 0.164062 -0.769531 0.191406 -0.804688 0.226562 -0.835938 C 0.265625 -0.867188 0.308594 -0.894531 0.355469 -0.910156 C 0.402344 -0.929688 0.453125 -0.941406 0.503906 -0.941406 C 0.570312 -0.941406 0.632812 -0.925781 0.683594 -0.902344 C 0.734375 -0.875 0.777344 -0.839844 0.804688 -0.792969 C 0.835938 -0.746094 0.847656 -0.691406 0.847656 -0.632812 L 0.847656 0 L 0.71875 0 L 0.71875 -0.183594 L 0.738281 -0.164062 C 0.722656 -0.128906 0.699219 -0.0976562 0.664062 -0.0703125 C 0.632812 -0.0429688 0.589844 -0.0195312 0.546875 -0.00390625 C 0.5 0.0117188 0.453125 0.0195312 0.398438 0.0195312 Z M 0.398438 0.0195312 "/></g></g></g></g></g></g><g transform="matrix(1, 0, 0, 1, 18, 1)"><g clip-path="url(#2847f13312)"><g clip-path="url(#4c5195a6af)"><g fill="#545454" fill-opacity="1"><g transform="translate(0.168213, 4.965186)"><g><path d="M 0.3125 0 L 0.3125 -3.296875 L 0.921875 -3.296875 L 0.921875 0 Z M 0.3125 0 "/></g></g></g></g><g fill="#545454" fill-opacity="1"><g transform="translate(1.402773, 4.965186)"><g><path d="M 0.265625 0 L 0.265625 -2.40625 L 0.8125 -2.40625 L 0.8125 -1.9375 L 0.765625 -2.015625 C 0.828125 -2.160156 0.921875 -2.269531 1.046875 -2.34375 C 1.171875 -2.414062 1.320312 -2.453125 1.5 -2.453125 C 1.675781 -2.453125 1.832031 -2.414062 1.96875 -2.34375 C 2.101562 -2.269531 2.207031 -2.160156 2.28125 -2.015625 C 2.363281 -1.878906 2.40625 -1.722656 2.40625 -1.546875 L 2.40625 0 L 1.828125 0 L 1.828125 -1.40625 C 1.828125 -1.507812 1.804688 -1.597656 1.765625 -1.671875 C 1.722656 -1.753906 1.664062 -1.816406 1.59375 -1.859375 C 1.519531 -1.898438 1.429688 -1.921875 1.328125 -1.921875 C 1.234375 -1.921875 1.148438 -1.898438 1.078125 -1.859375 C 1.003906 -1.816406 0.945312 -1.753906 0.90625 -1.671875 C 0.863281 -1.597656 0.84375 -1.507812 0.84375 -1.40625 L 0.84375 0 Z M 0.265625 0 "/></g></g></g><g fill="#545454" fill-opacity="1"><g transform="translate(4.026767, 4.965186)"><g><path d="M 1.359375 0.03125 C 1.085938 0.03125 0.878906 -0.0390625 0.734375 -0.1875 C 0.585938 -0.34375 0.515625 -0.554688 0.515625 -0.828125 L 0.515625 -1.890625 L 0.09375 -1.890625 L 0.09375 -2.40625 L 0.140625 -2.40625 C 0.253906 -2.40625 0.34375 -2.4375 0.40625 -2.5 C 0.476562 -2.5625 0.515625 -2.648438 0.515625 -2.765625 L 0.515625 -2.953125 L 1.09375 -2.953125 L 1.09375 -2.40625 L 1.640625 -2.40625 L 1.640625 -1.890625 L 1.09375 -1.890625 L 1.09375 -0.859375 C 1.09375 -0.773438 1.101562 -0.707031 1.125 -0.65625 C 1.15625 -0.601562 1.203125 -0.5625 1.265625 -0.53125 C 1.328125 -0.5 1.40625 -0.484375 1.5 -0.484375 C 1.519531 -0.484375 1.539062 -0.484375 1.5625 -0.484375 C 1.59375 -0.484375 1.625 -0.488281 1.65625 -0.5 L 1.65625 0 C 1.613281 0.0078125 1.566406 0.015625 1.515625 0.015625 C 1.460938 0.0234375 1.410156 0.03125 1.359375 0.03125 Z M 1.359375 0.03125 "/></g></g></g><g fill="#545454" fill-opacity="1"><g transform="translate(5.854269, 4.965186)"><g><path d="M 1.40625 0.046875 C 1.164062 0.046875 0.953125 -0.00390625 0.765625 -0.109375 C 0.578125 -0.222656 0.429688 -0.375 0.328125 -0.5625 C 0.222656 -0.757812 0.171875 -0.972656 0.171875 -1.203125 C 0.171875 -1.441406 0.222656 -1.65625 0.328125 -1.84375 C 0.429688 -2.03125 0.570312 -2.175781 0.75 -2.28125 C 0.9375 -2.394531 1.140625 -2.453125 1.359375 -2.453125 C 1.554688 -2.453125 1.722656 -2.421875 1.859375 -2.359375 C 2.003906 -2.296875 2.125 -2.210938 2.21875 -2.109375 C 2.320312 -2.003906 2.398438 -1.878906 2.453125 -1.734375 C 2.503906 -1.597656 2.53125 -1.445312 2.53125 -1.28125 C 2.53125 -1.238281 2.53125 -1.195312 2.53125 -1.15625 C 2.53125 -1.113281 2.519531 -1.078125 2.5 -1.046875 L 0.65625 -1.046875 L 0.65625 -1.484375 L 2.1875 -1.484375 L 1.90625 -1.28125 C 1.9375 -1.414062 1.929688 -1.535156 1.890625 -1.640625 C 1.847656 -1.742188 1.78125 -1.828125 1.6875 -1.890625 C 1.601562 -1.953125 1.492188 -1.984375 1.359375 -1.984375 C 1.242188 -1.984375 1.140625 -1.953125 1.046875 -1.890625 C 0.953125 -1.828125 0.878906 -1.738281 0.828125 -1.625 C 0.773438 -1.507812 0.757812 -1.367188 0.78125 -1.203125 C 0.757812 -1.054688 0.773438 -0.925781 0.828125 -0.8125 C 0.878906 -0.695312 0.957031 -0.609375 1.0625 -0.546875 C 1.164062 -0.484375 1.285156 -0.453125 1.421875 -0.453125 C 1.546875 -0.453125 1.65625 -0.476562 1.75 -0.53125 C 1.84375 -0.59375 1.914062 -0.671875 1.96875 -0.765625 L 2.4375 -0.53125 C 2.394531 -0.414062 2.320312 -0.3125 2.21875 -0.21875 C 2.113281 -0.132812 1.992188 -0.0664062 1.859375 -0.015625 C 1.722656 0.0234375 1.570312 0.046875 1.40625 0.046875 Z M 1.40625 0.046875 "/></g></g></g><g fill="#545454" fill-opacity="1"><g transform="translate(8.562337, 4.965186)"><g><path d="M 1.4375 0.96875 C 1.257812 0.96875 1.09375 0.9375 0.9375 0.875 C 0.78125 0.820312 0.644531 0.742188 0.53125 0.640625 C 0.425781 0.535156 0.347656 0.410156 0.296875 0.265625 L 0.84375 0.0625 C 0.875 0.175781 0.941406 0.265625 1.046875 0.328125 C 1.148438 0.398438 1.28125 0.4375 1.4375 0.4375 C 1.550781 0.4375 1.65625 0.414062 1.75 0.375 C 1.84375 0.332031 1.910156 0.269531 1.953125 0.1875 C 2.003906 0.101562 2.03125 0 2.03125 -0.125 L 2.03125 -0.671875 L 2.140625 -0.53125 C 2.054688 -0.382812 1.945312 -0.273438 1.8125 -0.203125 C 1.675781 -0.128906 1.519531 -0.09375 1.34375 -0.09375 C 1.113281 -0.09375 0.910156 -0.144531 0.734375 -0.25 C 0.554688 -0.351562 0.414062 -0.492188 0.3125 -0.671875 C 0.21875 -0.859375 0.171875 -1.0625 0.171875 -1.28125 C 0.171875 -1.507812 0.21875 -1.710938 0.3125 -1.890625 C 0.414062 -2.066406 0.554688 -2.203125 0.734375 -2.296875 C 0.910156 -2.398438 1.109375 -2.453125 1.328125 -2.453125 C 1.503906 -2.453125 1.660156 -2.414062 1.796875 -2.34375 C 1.929688 -2.269531 2.046875 -2.160156 2.140625 -2.015625 L 2.0625 -1.875 L 2.0625 -2.40625 L 2.609375 -2.40625 L 2.609375 -0.125 C 2.609375 0.0820312 2.554688 0.269531 2.453125 0.4375 C 2.359375 0.601562 2.222656 0.734375 2.046875 0.828125 C 1.867188 0.921875 1.664062 0.96875 1.4375 0.96875 Z M 1.40625 -0.625 C 1.53125 -0.625 1.640625 -0.648438 1.734375 -0.703125 C 1.828125 -0.765625 1.898438 -0.84375 1.953125 -0.9375 C 2.003906 -1.039062 2.03125 -1.15625 2.03125 -1.28125 C 2.03125 -1.40625 2.003906 -1.515625 1.953125 -1.609375 C 1.898438 -1.710938 1.828125 -1.789062 1.734375 -1.84375 C 1.640625 -1.894531 1.53125 -1.921875 1.40625 -1.921875 C 1.289062 -1.921875 1.179688 -1.894531 1.078125 -1.84375 C 0.984375 -1.789062 0.910156 -1.710938 0.859375 -1.609375 C 0.804688 -1.515625 0.78125 -1.40625 0.78125 -1.28125 C 0.78125 -1.15625 0.804688 -1.039062 0.859375 -0.9375 C 0.910156 -0.84375 0.984375 -0.765625 1.078125 -0.703125 C 1.171875 -0.648438 1.28125 -0.625 1.40625 -0.625 Z M 1.40625 -0.625 "/></g></g></g><g fill="#545454" fill-opacity="1"><g transform="translate(11.447403, 4.965186)"><g><path d="M 0.265625 0 L 0.265625 -2.40625 L 0.8125 -2.40625 L 0.8125 -1.875 L 0.765625 -1.953125 C 0.828125 -2.128906 0.914062 -2.253906 1.03125 -2.328125 C 1.15625 -2.398438 1.300781 -2.4375 1.46875 -2.4375 L 1.609375 -2.4375 L 1.609375 -1.921875 L 1.390625 -1.921875 C 1.234375 -1.921875 1.101562 -1.867188 1 -1.765625 C 0.894531 -1.660156 0.84375 -1.519531 0.84375 -1.34375 L 0.84375 0 Z M 0.265625 0 "/></g></g></g><g fill="#545454" fill-opacity="1"><g transform="translate(13.102333, 4.965186)"><g><path d="M 1 0.046875 C 0.832031 0.046875 0.6875 0.0195312 0.5625 -0.03125 C 0.4375 -0.0820312 0.335938 -0.160156 0.265625 -0.265625 C 0.203125 -0.367188 0.171875 -0.492188 0.171875 -0.640625 C 0.171875 -0.765625 0.195312 -0.878906 0.25 -0.984375 C 0.3125 -1.097656 0.40625 -1.1875 0.53125 -1.25 C 0.65625 -1.320312 0.8125 -1.375 1 -1.40625 L 1.796875 -1.53125 L 1.796875 -1.09375 L 1.109375 -0.984375 C 0.992188 -0.960938 0.910156 -0.921875 0.859375 -0.859375 C 0.804688 -0.804688 0.78125 -0.738281 0.78125 -0.65625 C 0.78125 -0.570312 0.8125 -0.503906 0.875 -0.453125 C 0.9375 -0.410156 1.015625 -0.390625 1.109375 -0.390625 C 1.222656 -0.390625 1.328125 -0.414062 1.421875 -0.46875 C 1.515625 -0.519531 1.585938 -0.585938 1.640625 -0.671875 C 1.691406 -0.765625 1.71875 -0.867188 1.71875 -0.984375 L 1.71875 -1.59375 C 1.71875 -1.695312 1.675781 -1.785156 1.59375 -1.859375 C 1.519531 -1.929688 1.414062 -1.96875 1.28125 -1.96875 C 1.15625 -1.96875 1.046875 -1.929688 0.953125 -1.859375 C 0.859375 -1.796875 0.785156 -1.707031 0.734375 -1.59375 L 0.265625 -1.828125 C 0.316406 -1.953125 0.390625 -2.0625 0.484375 -2.15625 C 0.585938 -2.25 0.707031 -2.320312 0.84375 -2.375 C 0.988281 -2.425781 1.140625 -2.453125 1.296875 -2.453125 C 1.492188 -2.453125 1.664062 -2.414062 1.8125 -2.34375 C 1.96875 -2.269531 2.085938 -2.171875 2.171875 -2.046875 C 2.253906 -1.921875 2.296875 -1.769531 2.296875 -1.59375 L 2.296875 0 L 1.75 0 L 1.75 -0.40625 L 1.875 -0.421875 C 1.8125 -0.316406 1.738281 -0.226562 1.65625 -0.15625 C 1.570312 -0.09375 1.472656 -0.0390625 1.359375 0 C 1.253906 0.03125 1.132812 0.046875 1 0.046875 Z M 1 0.046875 "/></g></g></g><g fill="#545454" fill-opacity="1"><g transform="translate(15.668801, 4.965186)"><g><path d="M 1.359375 0.03125 C 1.085938 0.03125 0.878906 -0.0390625 0.734375 -0.1875 C 0.585938 -0.34375 0.515625 -0.554688 0.515625 -0.828125 L 0.515625 -1.890625 L 0.09375 -1.890625 L 0.09375 -2.40625 L 0.140625 -2.40625 C 0.253906 -2.40625 0.34375 -2.4375 0.40625 -2.5 C 0.476562 -2.5625 0.515625 -2.648438 0.515625 -2.765625 L 0.515625 -2.953125 L 1.09375 -2.953125 L 1.09375 -2.40625 L 1.640625 -2.40625 L 1.640625 -1.890625 L 1.09375 -1.890625 L 1.09375 -0.859375 C 1.09375 -0.773438 1.101562 -0.707031 1.125 -0.65625 C 1.15625 -0.601562 1.203125 -0.5625 1.265625 -0.53125 C 1.328125 -0.5 1.40625 -0.484375 1.5 -0.484375 C 1.519531 -0.484375 1.539062 -0.484375 1.5625 -0.484375 C 1.59375 -0.484375 1.625 -0.488281 1.65625 -0.5 L 1.65625 0 C 1.613281 0.0078125 1.566406 0.015625 1.515625 0.015625 C 1.460938 0.0234375 1.410156 0.03125 1.359375 0.03125 Z M 1.359375 0.03125 "/></g></g></g><g fill="#545454" fill-opacity="1"><g transform="translate(17.496304, 4.965186)"><g><path d="M 1.40625 0.046875 C 1.164062 0.046875 0.953125 -0.00390625 0.765625 -0.109375 C 0.578125 -0.222656 0.429688 -0.375 0.328125 -0.5625 C 0.222656 -0.757812 0.171875 -0.972656 0.171875 -1.203125 C 0.171875 -1.441406 0.222656 -1.65625 0.328125 -1.84375 C 0.429688 -2.03125 0.570312 -2.175781 0.75 -2.28125 C 0.9375 -2.394531 1.140625 -2.453125 1.359375 -2.453125 C 1.554688 -2.453125 1.722656 -2.421875 1.859375 -2.359375 C 2.003906 -2.296875 2.125 -2.210938 2.21875 -2.109375 C 2.320312 -2.003906 2.398438 -1.878906 2.453125 -1.734375 C 2.503906 -1.597656 2.53125 -1.445312 2.53125 -1.28125 C 2.53125 -1.238281 2.53125 -1.195312 2.53125 -1.15625 C 2.53125 -1.113281 2.519531 -1.078125 2.5 -1.046875 L 0.65625 -1.046875 L 0.65625 -1.484375 L 2.1875 -1.484375 L 1.90625 -1.28125 C 1.9375 -1.414062 1.929688 -1.535156 1.890625 -1.640625 C 1.847656 -1.742188 1.78125 -1.828125 1.6875 -1.890625 C 1.601562 -1.953125 1.492188 -1.984375 1.359375 -1.984375 C 1.242188 -1.984375 1.140625 -1.953125 1.046875 -1.890625 C 0.953125 -1.828125 0.878906 -1.738281 0.828125 -1.625 C 0.773438 -1.507812 0.757812 -1.367188 0.78125 -1.203125 C 0.757812 -1.054688 0.773438 -0.925781 0.828125 -0.8125 C 0.878906 -0.695312 0.957031 -0.609375 1.0625 -0.546875 C 1.164062 -0.484375 1.285156 -0.453125 1.421875 -0.453125 C 1.546875 -0.453125 1.65625 -0.476562 1.75 -0.53125 C 1.84375 -0.59375 1.914062 -0.671875 1.96875 -0.765625 L 2.4375 -0.53125 C 2.394531 -0.414062 2.320312 -0.3125 2.21875 -0.21875 C 2.113281 -0.132812 1.992188 -0.0664062 1.859375 -0.015625 C 1.722656 0.0234375 1.570312 0.046875 1.40625 0.046875 Z M 1.40625 0.046875 "/></g></g></g><g fill="#545454" fill-opacity="1"><g transform="translate(20.204372, 4.965186)"><g><path d="M 1.390625 0.046875 C 1.160156 0.046875 0.953125 -0.00390625 0.765625 -0.109375 C 0.578125 -0.222656 0.429688 -0.375 0.328125 -0.5625 C 0.222656 -0.757812 0.171875 -0.972656 0.171875 -1.203125 C 0.171875 -1.441406 0.222656 -1.65625 0.328125 -1.84375 C 0.429688 -2.03125 0.578125 -2.175781 0.765625 -2.28125 C 0.953125 -2.394531 1.160156 -2.453125 1.390625 -2.453125 C 1.566406 -2.453125 1.726562 -2.414062 1.875 -2.34375 C 2.019531 -2.269531 2.132812 -2.171875 2.21875 -2.046875 L 2.125 -1.921875 L 2.125 -3.34375 L 2.703125 -3.34375 L 2.703125 0 L 2.15625 0 L 2.15625 -0.46875 L 2.21875 -0.34375 C 2.132812 -0.21875 2.019531 -0.117188 1.875 -0.046875 C 1.726562 0.015625 1.566406 0.046875 1.390625 0.046875 Z M 1.453125 -0.484375 C 1.585938 -0.484375 1.703125 -0.507812 1.796875 -0.5625 C 1.898438 -0.625 1.976562 -0.707031 2.03125 -0.8125 C 2.09375 -0.925781 2.125 -1.054688 2.125 -1.203125 C 2.125 -1.335938 2.09375 -1.460938 2.03125 -1.578125 C 1.976562 -1.691406 1.898438 -1.773438 1.796875 -1.828125 C 1.703125 -1.890625 1.585938 -1.921875 1.453125 -1.921875 C 1.316406 -1.921875 1.195312 -1.890625 1.09375 -1.828125 C 1 -1.765625 0.921875 -1.679688 0.859375 -1.578125 C 0.804688 -1.472656 0.78125 -1.347656 0.78125 -1.203125 C 0.78125 -1.054688 0.804688 -0.925781 0.859375 -0.8125 C 0.921875 -0.707031 1 -0.625 1.09375 -0.5625 C 1.195312 -0.507812 1.316406 -0.484375 1.453125 -0.484375 Z M 1.453125 -0.484375 "/></g></g></g></g></g><g clip-path="url(#63170692a3)"><g transform="matrix(1, 0, 0, 1, 18, 8)"><g clip-path="url(#b0081485c8)"><g clip-path="url(#379cef3469)"><g fill="#545454" fill-opacity="1"><g transform="translate(0.168213, 4.819761)"><g><path d="M 0.3125 0 L 0.3125 -3.296875 L 0.890625 -3.296875 L 2.125 -1.625 L 1.859375 -1.625 L 3.0625 -3.296875 L 3.640625 -3.296875 L 3.640625 0 L 3.03125 0 L 3.03125 -2.609375 L 3.265625 -2.546875 L 2.015625 -0.890625 L 1.9375 -0.890625 L 0.71875 -2.546875 L 0.921875 -2.609375 L 0.921875 0 Z M 0.3125 0 "/></g></g></g></g><g fill="#545454" fill-opacity="1"><g transform="translate(4.119691, 4.819761)"><g><path d="M 0.046875 0 L 1.1875 -3.296875 L 1.96875 -3.296875 L 3.09375 0 L 2.453125 0 L 2.21875 -0.703125 L 0.9375 -0.703125 L 0.703125 0 Z M 1.109375 -1.234375 L 2.03125 -1.234375 L 1.484375 -2.875 L 1.65625 -2.875 Z M 1.109375 -1.234375 "/></g></g></g><g fill="#545454" fill-opacity="1"><g transform="translate(7.270252, 4.819761)"><g><path d="M 0.3125 0 L 0.3125 -3.296875 L 0.78125 -3.296875 L 2.59375 -0.859375 L 2.359375 -0.8125 L 2.359375 -3.296875 L 2.953125 -3.296875 L 2.953125 0 L 2.484375 0 L 0.703125 -2.453125 L 0.921875 -2.5 L 0.921875 0 Z M 0.3125 0 "/></g></g></g><g fill="#545454" fill-opacity="1"><g transform="translate(10.549136, 4.819761)"><g><path d="M 0.046875 0 L 1.1875 -3.296875 L 1.96875 -3.296875 L 3.09375 0 L 2.453125 0 L 2.21875 -0.703125 L 0.9375 -0.703125 L 0.703125 0 Z M 1.109375 -1.234375 L 2.03125 -1.234375 L 1.484375 -2.875 L 1.65625 -2.875 Z M 1.109375 -1.234375 "/></g></g></g><g fill="#545454" fill-opacity="1"><g transform="translate(13.699697, 4.819761)"><g><path d="M 1.875 0.046875 C 1.644531 0.046875 1.425781 0.00390625 1.21875 -0.078125 C 1.019531 -0.160156 0.84375 -0.273438 0.6875 -0.421875 C 0.539062 -0.578125 0.425781 -0.757812 0.34375 -0.96875 C 0.257812 -1.175781 0.21875 -1.40625 0.21875 -1.65625 C 0.21875 -1.894531 0.257812 -2.117188 0.34375 -2.328125 C 0.425781 -2.535156 0.539062 -2.710938 0.6875 -2.859375 C 0.832031 -3.015625 1.003906 -3.132812 1.203125 -3.21875 C 1.410156 -3.300781 1.628906 -3.34375 1.859375 -3.34375 C 2.097656 -3.34375 2.3125 -3.300781 2.5 -3.21875 C 2.6875 -3.144531 2.84375 -3.039062 2.96875 -2.90625 C 3.101562 -2.78125 3.195312 -2.640625 3.25 -2.484375 L 2.71875 -2.21875 C 2.65625 -2.394531 2.550781 -2.535156 2.40625 -2.640625 C 2.257812 -2.742188 2.078125 -2.796875 1.859375 -2.796875 C 1.660156 -2.796875 1.476562 -2.742188 1.3125 -2.640625 C 1.15625 -2.546875 1.035156 -2.414062 0.953125 -2.25 C 0.867188 -2.082031 0.828125 -1.882812 0.828125 -1.65625 C 0.828125 -1.414062 0.867188 -1.207031 0.953125 -1.03125 C 1.046875 -0.863281 1.171875 -0.734375 1.328125 -0.640625 C 1.484375 -0.546875 1.664062 -0.5 1.875 -0.5 C 2.039062 -0.5 2.195312 -0.53125 2.34375 -0.59375 C 2.488281 -0.65625 2.601562 -0.75 2.6875 -0.875 C 2.769531 -1 2.8125 -1.144531 2.8125 -1.3125 L 2.8125 -1.5625 L 3.09375 -1.328125 L 1.859375 -1.328125 L 1.859375 -1.828125 L 3.40625 -1.828125 L 3.40625 -1.5 C 3.40625 -1.25 3.363281 -1.023438 3.28125 -0.828125 C 3.195312 -0.640625 3.082031 -0.476562 2.9375 -0.34375 C 2.789062 -0.207031 2.625 -0.109375 2.4375 -0.046875 C 2.257812 0.015625 2.070312 0.046875 1.875 0.046875 Z M 1.875 0.046875 "/></g></g></g><g fill="#545454" fill-opacity="1"><g transform="translate(17.275054, 4.819761)"><g><path d="M 0.3125 0 L 0.3125 -3.296875 L 2.5 -3.296875 L 2.5 -2.765625 L 0.921875 -2.765625 L 0.921875 -1.921875 L 2.421875 -1.921875 L 2.421875 -1.390625 L 0.921875 -1.390625 L 0.921875 -0.53125 L 2.5 -0.53125 L 2.5 0 Z M 0.3125 0 "/></g></g></g><g fill="#545454" fill-opacity="1"><g transform="translate(19.907897, 4.819761)"><g><path d="M 0.3125 0 L 0.3125 -3.296875 L 0.890625 -3.296875 L 2.125 -1.625 L 1.859375 -1.625 L 3.0625 -3.296875 L 3.640625 -3.296875 L 3.640625 0 L 3.03125 0 L 3.03125 -2.609375 L 3.265625 -2.546875 L 2.015625 -0.890625 L 1.9375 -0.890625 L 0.71875 -2.546875 L 0.921875 -2.609375 L 0.921875 0 Z M 0.3125 0 "/></g></g></g><g fill="#545454" fill-opacity="1"><g transform="translate(23.859374, 4.819761)"><g><path d="M 0.3125 0 L 0.3125 -3.296875 L 2.5 -3.296875 L 2.5 -2.765625 L 0.921875 -2.765625 L 0.921875 -1.921875 L 2.421875 -1.921875 L 2.421875 -1.390625 L 0.921875 -1.390625 L 0.921875 -0.53125 L 2.5 -0.53125 L 2.5 0 Z M 0.3125 0 "/></g></g></g><g fill="#545454" fill-opacity="1"><g transform="translate(26.492217, 4.819761)"><g><path d="M 0.3125 0 L 0.3125 -3.296875 L 0.78125 -3.296875 L 2.59375 -0.859375 L 2.359375 -0.8125 L 2.359375 -3.296875 L 2.953125 -3.296875 L 2.953125 0 L 2.484375 0 L 0.703125 -2.453125 L 0.921875 -2.5 L 0.921875 0 Z M 0.3125 0 "/></g></g></g><g clip-path="url(#b36a2c990b)"><g fill="#545454" fill-opacity="1"><g transform="translate(29.771101, 4.819761)"><g><path d="M 0.90625 0 L 0.90625 -2.765625 L 0.046875 -2.765625 L 0.046875 -3.296875 L 2.34375 -3.296875 L 2.34375 -2.765625 L 1.515625 -2.765625 L 1.515625 0 Z M 0.90625 0 "/></g></g></g></g></g></g></g><g transform="matrix(1, 0, 0, 1, 18, 15)"><g clip-path="url(#06ef587c98)"><g clip-path="url(#4eb1c2ecd4)"><g fill="#545454" fill-opacity="1"><g transform="translate(0.168213, 4.674336)"><g><path d="M 1.5 0.046875 C 1.289062 0.046875 1.09375 0.0078125 0.90625 -0.0625 C 0.726562 -0.132812 0.578125 -0.238281 0.453125 -0.375 C 0.328125 -0.519531 0.234375 -0.679688 0.171875 -0.859375 L 0.671875 -1.078125 C 0.753906 -0.890625 0.867188 -0.738281 1.015625 -0.625 C 1.171875 -0.519531 1.34375 -0.46875 1.53125 -0.46875 C 1.632812 -0.46875 1.722656 -0.484375 1.796875 -0.515625 C 1.878906 -0.554688 1.941406 -0.601562 1.984375 -0.65625 C 2.023438 -0.71875 2.046875 -0.789062 2.046875 -0.875 C 2.046875 -0.96875 2.015625 -1.046875 1.953125 -1.109375 C 1.898438 -1.179688 1.816406 -1.234375 1.703125 -1.265625 L 1.0625 -1.46875 C 0.8125 -1.550781 0.617188 -1.671875 0.484375 -1.828125 C 0.359375 -1.984375 0.296875 -2.171875 0.296875 -2.390625 C 0.296875 -2.578125 0.34375 -2.742188 0.4375 -2.890625 C 0.53125 -3.035156 0.660156 -3.144531 0.828125 -3.21875 C 0.992188 -3.300781 1.179688 -3.34375 1.390625 -3.34375 C 1.585938 -3.34375 1.769531 -3.304688 1.9375 -3.234375 C 2.101562 -3.171875 2.242188 -3.078125 2.359375 -2.953125 C 2.484375 -2.828125 2.578125 -2.6875 2.640625 -2.53125 L 2.140625 -2.296875 C 2.078125 -2.460938 1.976562 -2.59375 1.84375 -2.6875 C 1.71875 -2.78125 1.566406 -2.828125 1.390625 -2.828125 C 1.296875 -2.828125 1.207031 -2.804688 1.125 -2.765625 C 1.050781 -2.734375 0.992188 -2.6875 0.953125 -2.625 C 0.910156 -2.5625 0.890625 -2.492188 0.890625 -2.421875 C 0.890625 -2.328125 0.914062 -2.242188 0.96875 -2.171875 C 1.03125 -2.097656 1.125 -2.046875 1.25 -2.015625 L 1.859375 -1.828125 C 2.117188 -1.734375 2.3125 -1.613281 2.4375 -1.46875 C 2.570312 -1.320312 2.640625 -1.132812 2.640625 -0.90625 C 2.640625 -0.71875 2.585938 -0.550781 2.484375 -0.40625 C 2.390625 -0.257812 2.253906 -0.144531 2.078125 -0.0625 C 1.910156 0.0078125 1.71875 0.046875 1.5 0.046875 Z M 1.5 0.046875 "/></g></g></g></g><g fill="#545454" fill-opacity="1"><g transform="translate(3.031154, 4.674336)"><g><path d="M 1.15625 0 L 1.15625 -1.453125 L 0.046875 -3.296875 L 0.734375 -3.296875 L 1.578125 -1.859375 L 1.34375 -1.859375 L 2.1875 -3.296875 L 2.875 -3.296875 L 1.765625 -1.46875 L 1.765625 0 Z M 1.15625 0 "/></g></g></g><g fill="#545454" fill-opacity="1"><g transform="translate(5.951619, 4.674336)"><g><path d="M 1.5 0.046875 C 1.289062 0.046875 1.09375 0.0078125 0.90625 -0.0625 C 0.726562 -0.132812 0.578125 -0.238281 0.453125 -0.375 C 0.328125 -0.519531 0.234375 -0.679688 0.171875 -0.859375 L 0.671875 -1.078125 C 0.753906 -0.890625 0.867188 -0.738281 1.015625 -0.625 C 1.171875 -0.519531 1.34375 -0.46875 1.53125 -0.46875 C 1.632812 -0.46875 1.722656 -0.484375 1.796875 -0.515625 C 1.878906 -0.554688 1.941406 -0.601562 1.984375 -0.65625 C 2.023438 -0.71875 2.046875 -0.789062 2.046875 -0.875 C 2.046875 -0.96875 2.015625 -1.046875 1.953125 -1.109375 C 1.898438 -1.179688 1.816406 -1.234375 1.703125 -1.265625 L 1.0625 -1.46875 C 0.8125 -1.550781 0.617188 -1.671875 0.484375 -1.828125 C 0.359375 -1.984375 0.296875 -2.171875 0.296875 -2.390625 C 0.296875 -2.578125 0.34375 -2.742188 0.4375 -2.890625 C 0.53125 -3.035156 0.660156 -3.144531 0.828125 -3.21875 C 0.992188 -3.300781 1.179688 -3.34375 1.390625 -3.34375 C 1.585938 -3.34375 1.769531 -3.304688 1.9375 -3.234375 C 2.101562 -3.171875 2.242188 -3.078125 2.359375 -2.953125 C 2.484375 -2.828125 2.578125 -2.6875 2.640625 -2.53125 L 2.140625 -2.296875 C 2.078125 -2.460938 1.976562 -2.59375 1.84375 -2.6875 C 1.71875 -2.78125 1.566406 -2.828125 1.390625 -2.828125 C 1.296875 -2.828125 1.207031 -2.804688 1.125 -2.765625 C 1.050781 -2.734375 0.992188 -2.6875 0.953125 -2.625 C 0.910156 -2.5625 0.890625 -2.492188 0.890625 -2.421875 C 0.890625 -2.328125 0.914062 -2.242188 0.96875 -2.171875 C 1.03125 -2.097656 1.125 -2.046875 1.25 -2.015625 L 1.859375 -1.828125 C 2.117188 -1.734375 2.3125 -1.613281 2.4375 -1.46875 C 2.570312 -1.320312 2.640625 -1.132812 2.640625 -0.90625 C 2.640625 -0.71875 2.585938 -0.550781 2.484375 -0.40625 C 2.390625 -0.257812 2.253906 -0.144531 2.078125 -0.0625 C 1.910156 0.0078125 1.71875 0.046875 1.5 0.046875 Z M 1.5 0.046875 "/></g></g></g><g fill="#545454" fill-opacity="1"><g transform="translate(8.81456, 4.674336)"><g><path d="M 0.90625 0 L 0.90625 -2.765625 L 0.046875 -2.765625 L 0.046875 -3.296875 L 2.34375 -3.296875 L 2.34375 -2.765625 L 1.515625 -2.765625 L 1.515625 0 Z M 0.90625 0 "/></g></g></g><g fill="#545454" fill-opacity="1"><g transform="translate(11.212881, 4.674336)"><g><path d="M 0.3125 0 L 0.3125 -3.296875 L 2.5 -3.296875 L 2.5 -2.765625 L 0.921875 -2.765625 L 0.921875 -1.921875 L 2.421875 -1.921875 L 2.421875 -1.390625 L 0.921875 -1.390625 L 0.921875 -0.53125 L 2.5 -0.53125 L 2.5 0 Z M 0.3125 0 "/></g></g></g><g clip-path="url(#04c39a0721)"><g fill="#545454" fill-opacity="1"><g transform="translate(13.845724, 4.674336)"><g><path d="M 0.3125 0 L 0.3125 -3.296875 L 0.890625 -3.296875 L 2.125 -1.625 L 1.859375 -1.625 L 3.0625 -3.296875 L 3.640625 -3.296875 L 3.640625 0 L 3.03125 0 L 3.03125 -2.609375 L 3.265625 -2.546875 L 2.015625 -0.890625 L 1.9375 -0.890625 L 0.71875 -2.546875 L 0.921875 -2.609375 L 0.921875 0 Z M 0.3125 0 "/></g></g></g></g></g></g></g></g></svg>