<svg xmlns="http://www.w3.org/2000/svg" xmlns:xlink="http://www.w3.org/1999/xlink" width="140" zoomAndPan="magnify" viewBox="0 0 104.88 44.999999" height="60" preserveAspectRatio="xMidYMid meet" version="1.0"><defs><g/><clipPath id="95eabb244d"><path d="M 1 1.117188 L 13 1.117188 L 13 17.808594 L 1 17.808594 Z M 1 1.117188 " clip-rule="nonzero"/></clipPath><clipPath id="746a72a4ed"><path d="M 15.722656 0.375 L 16.132812 0.375 L 16.132812 25.546875 L 15.722656 25.546875 Z M 15.722656 0.375 " clip-rule="nonzero"/></clipPath><clipPath id="2a773f7876"><path d="M 0.570312 18 L 14 18 L 14 24 L 0.570312 24 Z M 0.570312 18 " clip-rule="nonzero"/></clipPath><clipPath id="5ebf58e2be"><path d="M 0.570312 1 L 3 1 L 3 3 L 0.570312 3 Z M 0.570312 1 " clip-rule="nonzero"/></clipPath><clipPath id="45889bcf28"><path d="M 13 1 L 13.992188 1 L 13.992188 3 L 13 3 Z M 13 1 " clip-rule="nonzero"/></clipPath><clipPath id="ccebb91e2e"><rect x="0" width="14" y="0" height="6"/></clipPath><clipPath id="abc822989a"><path d="M 0.0703125 1 L 4 1 L 4 6 L 0.0703125 6 Z M 0.0703125 1 " clip-rule="nonzero"/></clipPath><clipPath id="6705d25e5a"><rect x="0" width="20" y="0" height="7"/></clipPath><clipPath id="8553f4787b"><path d="M 18 8 L 50.191406 8 L 50.191406 15 L 18 15 Z M 18 8 " clip-rule="nonzero"/></clipPath><clipPath id="de6c689d1d"><path d="M 0.0703125 1 L 4 1 L 4 5 L 0.0703125 5 Z M 0.0703125 1 " clip-rule="nonzero"/></clipPath><clipPath id="3ebb22d6a8"><rect x="0" width="33" y="0" height="7"/></clipPath><clipPath id="c75b5c7e88"><path d="M 0.0703125 1 L 3 1 L 3 5 L 0.0703125 5 Z M 0.0703125 1 " clip-rule="nonzero"/></clipPath><clipPath id="93a8032b2d"><path d="M 14 1 L 17.808594 1 L 17.808594 5 L 14 5 Z M 14 1 " clip-rule="nonzero"/></clipPath><clipPath id="42d015ce7f"><rect x="0" width="18" y="0" height="6"/></clipPath><clipPath id="9d6c6a24bc"><rect x="0" width="51" y="0" height="26"/></clipPath></defs><g transform="matrix(1, 0, 0, 1, 27, 9)"><g clip-path="url(#9d6c6a24bc)"><g clip-path="url(#95eabb244d)"><path fill="#545454" d="M 6.367188 2.929688 L 6.546875 2.789062 C 6.648438 2.707031 6.753906 2.707031 6.859375 2.785156 L 6.917969 2.832031 C 7.003906 2.894531 7.015625 2.972656 6.960938 3.058594 C 6.902344 3.160156 6.902344 3.257812 6.972656 3.351562 L 7.089844 3.523438 C 7.132812 3.582031 7.183594 3.621094 7.25 3.644531 L 7.25 3.972656 C 7.171875 4.09375 7.058594 4.171875 6.914062 4.207031 C 6.902344 4.207031 6.894531 4.210938 6.882812 4.210938 C 6.726562 4.230469 6.617188 4.171875 6.546875 4.03125 C 6.46875 3.886719 6.488281 3.753906 6.601562 3.632812 C 6.652344 3.578125 6.652344 3.523438 6.59375 3.472656 C 6.539062 3.421875 6.484375 3.421875 6.433594 3.476562 C 6.25 3.675781 6.21875 3.894531 6.34375 4.132812 C 6.425781 4.292969 6.550781 4.390625 6.722656 4.429688 C 6.75 4.578125 6.820312 4.703125 6.933594 4.800781 C 7.046875 4.902344 7.179688 4.957031 7.332031 4.964844 C 7.34375 4.964844 7.355469 4.964844 7.367188 4.964844 C 7.527344 4.964844 7.664062 4.914062 7.785156 4.8125 C 7.910156 4.710938 7.984375 4.582031 8.015625 4.429688 C 8.1875 4.390625 8.308594 4.292969 8.386719 4.132812 C 8.511719 3.890625 8.480469 3.671875 8.292969 3.472656 C 8.242188 3.417969 8.1875 3.417969 8.132812 3.46875 C 8.078125 3.519531 8.078125 3.574219 8.128906 3.628906 C 8.242188 3.75 8.261719 3.882812 8.183594 4.03125 C 8.113281 4.171875 8.003906 4.230469 7.847656 4.210938 C 7.835938 4.210938 7.828125 4.207031 7.816406 4.207031 C 7.671875 4.171875 7.558594 4.09375 7.480469 3.972656 L 7.480469 3.644531 C 7.546875 3.621094 7.597656 3.582031 7.636719 3.523438 L 7.757812 3.351562 C 7.828125 3.257812 7.828125 3.160156 7.769531 3.058594 C 7.714844 2.972656 7.726562 2.894531 7.808594 2.832031 L 7.871094 2.785156 C 7.976562 2.707031 8.082031 2.707031 8.183594 2.789062 L 8.363281 2.929688 C 8.425781 2.976562 8.476562 2.96875 8.523438 2.910156 C 8.570312 2.847656 8.566406 2.796875 8.503906 2.75 L 8.324219 2.609375 C 8.128906 2.457031 7.933594 2.453125 7.734375 2.605469 L 7.671875 2.652344 C 7.589844 2.714844 7.539062 2.792969 7.519531 2.894531 C 7.5 2.996094 7.519531 3.089844 7.574219 3.179688 C 7.582031 3.191406 7.582031 3.207031 7.570312 3.222656 L 7.453125 3.390625 C 7.429688 3.421875 7.402344 3.4375 7.363281 3.4375 C 7.328125 3.4375 7.300781 3.421875 7.277344 3.390625 L 7.15625 3.222656 C 7.148438 3.207031 7.148438 3.191406 7.15625 3.179688 C 7.210938 3.089844 7.226562 2.996094 7.210938 2.894531 C 7.191406 2.792969 7.140625 2.714844 7.058594 2.652344 L 6.996094 2.605469 C 6.796875 2.453125 6.601562 2.457031 6.402344 2.609375 L 6.226562 2.75 C 6.167969 2.796875 6.160156 2.847656 6.207031 2.90625 C 6.253906 2.96875 6.304688 2.972656 6.367188 2.929688 Z M 7.363281 4.195312 C 7.472656 4.320312 7.609375 4.398438 7.773438 4.429688 C 7.773438 4.429688 7.777344 4.429688 7.78125 4.429688 C 7.710938 4.644531 7.566406 4.746094 7.34375 4.738281 C 7.144531 4.722656 7.015625 4.621094 6.957031 4.429688 C 7.121094 4.398438 7.253906 4.320312 7.363281 4.195312 Z M 4.589844 8.050781 C 4.652344 7.960938 4.675781 7.863281 4.660156 7.757812 C 4.644531 7.652344 4.589844 7.566406 4.503906 7.5 C 4.441406 7.457031 4.390625 7.464844 4.34375 7.527344 C 4.300781 7.585938 4.308594 7.640625 4.367188 7.6875 C 4.457031 7.75 4.46875 7.828125 4.402344 7.914062 C 4.339844 8 4.261719 8.011719 4.175781 7.949219 C 4.113281 7.90625 4.0625 7.914062 4.015625 7.972656 C 3.972656 8.035156 3.980469 8.089844 4.039062 8.132812 C 4.128906 8.199219 4.226562 8.222656 4.332031 8.203125 C 4.4375 8.1875 4.523438 8.136719 4.589844 8.050781 Z M 4.34375 6 C 4.359375 6.003906 4.378906 6.003906 4.398438 6.003906 C 4.5625 6.003906 4.675781 5.929688 4.75 5.789062 C 4.820312 5.644531 4.808594 5.507812 4.714844 5.378906 C 4.667969 5.316406 4.617188 5.308594 4.554688 5.355469 C 4.492188 5.398438 4.484375 5.453125 4.53125 5.515625 C 4.59375 5.601562 4.582031 5.679688 4.496094 5.742188 C 4.410156 5.808594 4.332031 5.796875 4.269531 5.710938 C 4.222656 5.648438 4.167969 5.640625 4.109375 5.683594 C 4.046875 5.730469 4.039062 5.785156 4.085938 5.84375 C 4.148438 5.933594 4.234375 5.984375 4.34375 6 Z M 4.445312 6.988281 C 4.511719 6.902344 4.535156 6.804688 4.519531 6.699219 C 4.503906 6.589844 4.453125 6.503906 4.367188 6.441406 C 4.308594 6.394531 4.253906 6.402344 4.207031 6.460938 C 4.160156 6.523438 4.167969 6.578125 4.230469 6.625 C 4.320312 6.6875 4.328125 6.765625 4.265625 6.851562 C 4.199219 6.9375 4.121094 6.949219 4.035156 6.882812 C 3.976562 6.839844 3.921875 6.847656 3.875 6.90625 C 3.828125 6.96875 3.835938 7.023438 3.898438 7.066406 C 3.984375 7.132812 4.082031 7.15625 4.1875 7.140625 C 4.296875 7.125 4.382812 7.074219 4.445312 6.988281 Z M 10.511719 7.949219 C 10.425781 8.015625 10.347656 8.003906 10.28125 7.914062 C 10.21875 7.828125 10.230469 7.75 10.320312 7.6875 C 10.378906 7.640625 10.390625 7.585938 10.34375 7.527344 C 10.296875 7.464844 10.246094 7.457031 10.183594 7.5 C 10.042969 7.605469 9.992188 7.742188 10.035156 7.910156 C 10.074219 8.082031 10.183594 8.179688 10.355469 8.203125 C 10.375 8.207031 10.394531 8.210938 10.414062 8.210938 C 10.5 8.210938 10.578125 8.183594 10.648438 8.132812 C 10.707031 8.089844 10.714844 8.035156 10.671875 7.972656 C 10.625 7.914062 10.574219 7.90625 10.511719 7.949219 Z M 7.363281 7.304688 C 7.472656 7.304688 7.566406 7.265625 7.640625 7.1875 C 7.71875 7.113281 7.757812 7.019531 7.757812 6.914062 C 7.757812 6.835938 7.71875 6.796875 7.640625 6.796875 C 7.566406 6.796875 7.527344 6.835938 7.527344 6.914062 C 7.527344 7.019531 7.472656 7.074219 7.363281 7.074219 C 7.257812 7.074219 7.203125 7.019531 7.203125 6.914062 C 7.203125 6.835938 7.164062 6.796875 7.085938 6.796875 C 7.011719 6.796875 6.972656 6.835938 6.972656 6.914062 C 6.972656 7.019531 7.011719 7.113281 7.089844 7.1875 C 7.164062 7.265625 7.257812 7.304688 7.363281 7.304688 Z M 10.652344 6.882812 C 10.5625 6.949219 10.488281 6.9375 10.421875 6.851562 C 10.359375 6.765625 10.367188 6.6875 10.457031 6.625 C 10.515625 6.578125 10.523438 6.523438 10.480469 6.464844 C 10.433594 6.402344 10.378906 6.394531 10.320312 6.441406 C 10.230469 6.503906 10.179688 6.589844 10.164062 6.699219 C 10.148438 6.804688 10.175781 6.902344 10.238281 6.988281 C 10.304688 7.074219 10.390625 7.125 10.496094 7.140625 C 10.605469 7.15625 10.703125 7.132812 10.789062 7.066406 C 10.851562 7.023438 10.859375 6.96875 10.8125 6.90625 C 10.765625 6.84375 10.710938 6.839844 10.652344 6.882812 Z M 11.546875 5.523438 C 11.730469 5.523438 11.886719 5.453125 12.007812 5.3125 L 12.625 4.59375 C 12.726562 4.46875 12.777344 4.328125 12.769531 4.171875 C 12.761719 4.011719 12.703125 3.875 12.585938 3.761719 L 12.429688 3.609375 L 12.414062 3.355469 C 12.402344 3.1875 12.335938 3.046875 12.222656 2.925781 C 12.109375 2.804688 11.96875 2.734375 11.800781 2.714844 L 11.699219 2.703125 C 11.574219 2.6875 11.472656 2.632812 11.394531 2.535156 L 11.101562 2.179688 C 10.871094 1.898438 10.578125 1.8125 10.230469 1.917969 L 9.335938 2.1875 C 9.28125 1.972656 9.167969 1.796875 8.992188 1.664062 C 8.816406 1.527344 8.621094 1.460938 8.398438 1.460938 L 6.332031 1.460938 C 6.113281 1.460938 5.914062 1.527344 5.742188 1.660156 C 5.566406 1.792969 5.453125 1.96875 5.394531 2.179688 L 4.5 1.917969 C 4.148438 1.8125 3.859375 1.898438 3.628906 2.179688 L 3.335938 2.535156 C 3.257812 2.632812 3.15625 2.6875 3.03125 2.703125 L 2.925781 2.714844 C 2.761719 2.734375 2.621094 2.804688 2.507812 2.925781 C 2.390625 3.046875 2.328125 3.1875 2.316406 3.355469 L 2.300781 3.609375 L 2.144531 3.761719 C 2.027344 3.875 1.96875 4.011719 1.960938 4.171875 C 1.953125 4.328125 2.003906 4.46875 2.105469 4.59375 L 2.722656 5.3125 C 2.816406 5.421875 2.9375 5.492188 3.082031 5.515625 C 3.226562 5.542969 3.363281 5.515625 3.492188 5.441406 L 3.664062 5.339844 L 3.339844 6.796875 C 3.214844 7.347656 3.316406 7.851562 3.640625 8.3125 L 4.253906 9.191406 C 4.308594 9.265625 4.375 9.324219 4.457031 9.367188 L 4.457031 12.015625 C 4.460938 12.171875 4.386719 12.273438 4.234375 12.316406 L 4.058594 12.371094 C 3.800781 12.449219 3.671875 12.621094 3.671875 12.890625 L 3.671875 13.179688 L 3.550781 13.179688 C 3.292969 13.179688 3.070312 13.273438 2.890625 13.453125 C 2.707031 13.636719 2.613281 13.855469 2.613281 14.113281 L 2.613281 15.871094 C 2.613281 16.125 2.703125 16.339844 2.882812 16.523438 C 3.058594 16.703125 3.273438 16.796875 3.527344 16.804688 L 3.527344 16.917969 C 3.527344 17.078125 3.585938 17.210938 3.695312 17.324219 C 3.808594 17.433594 3.941406 17.488281 4.101562 17.488281 L 10.628906 17.488281 C 10.789062 17.488281 10.921875 17.433594 11.035156 17.324219 C 11.144531 17.210938 11.199219 17.078125 11.199219 16.917969 L 11.199219 16.804688 C 11.453125 16.796875 11.671875 16.703125 11.847656 16.523438 C 12.027344 16.339844 12.113281 16.125 12.113281 15.871094 L 12.113281 14.113281 C 12.113281 13.855469 12.023438 13.636719 11.839844 13.453125 C 11.660156 13.273438 11.4375 13.179688 11.179688 13.179688 L 11.058594 13.179688 L 11.058594 12.890625 C 11.058594 12.621094 10.929688 12.449219 10.671875 12.371094 L 10.492188 12.316406 C 10.34375 12.269531 10.269531 12.171875 10.269531 12.019531 L 10.269531 9.367188 C 10.355469 9.324219 10.421875 9.265625 10.476562 9.191406 L 11.089844 8.3125 C 11.414062 7.851562 11.515625 7.347656 11.390625 6.796875 L 11.0625 5.339844 L 11.238281 5.441406 C 11.332031 5.496094 11.4375 5.523438 11.546875 5.523438 Z M 11.90625 5.082031 L 11.351562 4.652344 C 11.289062 4.605469 11.289062 4.558594 11.34375 4.507812 L 11.53125 4.335938 C 11.574219 4.296875 11.617188 4.296875 11.660156 4.335938 L 12.144531 4.796875 Z M 5.589844 2.429688 C 5.589844 2.222656 5.664062 2.050781 5.808594 1.90625 C 5.953125 1.761719 6.128906 1.6875 6.332031 1.6875 L 8.398438 1.6875 C 8.601562 1.6875 8.777344 1.761719 8.921875 1.90625 C 9.066406 2.050781 9.136719 2.222656 9.136719 2.429688 L 9.136719 3.484375 C 9.136719 4.144531 8.875 4.675781 8.351562 5.074219 C 8.125 5.246094 7.871094 5.332031 7.585938 5.332031 L 7.140625 5.332031 C 6.859375 5.332031 6.605469 5.246094 6.378906 5.074219 C 5.855469 4.675781 5.59375 4.144531 5.589844 3.484375 Z M 9.023438 12.535156 L 9.191406 12.746094 C 9.265625 12.839844 9.28125 12.941406 9.242188 13.054688 L 9.195312 13.179688 L 7.824219 13.179688 L 7.773438 13.066406 C 7.722656 12.945312 7.738281 12.835938 7.824219 12.734375 L 7.988281 12.539062 C 8.082031 12.429688 8.125 12.296875 8.113281 12.148438 L 7.957031 9.832031 L 9.089844 9.339844 L 8.90625 12.15625 C 8.894531 12.300781 8.9375 12.425781 9.023438 12.535156 Z M 5.835938 12.148438 L 5.644531 9.34375 L 6.777344 9.835938 L 6.625 12.15625 C 6.617188 12.300781 6.65625 12.425781 6.746094 12.535156 L 6.914062 12.746094 C 6.988281 12.839844 7.003906 12.941406 6.960938 13.054688 L 6.917969 13.179688 L 5.542969 13.179688 L 5.496094 13.066406 C 5.441406 12.945312 5.457031 12.835938 5.542969 12.734375 L 5.707031 12.539062 C 5.804688 12.429688 5.847656 12.296875 5.835938 12.148438 Z M 7.5625 13.15625 L 7.574219 13.179688 L 7.160156 13.179688 L 7.175781 13.132812 C 7.246094 12.941406 7.21875 12.765625 7.089844 12.601562 L 6.921875 12.390625 C 6.871094 12.328125 6.847656 12.253906 6.855469 12.171875 L 7 9.921875 C 7.246094 9.996094 7.488281 9.996094 7.734375 9.921875 L 7.886719 12.164062 C 7.894531 12.25 7.867188 12.328125 7.8125 12.394531 L 7.648438 12.585938 C 7.503906 12.757812 7.472656 12.949219 7.5625 13.15625 Z M 7.25 13.414062 L 7.25 14.535156 C 7.230469 14.539062 7.207031 14.546875 7.1875 14.554688 L 6.53125 13.648438 C 6.75 13.511719 6.992188 13.433594 7.25 13.414062 Z M 7.003906 14.6875 C 6.988281 14.707031 6.976562 14.722656 6.964844 14.742188 L 5.898438 14.394531 C 5.996094 14.15625 6.144531 13.949219 6.34375 13.78125 Z M 6.894531 14.960938 C 6.890625 14.96875 6.890625 14.980469 6.890625 14.992188 C 6.890625 15.003906 6.890625 15.015625 6.894531 15.027344 L 5.828125 15.371094 C 5.765625 15.117188 5.765625 14.867188 5.828125 14.613281 Z M 6.964844 15.242188 C 6.976562 15.261719 6.988281 15.28125 7.003906 15.296875 L 6.34375 16.203125 C 6.144531 16.035156 5.996094 15.828125 5.898438 15.589844 Z M 7.1875 15.429688 C 7.207031 15.4375 7.230469 15.445312 7.25 15.449219 L 7.25 16.570312 C 6.992188 16.550781 6.75 16.472656 6.53125 16.335938 Z M 7.121094 14.992188 C 7.121094 14.828125 7.203125 14.746094 7.363281 14.746094 C 7.527344 14.746094 7.609375 14.828125 7.609375 14.992188 C 7.609375 15.15625 7.527344 15.238281 7.363281 15.238281 C 7.203125 15.238281 7.121094 15.15625 7.121094 14.992188 Z M 7.480469 15.449219 C 7.5 15.445312 7.523438 15.4375 7.542969 15.429688 L 8.199219 16.335938 C 7.980469 16.472656 7.738281 16.550781 7.480469 16.570312 Z M 7.726562 15.296875 C 7.742188 15.28125 7.753906 15.261719 7.765625 15.242188 L 8.832031 15.589844 C 8.734375 15.828125 8.582031 16.035156 8.386719 16.203125 Z M 7.835938 15.027344 C 7.835938 15.015625 7.839844 15.003906 7.839844 14.992188 C 7.839844 14.980469 7.835938 14.96875 7.835938 14.960938 L 8.902344 14.613281 C 8.964844 14.867188 8.964844 15.117188 8.902344 15.371094 Z M 7.765625 14.742188 C 7.753906 14.722656 7.742188 14.707031 7.726562 14.6875 L 8.386719 13.78125 C 8.582031 13.949219 8.734375 14.15625 8.832031 14.394531 Z M 7.542969 14.554688 C 7.523438 14.546875 7.5 14.539062 7.480469 14.535156 L 7.480469 13.414062 C 7.738281 13.433594 7.980469 13.511719 8.199219 13.648438 Z M 7.777344 9.660156 C 7.503906 9.78125 7.226562 9.78125 6.953125 9.660156 L 5.472656 9.019531 C 5.398438 8.984375 5.351562 8.929688 5.332031 8.847656 L 5.054688 7.539062 C 4.992188 7.253906 5.019531 6.976562 5.132812 6.707031 L 5.875 4.902344 C 5.984375 5.035156 6.105469 5.152344 6.242188 5.257812 C 6.507812 5.460938 6.808594 5.558594 7.140625 5.5625 L 7.585938 5.5625 C 7.921875 5.558594 8.222656 5.460938 8.488281 5.257812 C 8.625 5.152344 8.75 5.03125 8.859375 4.898438 L 9.597656 6.699219 C 9.710938 6.96875 9.734375 7.246094 9.675781 7.53125 L 9.398438 8.847656 C 9.378906 8.929688 9.332031 8.984375 9.253906 9.019531 Z M 2.582031 4.796875 L 3.070312 4.335938 C 3.113281 4.296875 3.15625 4.296875 3.199219 4.335938 L 3.386719 4.507812 C 3.441406 4.558594 3.441406 4.605469 3.378906 4.652344 L 2.824219 5.082031 Z M 3.375 5.246094 C 3.246094 5.320312 3.117188 5.320312 2.988281 5.242188 L 3.519531 4.832031 C 3.597656 4.773438 3.640625 4.691406 3.644531 4.589844 C 3.648438 4.488281 3.613281 4.40625 3.539062 4.339844 L 3.355469 4.167969 C 3.292969 4.109375 3.21875 4.082031 3.132812 4.082031 C 3.046875 4.082031 2.976562 4.113281 2.914062 4.171875 L 2.433594 4.625 L 2.28125 4.445312 C 2.214844 4.367188 2.183594 4.28125 2.191406 4.179688 C 2.195312 4.082031 2.230469 3.996094 2.304688 3.925781 L 2.488281 3.742188 C 2.511719 3.722656 2.523438 3.695312 2.523438 3.667969 L 2.546875 3.371094 C 2.554688 3.257812 2.59375 3.164062 2.671875 3.082031 C 2.75 3 2.84375 2.953125 2.953125 2.941406 L 3.058594 2.929688 C 3.148438 2.917969 3.234375 2.890625 3.316406 2.84375 L 3.332031 2.855469 C 3.476562 2.945312 3.585938 3.066406 3.667969 3.214844 L 4.199219 4.183594 C 4.277344 4.328125 4.261719 4.457031 4.15625 4.578125 L 3.761719 5.019531 Z M 4.441406 9.058594 L 3.824219 8.183594 C 3.539062 7.777344 3.453125 7.332031 3.5625 6.847656 L 3.941406 5.164062 L 4.324219 4.730469 C 4.503906 4.53125 4.53125 4.3125 4.402344 4.074219 L 3.871094 3.105469 C 3.777344 2.9375 3.65625 2.800781 3.5 2.695312 C 3.503906 2.691406 3.507812 2.6875 3.511719 2.683594 L 3.804688 2.328125 C 3.972656 2.125 4.183594 2.058594 4.433594 2.136719 L 5.363281 2.40625 C 5.363281 2.414062 5.363281 2.421875 5.363281 2.429688 L 5.363281 3.484375 C 5.363281 3.917969 5.480469 4.320312 5.714844 4.6875 L 4.921875 6.617188 C 4.789062 6.933594 4.757812 7.253906 4.832031 7.585938 L 5.109375 8.894531 C 5.109375 8.902344 5.113281 8.90625 5.113281 8.914062 L 4.90625 9.109375 C 4.835938 9.171875 4.757812 9.199219 4.664062 9.191406 C 4.570312 9.179688 4.496094 9.136719 4.441406 9.058594 Z M 3.902344 12.890625 C 3.898438 12.734375 3.972656 12.632812 4.125 12.589844 L 4.300781 12.535156 C 4.558594 12.457031 4.6875 12.285156 4.6875 12.015625 L 4.6875 9.421875 C 4.691406 9.421875 4.691406 9.421875 4.695312 9.421875 C 4.835938 9.421875 4.957031 9.371094 5.0625 9.273438 L 5.226562 9.121094 C 5.273438 9.167969 5.324219 9.203125 5.382812 9.230469 L 5.40625 9.238281 L 5.609375 12.164062 C 5.613281 12.25 5.589844 12.328125 5.53125 12.394531 L 5.371094 12.585938 C 5.222656 12.757812 5.195312 12.949219 5.285156 13.15625 L 5.296875 13.179688 L 3.902344 13.179688 Z M 3.550781 16.574219 C 3.355469 16.574219 3.1875 16.507812 3.050781 16.367188 C 2.914062 16.230469 2.84375 16.0625 2.84375 15.871094 L 2.84375 14.113281 C 2.84375 13.921875 2.914062 13.753906 3.050781 13.617188 C 3.1875 13.476562 3.355469 13.410156 3.550781 13.410156 L 6.484375 13.410156 C 6.425781 13.441406 6.367188 13.480469 6.308594 13.519531 C 6.304688 13.523438 6.304688 13.523438 6.300781 13.527344 C 6.296875 13.527344 6.296875 13.53125 6.292969 13.53125 C 5.980469 13.761719 5.761719 14.0625 5.640625 14.429688 C 5.640625 14.429688 5.640625 14.433594 5.640625 14.433594 C 5.519531 14.804688 5.519531 15.179688 5.640625 15.550781 C 5.640625 15.554688 5.640625 15.554688 5.644531 15.554688 C 5.765625 15.921875 5.980469 16.222656 6.292969 16.453125 C 6.296875 16.453125 6.296875 16.457031 6.300781 16.457031 C 6.304688 16.460938 6.308594 16.464844 6.3125 16.464844 C 6.367188 16.503906 6.425781 16.542969 6.484375 16.574219 Z M 10.972656 16.917969 C 10.972656 17.011719 10.9375 17.09375 10.871094 17.160156 C 10.804688 17.226562 10.722656 17.261719 10.628906 17.261719 L 4.101562 17.261719 C 4.003906 17.261719 3.925781 17.226562 3.859375 17.160156 C 3.792969 17.09375 3.757812 17.011719 3.757812 16.917969 L 3.757812 16.804688 L 10.972656 16.804688 Z M 11.179688 13.410156 C 11.375 13.410156 11.542969 13.476562 11.679688 13.617188 C 11.816406 13.753906 11.886719 13.921875 11.886719 14.113281 L 11.886719 15.871094 C 11.886719 16.0625 11.816406 16.230469 11.679688 16.367188 C 11.542969 16.507812 11.375 16.574219 11.179688 16.574219 L 8.246094 16.574219 C 8.304688 16.542969 8.363281 16.503906 8.417969 16.464844 C 8.421875 16.464844 8.425781 16.460938 8.429688 16.457031 C 8.433594 16.457031 8.433594 16.453125 8.4375 16.453125 C 8.75 16.222656 8.964844 15.921875 9.085938 15.554688 C 9.085938 15.554688 9.085938 15.554688 9.089844 15.550781 C 9.210938 15.179688 9.210938 14.804688 9.089844 14.433594 C 9.089844 14.433594 9.085938 14.429688 9.085938 14.429688 C 8.964844 14.0625 8.75 13.761719 8.4375 13.53125 C 8.433594 13.53125 8.433594 13.527344 8.429688 13.527344 C 8.425781 13.523438 8.421875 13.523438 8.421875 13.519531 C 8.363281 13.480469 8.304688 13.441406 8.246094 13.410156 Z M 10.425781 12.535156 L 10.605469 12.589844 C 10.753906 12.632812 10.828125 12.734375 10.828125 12.890625 L 10.828125 13.179688 L 9.4375 13.179688 L 9.457031 13.132812 C 9.527344 12.941406 9.496094 12.765625 9.371094 12.601562 L 9.203125 12.390625 C 9.152344 12.328125 9.128906 12.253906 9.132812 12.171875 L 9.324219 9.238281 L 9.347656 9.230469 C 9.40625 9.203125 9.457031 9.167969 9.5 9.121094 L 9.667969 9.273438 C 9.769531 9.371094 9.894531 9.421875 10.035156 9.421875 C 10.039062 9.421875 10.039062 9.421875 10.042969 9.421875 L 10.042969 12.019531 C 10.042969 12.285156 10.167969 12.457031 10.425781 12.535156 Z M 11.167969 6.847656 C 11.277344 7.332031 11.1875 7.777344 10.902344 8.183594 L 10.289062 9.058594 C 10.234375 9.136719 10.160156 9.179688 10.066406 9.191406 C 9.972656 9.199219 9.894531 9.171875 9.824219 9.109375 L 9.617188 8.914062 C 9.617188 8.90625 9.621094 8.898438 9.621094 8.894531 L 9.898438 7.578125 C 9.96875 7.246094 9.941406 6.925781 9.808594 6.609375 L 9.015625 4.679688 C 9.25 4.316406 9.367188 3.917969 9.367188 3.484375 L 9.367188 2.429688 C 9.367188 2.425781 9.367188 2.421875 9.367188 2.417969 L 10.296875 2.136719 C 10.546875 2.058594 10.757812 2.125 10.925781 2.328125 L 11.21875 2.683594 C 11.222656 2.6875 11.226562 2.691406 11.230469 2.695312 C 11.074219 2.800781 10.953125 2.9375 10.859375 3.105469 L 10.328125 4.074219 C 10.199219 4.3125 10.226562 4.53125 10.40625 4.730469 L 10.789062 5.164062 Z M 10.96875 5.019531 L 10.574219 4.578125 C 10.46875 4.457031 10.453125 4.328125 10.53125 4.183594 L 11.0625 3.214844 C 11.140625 3.066406 11.253906 2.945312 11.394531 2.855469 L 11.414062 2.84375 C 11.492188 2.890625 11.582031 2.917969 11.671875 2.929688 L 11.777344 2.941406 C 11.886719 2.953125 11.980469 3 12.058594 3.082031 C 12.132812 3.164062 12.175781 3.257812 12.183594 3.371094 L 12.207031 3.667969 C 12.207031 3.695312 12.21875 3.722656 12.238281 3.742188 L 12.425781 3.925781 C 12.5 3.996094 12.535156 4.082031 12.539062 4.179688 C 12.542969 4.28125 12.515625 4.367188 12.449219 4.445312 L 12.296875 4.625 L 11.816406 4.171875 C 11.753906 4.113281 11.683594 4.082031 11.597656 4.082031 C 11.511719 4.082031 11.4375 4.109375 11.375 4.167969 L 11.1875 4.339844 C 11.117188 4.40625 11.082031 4.488281 11.085938 4.589844 C 11.089844 4.691406 11.128906 4.773438 11.210938 4.832031 L 11.742188 5.242188 C 11.613281 5.320312 11.484375 5.320312 11.355469 5.246094 Z M 11.75 3.761719 C 11.78125 3.761719 11.808594 3.75 11.832031 3.730469 L 11.972656 3.59375 C 12.027344 3.539062 12.027344 3.484375 11.976562 3.429688 C 11.921875 3.375 11.867188 3.375 11.8125 3.429688 L 11.671875 3.566406 C 11.632812 3.601562 11.625 3.644531 11.644531 3.691406 C 11.664062 3.738281 11.699219 3.761719 11.75 3.761719 Z M 10.265625 6.003906 C 10.285156 6.003906 10.304688 6.003906 10.324219 6 C 10.429688 5.984375 10.515625 5.933594 10.578125 5.84375 C 10.625 5.785156 10.617188 5.730469 10.554688 5.683594 C 10.496094 5.640625 10.441406 5.648438 10.394531 5.710938 C 10.332031 5.796875 10.253906 5.808594 10.167969 5.742188 C 10.082031 5.679688 10.070312 5.601562 10.132812 5.515625 C 10.179688 5.453125 10.171875 5.398438 10.109375 5.355469 C 10.050781 5.308594 9.996094 5.316406 9.949219 5.378906 C 9.855469 5.507812 9.84375 5.644531 9.914062 5.789062 C 9.988281 5.929688 10.105469 6.003906 10.265625 6.003906 Z M 6.957031 7.710938 C 6.878906 7.710938 6.84375 7.75 6.84375 7.828125 C 6.84375 7.933594 6.789062 7.988281 6.679688 7.988281 C 6.570312 7.988281 6.515625 7.933594 6.515625 7.828125 C 6.515625 7.75 6.476562 7.710938 6.402344 7.710938 C 6.324219 7.710938 6.289062 7.75 6.289062 7.828125 C 6.289062 7.933594 6.324219 8.027344 6.402344 8.101562 C 6.480469 8.179688 6.570312 8.21875 6.679688 8.21875 C 6.789062 8.21875 6.878906 8.179688 6.957031 8.101562 C 7.03125 8.027344 7.070312 7.933594 7.070312 7.828125 C 7.070312 7.75 7.03125 7.710938 6.957031 7.710938 Z M 6.613281 6.914062 C 6.613281 6.835938 6.574219 6.796875 6.5 6.796875 C 6.421875 6.796875 6.386719 6.835938 6.386719 6.914062 C 6.386719 7.019531 6.332031 7.074219 6.222656 7.074219 C 6.113281 7.074219 6.058594 7.019531 6.058594 6.914062 C 6.058594 6.835938 6.019531 6.796875 5.945312 6.796875 C 5.867188 6.796875 5.832031 6.835938 5.832031 6.914062 C 5.832031 7.019531 5.867188 7.113281 5.945312 7.1875 C 6.023438 7.265625 6.113281 7.304688 6.222656 7.304688 C 6.332031 7.304688 6.421875 7.265625 6.5 7.1875 C 6.574219 7.113281 6.613281 7.019531 6.613281 6.914062 Z M 7.640625 8.625 C 7.566406 8.625 7.527344 8.664062 7.527344 8.742188 C 7.527344 8.847656 7.472656 8.902344 7.363281 8.902344 C 7.257812 8.902344 7.203125 8.847656 7.203125 8.742188 C 7.203125 8.664062 7.164062 8.625 7.085938 8.625 C 7.011719 8.625 6.972656 8.664062 6.972656 8.742188 C 6.972656 8.847656 7.011719 8.941406 7.089844 9.015625 C 7.164062 9.09375 7.257812 9.132812 7.363281 9.132812 C 7.472656 9.132812 7.566406 9.09375 7.640625 9.015625 C 7.71875 8.941406 7.757812 8.847656 7.757812 8.742188 C 7.757812 8.664062 7.71875 8.625 7.640625 8.625 Z M 2.917969 3.429688 C 2.863281 3.375 2.808594 3.375 2.753906 3.429688 C 2.703125 3.484375 2.703125 3.539062 2.757812 3.59375 L 2.898438 3.730469 C 2.953125 3.78125 3.007812 3.78125 3.0625 3.726562 C 3.113281 3.671875 3.113281 3.621094 3.058594 3.566406 Z M 8.328125 7.710938 C 8.25 7.710938 8.214844 7.75 8.214844 7.828125 C 8.214844 7.933594 8.160156 7.988281 8.050781 7.988281 C 7.941406 7.988281 7.886719 7.933594 7.886719 7.828125 C 7.886719 7.75 7.847656 7.710938 7.773438 7.710938 C 7.695312 7.710938 7.660156 7.75 7.660156 7.828125 C 7.660156 7.933594 7.695312 8.027344 7.773438 8.101562 C 7.851562 8.179688 7.941406 8.21875 8.050781 8.21875 C 8.160156 8.21875 8.25 8.179688 8.328125 8.101562 C 8.402344 8.027344 8.441406 7.933594 8.441406 7.828125 C 8.441406 7.75 8.402344 7.710938 8.328125 7.710938 Z M 8.785156 6.796875 C 8.707031 6.796875 8.671875 6.835938 8.671875 6.914062 C 8.671875 7.019531 8.617188 7.074219 8.507812 7.074219 C 8.398438 7.074219 8.34375 7.019531 8.34375 6.914062 C 8.34375 6.835938 8.304688 6.796875 8.230469 6.796875 C 8.152344 6.796875 8.117188 6.835938 8.117188 6.914062 C 8.117188 7.019531 8.152344 7.113281 8.230469 7.1875 C 8.308594 7.265625 8.398438 7.304688 8.507812 7.304688 C 8.617188 7.304688 8.707031 7.265625 8.785156 7.1875 C 8.859375 7.113281 8.898438 7.019531 8.898438 6.914062 C 8.898438 6.835938 8.859375 6.796875 8.785156 6.796875 Z M 8.785156 6.796875 " fill-opacity="1" fill-rule="nonzero"/></g><g clip-path="url(#746a72a4ed)"><path fill="#545454" d="M 15.945312 25.5 C 15.824219 25.5 15.722656 25.402344 15.722656 25.277344 L 15.722656 0.609375 C 15.722656 0.488281 15.824219 0.386719 15.945312 0.386719 C 16.070312 0.386719 16.167969 0.488281 16.167969 0.609375 L 16.167969 25.277344 C 16.167969 25.402344 16.070312 25.5 15.945312 25.5 Z M 15.945312 25.5 " fill-opacity="1" fill-rule="nonzero"/></g><g clip-path="url(#2a773f7876)"><g transform="matrix(1, 0, 0, 1, 0.000000000000003553, 18)"><g clip-path="url(#ccebb91e2e)"><g clip-path="url(#5ebf58e2be)"><g fill="#545454" fill-opacity="1"><g transform="translate(0.876315, 2.430516)"><g><path d="M 0.726562 0.0195312 C 0.636719 0.0195312 0.554688 0.00390625 0.480469 -0.0273438 C 0.40625 -0.0585938 0.339844 -0.105469 0.285156 -0.164062 C 0.230469 -0.222656 0.1875 -0.292969 0.15625 -0.371094 C 0.128906 -0.449219 0.113281 -0.539062 0.113281 -0.632812 C 0.113281 -0.726562 0.128906 -0.816406 0.15625 -0.894531 C 0.1875 -0.972656 0.230469 -1.042969 0.285156 -1.101562 C 0.339844 -1.160156 0.40625 -1.207031 0.480469 -1.238281 C 0.554688 -1.269531 0.636719 -1.289062 0.726562 -1.289062 C 0.8125 -1.289062 0.890625 -1.273438 0.960938 -1.242188 C 1.027344 -1.210938 1.085938 -1.171875 1.132812 -1.125 C 1.179688 -1.074219 1.214844 -1.023438 1.234375 -0.972656 L 1.105469 -0.914062 C 1.074219 -0.988281 1.027344 -1.046875 0.960938 -1.09375 C 0.898438 -1.136719 0.820312 -1.160156 0.726562 -1.160156 C 0.636719 -1.160156 0.550781 -1.136719 0.480469 -1.09375 C 0.40625 -1.050781 0.351562 -0.988281 0.308594 -0.910156 C 0.269531 -0.832031 0.25 -0.738281 0.25 -0.632812 C 0.25 -0.527344 0.269531 -0.4375 0.308594 -0.355469 C 0.351562 -0.277344 0.40625 -0.214844 0.480469 -0.171875 C 0.550781 -0.128906 0.636719 -0.105469 0.726562 -0.105469 C 0.820312 -0.105469 0.898438 -0.128906 0.960938 -0.171875 C 1.027344 -0.21875 1.074219 -0.277344 1.105469 -0.351562 L 1.234375 -0.292969 C 1.214844 -0.242188 1.179688 -0.191406 1.132812 -0.144531 C 1.085938 -0.09375 1.027344 -0.0546875 0.960938 -0.0273438 C 0.890625 0.00390625 0.8125 0.0195312 0.726562 0.0195312 Z M 0.726562 0.0195312 "/></g></g></g></g><g fill="#545454" fill-opacity="1"><g transform="translate(2.204587, 2.430516)"><g><path d="M 0.132812 0 L 0.132812 -1.289062 L 0.257812 -1.289062 L 0.257812 -0.734375 L 0.230469 -0.742188 C 0.253906 -0.800781 0.289062 -0.847656 0.339844 -0.882812 C 0.394531 -0.914062 0.453125 -0.933594 0.519531 -0.933594 C 0.585938 -0.933594 0.644531 -0.917969 0.695312 -0.886719 C 0.746094 -0.859375 0.789062 -0.816406 0.816406 -0.765625 C 0.847656 -0.714844 0.863281 -0.65625 0.863281 -0.59375 L 0.863281 0 L 0.734375 0 L 0.734375 -0.542969 C 0.734375 -0.597656 0.726562 -0.644531 0.703125 -0.683594 C 0.683594 -0.722656 0.65625 -0.753906 0.621094 -0.773438 C 0.585938 -0.792969 0.542969 -0.804688 0.5 -0.804688 C 0.453125 -0.804688 0.414062 -0.792969 0.375 -0.773438 C 0.339844 -0.753906 0.3125 -0.722656 0.289062 -0.683594 C 0.269531 -0.644531 0.257812 -0.597656 0.257812 -0.542969 L 0.257812 0 Z M 0.132812 0 "/></g></g></g><g fill="#545454" fill-opacity="1"><g transform="translate(3.179107, 2.430516)"><g><path d="M 0.132812 0 L 0.132812 -0.910156 L 0.257812 -0.910156 L 0.257812 0 Z M 0.132812 -1.082031 L 0.132812 -1.265625 L 0.257812 -1.265625 L 0.257812 -1.082031 Z M 0.132812 -1.082031 "/></g></g></g><g fill="#545454" fill-opacity="1"><g transform="translate(3.568574, 2.430516)"><g><path d="M 0.546875 0.0195312 C 0.460938 0.0195312 0.382812 0 0.316406 -0.0429688 C 0.246094 -0.0820312 0.191406 -0.140625 0.152344 -0.210938 C 0.113281 -0.285156 0.09375 -0.367188 0.09375 -0.460938 C 0.09375 -0.550781 0.113281 -0.632812 0.152344 -0.703125 C 0.191406 -0.773438 0.242188 -0.828125 0.308594 -0.871094 C 0.375 -0.910156 0.449219 -0.933594 0.53125 -0.933594 C 0.597656 -0.933594 0.65625 -0.921875 0.707031 -0.894531 C 0.761719 -0.871094 0.804688 -0.839844 0.839844 -0.796875 C 0.875 -0.753906 0.90625 -0.710938 0.921875 -0.65625 C 0.941406 -0.605469 0.953125 -0.554688 0.953125 -0.5 C 0.953125 -0.488281 0.953125 -0.472656 0.949219 -0.460938 C 0.949219 -0.445312 0.949219 -0.429688 0.945312 -0.417969 L 0.175781 -0.417969 L 0.175781 -0.535156 L 0.871094 -0.535156 L 0.8125 -0.484375 C 0.820312 -0.546875 0.816406 -0.601562 0.789062 -0.652344 C 0.765625 -0.703125 0.730469 -0.742188 0.683594 -0.769531 C 0.640625 -0.796875 0.589844 -0.8125 0.53125 -0.8125 C 0.476562 -0.8125 0.421875 -0.796875 0.375 -0.769531 C 0.328125 -0.738281 0.289062 -0.699219 0.261719 -0.644531 C 0.234375 -0.59375 0.222656 -0.53125 0.230469 -0.457031 C 0.222656 -0.386719 0.234375 -0.320312 0.265625 -0.269531 C 0.292969 -0.214844 0.332031 -0.171875 0.382812 -0.144531 C 0.433594 -0.113281 0.488281 -0.0976562 0.546875 -0.0976562 C 0.613281 -0.0976562 0.667969 -0.113281 0.714844 -0.144531 C 0.761719 -0.179688 0.796875 -0.21875 0.824219 -0.265625 L 0.933594 -0.207031 C 0.914062 -0.167969 0.886719 -0.128906 0.851562 -0.09375 C 0.8125 -0.0585938 0.769531 -0.03125 0.71875 -0.0117188 C 0.664062 0.0117188 0.609375 0.0195312 0.546875 0.0195312 Z M 0.546875 0.0195312 "/></g></g></g><g fill="#545454" fill-opacity="1"><g transform="translate(4.614524, 2.430516)"><g><path d="M 0.222656 0 L 0.222656 -0.785156 L 0.0429688 -0.785156 L 0.0429688 -0.910156 L 0.222656 -0.910156 L 0.222656 -0.992188 C 0.222656 -1.058594 0.238281 -1.109375 0.265625 -1.152344 C 0.296875 -1.199219 0.332031 -1.230469 0.378906 -1.253906 C 0.425781 -1.277344 0.476562 -1.289062 0.527344 -1.289062 C 0.539062 -1.289062 0.554688 -1.285156 0.566406 -1.285156 C 0.582031 -1.285156 0.59375 -1.28125 0.605469 -1.277344 L 0.605469 -1.164062 C 0.597656 -1.164062 0.585938 -1.167969 0.570312 -1.167969 C 0.558594 -1.167969 0.546875 -1.167969 0.542969 -1.167969 C 0.488281 -1.167969 0.441406 -1.15625 0.40625 -1.128906 C 0.371094 -1.101562 0.351562 -1.058594 0.351562 -0.992188 L 0.351562 -0.910156 L 0.574219 -0.910156 L 0.574219 -0.785156 L 0.351562 -0.785156 L 0.351562 0 Z M 0.222656 0 "/></g></g></g><g fill="#545454" fill-opacity="1"><g transform="translate(5.282912, 2.430516)"><g/></g></g><g fill="#545454" fill-opacity="1"><g transform="translate(5.572037, 2.430516)"><g><path d="M 0.148438 0 L 0.148438 -1.265625 L 0.964844 -1.265625 L 0.964844 -1.140625 L 0.285156 -1.140625 L 0.285156 -0.699219 L 0.933594 -0.699219 L 0.933594 -0.570312 L 0.285156 -0.570312 L 0.285156 -0.128906 L 0.964844 -0.128906 L 0.964844 0 Z M 0.148438 0 "/></g></g></g><g fill="#545454" fill-opacity="1"><g transform="translate(6.612886, 2.430516)"><g><path d="M 0.542969 0.0195312 C 0.457031 0.0195312 0.382812 0 0.3125 -0.0429688 C 0.246094 -0.0820312 0.191406 -0.140625 0.152344 -0.210938 C 0.113281 -0.285156 0.09375 -0.363281 0.09375 -0.457031 C 0.09375 -0.546875 0.113281 -0.628906 0.152344 -0.699219 C 0.191406 -0.773438 0.246094 -0.828125 0.3125 -0.871094 C 0.378906 -0.910156 0.457031 -0.933594 0.542969 -0.933594 C 0.621094 -0.933594 0.691406 -0.914062 0.75 -0.882812 C 0.8125 -0.847656 0.859375 -0.800781 0.894531 -0.742188 L 0.875 -0.707031 L 0.875 -1.289062 L 1.003906 -1.289062 L 1.003906 0 L 0.875 0 L 0.875 -0.203125 L 0.894531 -0.183594 C 0.863281 -0.121094 0.816406 -0.0703125 0.753906 -0.03125 C 0.691406 0.00390625 0.621094 0.0195312 0.542969 0.0195312 Z M 0.550781 -0.105469 C 0.609375 -0.105469 0.664062 -0.121094 0.714844 -0.152344 C 0.765625 -0.183594 0.804688 -0.226562 0.832031 -0.277344 C 0.863281 -0.332031 0.875 -0.390625 0.875 -0.457031 C 0.875 -0.523438 0.863281 -0.582031 0.832031 -0.632812 C 0.804688 -0.6875 0.765625 -0.726562 0.714844 -0.757812 C 0.664062 -0.789062 0.609375 -0.804688 0.550781 -0.804688 C 0.488281 -0.804688 0.433594 -0.789062 0.386719 -0.757812 C 0.335938 -0.726562 0.300781 -0.6875 0.269531 -0.632812 C 0.242188 -0.582031 0.230469 -0.523438 0.230469 -0.457031 C 0.230469 -0.390625 0.242188 -0.332031 0.269531 -0.277344 C 0.300781 -0.226562 0.335938 -0.183594 0.386719 -0.152344 C 0.433594 -0.121094 0.488281 -0.105469 0.550781 -0.105469 Z M 0.550781 -0.105469 "/></g></g></g><g fill="#545454" fill-opacity="1"><g transform="translate(7.747275, 2.430516)"><g><path d="M 0.453125 0.0195312 C 0.390625 0.0195312 0.332031 0.00390625 0.28125 -0.0234375 C 0.226562 -0.0546875 0.1875 -0.0976562 0.15625 -0.152344 C 0.128906 -0.203125 0.113281 -0.265625 0.113281 -0.335938 L 0.113281 -0.910156 L 0.238281 -0.910156 L 0.238281 -0.351562 C 0.238281 -0.304688 0.25 -0.261719 0.269531 -0.222656 C 0.289062 -0.1875 0.316406 -0.15625 0.351562 -0.136719 C 0.390625 -0.117188 0.429688 -0.105469 0.476562 -0.105469 C 0.523438 -0.105469 0.5625 -0.117188 0.601562 -0.136719 C 0.636719 -0.160156 0.664062 -0.191406 0.683594 -0.230469 C 0.707031 -0.269531 0.714844 -0.316406 0.714844 -0.367188 L 0.714844 -0.910156 L 0.84375 -0.910156 L 0.84375 0 L 0.714844 0 L 0.714844 -0.175781 L 0.746094 -0.171875 C 0.722656 -0.109375 0.6875 -0.0664062 0.632812 -0.03125 C 0.582031 0.00390625 0.523438 0.0195312 0.453125 0.0195312 Z M 0.453125 0.0195312 "/></g></g></g><g fill="#545454" fill-opacity="1"><g transform="translate(8.721795, 2.430516)"><g><path d="M 0.546875 0.0195312 C 0.457031 0.0195312 0.378906 0 0.3125 -0.0429688 C 0.242188 -0.0859375 0.191406 -0.140625 0.152344 -0.214844 C 0.113281 -0.285156 0.09375 -0.367188 0.09375 -0.457031 C 0.09375 -0.546875 0.113281 -0.628906 0.152344 -0.699219 C 0.191406 -0.773438 0.242188 -0.828125 0.3125 -0.871094 C 0.378906 -0.910156 0.457031 -0.933594 0.546875 -0.933594 C 0.605469 -0.933594 0.65625 -0.921875 0.707031 -0.902344 C 0.757812 -0.882812 0.800781 -0.855469 0.839844 -0.820312 C 0.878906 -0.785156 0.90625 -0.746094 0.925781 -0.699219 L 0.8125 -0.640625 C 0.789062 -0.6875 0.753906 -0.726562 0.707031 -0.757812 C 0.660156 -0.789062 0.609375 -0.804688 0.546875 -0.804688 C 0.488281 -0.804688 0.433594 -0.789062 0.386719 -0.757812 C 0.335938 -0.730469 0.300781 -0.6875 0.269531 -0.636719 C 0.242188 -0.582031 0.230469 -0.523438 0.230469 -0.457031 C 0.230469 -0.390625 0.242188 -0.332031 0.269531 -0.277344 C 0.300781 -0.226562 0.335938 -0.183594 0.386719 -0.152344 C 0.433594 -0.121094 0.488281 -0.105469 0.546875 -0.105469 C 0.609375 -0.105469 0.660156 -0.121094 0.707031 -0.152344 C 0.753906 -0.183594 0.789062 -0.222656 0.8125 -0.277344 L 0.925781 -0.210938 C 0.90625 -0.167969 0.878906 -0.128906 0.839844 -0.09375 C 0.800781 -0.0585938 0.757812 -0.03125 0.707031 -0.0117188 C 0.65625 0.0117188 0.605469 0.0195312 0.546875 0.0195312 Z M 0.546875 0.0195312 "/></g></g></g><g fill="#545454" fill-opacity="1"><g transform="translate(9.742235, 2.430516)"><g><path d="M 0.394531 0.0195312 C 0.335938 0.0195312 0.285156 0.0078125 0.238281 -0.0117188 C 0.195312 -0.0351562 0.160156 -0.0664062 0.132812 -0.105469 C 0.105469 -0.140625 0.09375 -0.1875 0.09375 -0.238281 C 0.09375 -0.285156 0.105469 -0.328125 0.125 -0.367188 C 0.144531 -0.40625 0.175781 -0.4375 0.21875 -0.464844 C 0.261719 -0.492188 0.316406 -0.511719 0.382812 -0.523438 L 0.742188 -0.582031 L 0.742188 -0.46875 L 0.414062 -0.414062 C 0.347656 -0.402344 0.300781 -0.382812 0.273438 -0.351562 C 0.242188 -0.320312 0.230469 -0.285156 0.230469 -0.242188 C 0.230469 -0.199219 0.246094 -0.167969 0.277344 -0.136719 C 0.308594 -0.109375 0.351562 -0.09375 0.402344 -0.09375 C 0.464844 -0.09375 0.519531 -0.109375 0.566406 -0.136719 C 0.613281 -0.160156 0.648438 -0.199219 0.675781 -0.242188 C 0.703125 -0.289062 0.714844 -0.339844 0.714844 -0.394531 L 0.714844 -0.625 C 0.714844 -0.679688 0.695312 -0.726562 0.65625 -0.757812 C 0.613281 -0.792969 0.5625 -0.808594 0.5 -0.808594 C 0.445312 -0.808594 0.394531 -0.796875 0.355469 -0.769531 C 0.3125 -0.738281 0.28125 -0.703125 0.261719 -0.660156 L 0.144531 -0.722656 C 0.160156 -0.761719 0.1875 -0.796875 0.226562 -0.828125 C 0.261719 -0.859375 0.304688 -0.886719 0.351562 -0.902344 C 0.398438 -0.921875 0.449219 -0.933594 0.5 -0.933594 C 0.566406 -0.933594 0.625 -0.917969 0.679688 -0.894531 C 0.730469 -0.867188 0.769531 -0.832031 0.796875 -0.785156 C 0.828125 -0.738281 0.84375 -0.6875 0.84375 -0.625 L 0.84375 0 L 0.714844 0 L 0.714844 -0.183594 L 0.734375 -0.164062 C 0.71875 -0.128906 0.691406 -0.0976562 0.660156 -0.0703125 C 0.625 -0.0429688 0.585938 -0.0195312 0.542969 -0.00390625 C 0.496094 0.0117188 0.449219 0.0195312 0.394531 0.0195312 Z M 0.394531 0.0195312 "/></g></g></g><g fill="#545454" fill-opacity="1"><g transform="translate(10.715053, 2.430516)"><g><path d="M 0.480469 0.0117188 C 0.398438 0.0117188 0.335938 -0.0117188 0.289062 -0.0625 C 0.246094 -0.109375 0.222656 -0.175781 0.222656 -0.265625 L 0.222656 -0.785156 L 0.0546875 -0.785156 L 0.0546875 -0.910156 L 0.0976562 -0.910156 C 0.136719 -0.910156 0.167969 -0.925781 0.191406 -0.949219 C 0.214844 -0.976562 0.222656 -1.007812 0.222656 -1.046875 L 0.222656 -1.121094 L 0.351562 -1.121094 L 0.351562 -0.910156 L 0.554688 -0.910156 L 0.554688 -0.785156 L 0.351562 -0.785156 L 0.351562 -0.265625 C 0.351562 -0.234375 0.355469 -0.207031 0.367188 -0.183594 C 0.375 -0.160156 0.390625 -0.144531 0.414062 -0.128906 C 0.433594 -0.117188 0.464844 -0.109375 0.5 -0.109375 C 0.511719 -0.109375 0.523438 -0.109375 0.535156 -0.109375 C 0.546875 -0.113281 0.558594 -0.113281 0.566406 -0.113281 L 0.566406 0 C 0.554688 0.00390625 0.539062 0.0078125 0.519531 0.0078125 C 0.503906 0.0078125 0.488281 0.0117188 0.480469 0.0117188 Z M 0.480469 0.0117188 "/></g></g></g><g fill="#545454" fill-opacity="1"><g transform="translate(11.374938, 2.430516)"><g><path d="M 0.132812 0 L 0.132812 -0.910156 L 0.257812 -0.910156 L 0.257812 0 Z M 0.132812 -1.082031 L 0.132812 -1.265625 L 0.257812 -1.265625 L 0.257812 -1.082031 Z M 0.132812 -1.082031 "/></g></g></g><g fill="#545454" fill-opacity="1"><g transform="translate(11.764405, 2.430516)"><g><path d="M 0.558594 0.0195312 C 0.472656 0.0195312 0.394531 0 0.324219 -0.0429688 C 0.253906 -0.0820312 0.195312 -0.140625 0.15625 -0.210938 C 0.113281 -0.285156 0.09375 -0.367188 0.09375 -0.457031 C 0.09375 -0.546875 0.113281 -0.628906 0.15625 -0.699219 C 0.195312 -0.773438 0.25 -0.828125 0.320312 -0.871094 C 0.390625 -0.910156 0.46875 -0.933594 0.558594 -0.933594 C 0.644531 -0.933594 0.726562 -0.910156 0.796875 -0.871094 C 0.863281 -0.828125 0.921875 -0.773438 0.960938 -0.703125 C 1 -0.632812 1.019531 -0.550781 1.019531 -0.457031 C 1.019531 -0.363281 1 -0.28125 0.957031 -0.210938 C 0.914062 -0.136719 0.859375 -0.0820312 0.789062 -0.0390625 C 0.71875 0 0.644531 0.0195312 0.558594 0.0195312 Z M 0.558594 -0.105469 C 0.621094 -0.105469 0.675781 -0.121094 0.722656 -0.152344 C 0.773438 -0.183594 0.8125 -0.226562 0.839844 -0.277344 C 0.871094 -0.332031 0.882812 -0.390625 0.882812 -0.457031 C 0.882812 -0.523438 0.871094 -0.582031 0.839844 -0.632812 C 0.8125 -0.6875 0.773438 -0.726562 0.722656 -0.757812 C 0.675781 -0.789062 0.621094 -0.804688 0.558594 -0.804688 C 0.496094 -0.804688 0.441406 -0.789062 0.390625 -0.757812 C 0.34375 -0.726562 0.304688 -0.6875 0.273438 -0.632812 C 0.246094 -0.582031 0.230469 -0.523438 0.230469 -0.457031 C 0.230469 -0.390625 0.246094 -0.332031 0.273438 -0.277344 C 0.304688 -0.226562 0.34375 -0.183594 0.390625 -0.152344 C 0.441406 -0.121094 0.496094 -0.105469 0.558594 -0.105469 Z M 0.558594 -0.105469 "/></g></g></g><g clip-path="url(#45889bcf28)"><g fill="#545454" fill-opacity="1"><g transform="translate(12.878385, 2.430516)"><g><path d="M 0.132812 0 L 0.132812 -0.910156 L 0.257812 -0.910156 L 0.257812 -0.734375 L 0.230469 -0.742188 C 0.253906 -0.800781 0.289062 -0.847656 0.339844 -0.882812 C 0.394531 -0.914062 0.453125 -0.933594 0.519531 -0.933594 C 0.585938 -0.933594 0.644531 -0.917969 0.695312 -0.886719 C 0.746094 -0.859375 0.789062 -0.816406 0.816406 -0.765625 C 0.847656 -0.714844 0.863281 -0.65625 0.863281 -0.59375 L 0.863281 0 L 0.734375 0 L 0.734375 -0.542969 C 0.734375 -0.597656 0.726562 -0.644531 0.703125 -0.683594 C 0.683594 -0.722656 0.65625 -0.753906 0.621094 -0.773438 C 0.585938 -0.792969 0.542969 -0.804688 0.5 -0.804688 C 0.453125 -0.804688 0.410156 -0.792969 0.375 -0.773438 C 0.339844 -0.753906 0.308594 -0.722656 0.289062 -0.683594 C 0.269531 -0.644531 0.257812 -0.597656 0.257812 -0.542969 L 0.257812 0 Z M 0.132812 0 "/></g></g></g></g><g fill="#545454" fill-opacity="1"><g transform="translate(2.3358, 4.72741)"><g><path d="M 0.746094 0.0195312 C 0.660156 0.0195312 0.574219 0.00390625 0.5 -0.0273438 C 0.421875 -0.0585938 0.355469 -0.105469 0.296875 -0.164062 C 0.238281 -0.222656 0.195312 -0.292969 0.160156 -0.371094 C 0.128906 -0.453125 0.113281 -0.539062 0.113281 -0.632812 C 0.113281 -0.730469 0.128906 -0.816406 0.160156 -0.898438 C 0.195312 -0.976562 0.238281 -1.046875 0.296875 -1.105469 C 0.355469 -1.164062 0.421875 -1.207031 0.5 -1.238281 C 0.574219 -1.273438 0.660156 -1.289062 0.746094 -1.289062 C 0.835938 -1.289062 0.917969 -1.269531 0.996094 -1.238281 C 1.070312 -1.207031 1.136719 -1.160156 1.195312 -1.101562 C 1.253906 -1.042969 1.300781 -0.976562 1.332031 -0.894531 C 1.363281 -0.816406 1.382812 -0.730469 1.382812 -0.632812 C 1.382812 -0.539062 1.363281 -0.453125 1.332031 -0.371094 C 1.300781 -0.292969 1.253906 -0.222656 1.195312 -0.164062 C 1.136719 -0.105469 1.070312 -0.0585938 0.996094 -0.0273438 C 0.917969 0.00390625 0.835938 0.0195312 0.746094 0.0195312 Z M 0.746094 -0.105469 C 0.820312 -0.105469 0.886719 -0.121094 0.949219 -0.148438 C 1.007812 -0.175781 1.0625 -0.214844 1.105469 -0.261719 C 1.148438 -0.3125 1.183594 -0.367188 1.207031 -0.429688 C 1.234375 -0.492188 1.246094 -0.5625 1.246094 -0.632812 C 1.246094 -0.707031 1.234375 -0.773438 1.207031 -0.835938 C 1.183594 -0.898438 1.148438 -0.957031 1.105469 -1.003906 C 1.0625 -1.054688 1.007812 -1.09375 0.949219 -1.121094 C 0.886719 -1.144531 0.820312 -1.160156 0.746094 -1.160156 C 0.671875 -1.160156 0.605469 -1.144531 0.546875 -1.121094 C 0.484375 -1.09375 0.433594 -1.054688 0.386719 -1.003906 C 0.34375 -0.957031 0.308594 -0.898438 0.285156 -0.835938 C 0.261719 -0.773438 0.25 -0.707031 0.25 -0.632812 C 0.25 -0.5625 0.261719 -0.492188 0.285156 -0.429688 C 0.308594 -0.367188 0.34375 -0.3125 0.386719 -0.261719 C 0.433594 -0.214844 0.484375 -0.175781 0.546875 -0.148438 C 0.605469 -0.121094 0.675781 -0.105469 0.746094 -0.105469 Z M 0.746094 -0.105469 "/></g></g></g><g fill="#545454" fill-opacity="1"><g transform="translate(3.829044, 4.72741)"><g><path d="M 0.222656 0 L 0.222656 -0.785156 L 0.0429688 -0.785156 L 0.0429688 -0.910156 L 0.222656 -0.910156 L 0.222656 -0.992188 C 0.222656 -1.058594 0.238281 -1.109375 0.265625 -1.152344 C 0.296875 -1.199219 0.332031 -1.230469 0.378906 -1.253906 C 0.425781 -1.277344 0.476562 -1.289062 0.527344 -1.289062 C 0.539062 -1.289062 0.554688 -1.285156 0.566406 -1.285156 C 0.582031 -1.285156 0.59375 -1.28125 0.605469 -1.277344 L 0.605469 -1.164062 C 0.597656 -1.164062 0.585938 -1.167969 0.570312 -1.167969 C 0.558594 -1.167969 0.546875 -1.167969 0.542969 -1.167969 C 0.488281 -1.167969 0.441406 -1.15625 0.40625 -1.128906 C 0.371094 -1.101562 0.351562 -1.058594 0.351562 -0.992188 L 0.351562 -0.910156 L 0.574219 -0.910156 L 0.574219 -0.785156 L 0.351562 -0.785156 L 0.351562 0 Z M 0.222656 0 "/></g></g></g><g fill="#545454" fill-opacity="1"><g transform="translate(4.497432, 4.72741)"><g><path d="M 0.222656 0 L 0.222656 -0.785156 L 0.0429688 -0.785156 L 0.0429688 -0.910156 L 0.222656 -0.910156 L 0.222656 -0.992188 C 0.222656 -1.058594 0.238281 -1.109375 0.265625 -1.152344 C 0.296875 -1.199219 0.332031 -1.230469 0.378906 -1.253906 C 0.425781 -1.277344 0.476562 -1.289062 0.527344 -1.289062 C 0.539062 -1.289062 0.554688 -1.285156 0.566406 -1.285156 C 0.582031 -1.285156 0.59375 -1.28125 0.605469 -1.277344 L 0.605469 -1.164062 C 0.597656 -1.164062 0.585938 -1.167969 0.570312 -1.167969 C 0.558594 -1.167969 0.546875 -1.167969 0.542969 -1.167969 C 0.488281 -1.167969 0.441406 -1.15625 0.40625 -1.128906 C 0.371094 -1.101562 0.351562 -1.058594 0.351562 -0.992188 L 0.351562 -0.910156 L 0.574219 -0.910156 L 0.574219 -0.785156 L 0.351562 -0.785156 L 0.351562 0 Z M 0.222656 0 "/></g></g></g><g fill="#545454" fill-opacity="1"><g transform="translate(5.165819, 4.72741)"><g><path d="M 0.132812 0 L 0.132812 -0.910156 L 0.257812 -0.910156 L 0.257812 0 Z M 0.132812 -1.082031 L 0.132812 -1.265625 L 0.257812 -1.265625 L 0.257812 -1.082031 Z M 0.132812 -1.082031 "/></g></g></g><g fill="#545454" fill-opacity="1"><g transform="translate(5.555286, 4.72741)"><g><path d="M 0.546875 0.0195312 C 0.457031 0.0195312 0.378906 0 0.3125 -0.0429688 C 0.242188 -0.0859375 0.191406 -0.140625 0.152344 -0.214844 C 0.113281 -0.285156 0.09375 -0.367188 0.09375 -0.457031 C 0.09375 -0.546875 0.113281 -0.628906 0.152344 -0.699219 C 0.191406 -0.773438 0.242188 -0.828125 0.3125 -0.871094 C 0.378906 -0.910156 0.457031 -0.933594 0.546875 -0.933594 C 0.605469 -0.933594 0.65625 -0.921875 0.707031 -0.902344 C 0.757812 -0.882812 0.800781 -0.855469 0.839844 -0.820312 C 0.878906 -0.785156 0.90625 -0.746094 0.925781 -0.699219 L 0.8125 -0.640625 C 0.789062 -0.6875 0.753906 -0.726562 0.707031 -0.757812 C 0.660156 -0.789062 0.609375 -0.804688 0.546875 -0.804688 C 0.488281 -0.804688 0.433594 -0.789062 0.386719 -0.757812 C 0.335938 -0.730469 0.300781 -0.6875 0.269531 -0.636719 C 0.242188 -0.582031 0.230469 -0.523438 0.230469 -0.457031 C 0.230469 -0.390625 0.242188 -0.332031 0.269531 -0.277344 C 0.300781 -0.226562 0.335938 -0.183594 0.386719 -0.152344 C 0.433594 -0.121094 0.488281 -0.105469 0.546875 -0.105469 C 0.609375 -0.105469 0.660156 -0.121094 0.707031 -0.152344 C 0.753906 -0.183594 0.789062 -0.222656 0.8125 -0.277344 L 0.925781 -0.210938 C 0.90625 -0.167969 0.878906 -0.128906 0.839844 -0.09375 C 0.800781 -0.0585938 0.757812 -0.03125 0.707031 -0.0117188 C 0.65625 0.0117188 0.605469 0.0195312 0.546875 0.0195312 Z M 0.546875 0.0195312 "/></g></g></g><g fill="#545454" fill-opacity="1"><g transform="translate(6.575725, 4.72741)"><g><path d="M 0.546875 0.0195312 C 0.460938 0.0195312 0.382812 0 0.316406 -0.0429688 C 0.246094 -0.0820312 0.191406 -0.140625 0.152344 -0.210938 C 0.113281 -0.285156 0.09375 -0.367188 0.09375 -0.460938 C 0.09375 -0.550781 0.113281 -0.632812 0.152344 -0.703125 C 0.191406 -0.773438 0.242188 -0.828125 0.308594 -0.871094 C 0.375 -0.910156 0.449219 -0.933594 0.53125 -0.933594 C 0.597656 -0.933594 0.65625 -0.921875 0.707031 -0.894531 C 0.761719 -0.871094 0.804688 -0.839844 0.839844 -0.796875 C 0.875 -0.753906 0.90625 -0.710938 0.921875 -0.65625 C 0.941406 -0.605469 0.953125 -0.554688 0.953125 -0.5 C 0.953125 -0.488281 0.953125 -0.472656 0.949219 -0.460938 C 0.949219 -0.445312 0.949219 -0.429688 0.945312 -0.417969 L 0.175781 -0.417969 L 0.175781 -0.535156 L 0.871094 -0.535156 L 0.8125 -0.484375 C 0.820312 -0.546875 0.816406 -0.601562 0.789062 -0.652344 C 0.765625 -0.703125 0.730469 -0.742188 0.683594 -0.769531 C 0.640625 -0.796875 0.589844 -0.8125 0.53125 -0.8125 C 0.476562 -0.8125 0.421875 -0.796875 0.375 -0.769531 C 0.328125 -0.738281 0.289062 -0.699219 0.261719 -0.644531 C 0.234375 -0.59375 0.222656 -0.53125 0.230469 -0.457031 C 0.222656 -0.386719 0.234375 -0.320312 0.265625 -0.269531 C 0.292969 -0.214844 0.332031 -0.171875 0.382812 -0.144531 C 0.433594 -0.113281 0.488281 -0.0976562 0.546875 -0.0976562 C 0.613281 -0.0976562 0.667969 -0.113281 0.714844 -0.144531 C 0.761719 -0.179688 0.796875 -0.21875 0.824219 -0.265625 L 0.933594 -0.207031 C 0.914062 -0.167969 0.886719 -0.128906 0.851562 -0.09375 C 0.8125 -0.0585938 0.769531 -0.03125 0.71875 -0.0117188 C 0.664062 0.0117188 0.609375 0.0195312 0.546875 0.0195312 Z M 0.546875 0.0195312 "/></g></g></g><g fill="#545454" fill-opacity="1"><g transform="translate(7.621675, 4.72741)"><g/></g></g><g fill="#545454" fill-opacity="1"><g transform="translate(7.9108, 4.72741)"><g><path d="M 0.148438 0 L 0.148438 -1.265625 L 0.566406 -1.265625 C 0.691406 -1.265625 0.800781 -1.242188 0.894531 -1.191406 C 0.988281 -1.136719 1.058594 -1.066406 1.109375 -0.96875 C 1.160156 -0.875 1.1875 -0.765625 1.1875 -0.632812 C 1.1875 -0.507812 1.160156 -0.394531 1.109375 -0.300781 C 1.058594 -0.203125 0.988281 -0.128906 0.894531 -0.078125 C 0.800781 -0.0273438 0.691406 0 0.566406 0 Z M 0.285156 -0.128906 L 0.566406 -0.128906 C 0.664062 -0.128906 0.75 -0.148438 0.820312 -0.191406 C 0.890625 -0.230469 0.945312 -0.289062 0.984375 -0.367188 C 1.023438 -0.441406 1.042969 -0.53125 1.042969 -0.632812 C 1.042969 -0.738281 1.023438 -0.828125 0.984375 -0.902344 C 0.945312 -0.976562 0.890625 -1.035156 0.816406 -1.078125 C 0.746094 -1.117188 0.664062 -1.140625 0.566406 -1.140625 L 0.285156 -1.140625 Z M 0.285156 -0.128906 "/></g></g></g><g fill="#545454" fill-opacity="1"><g transform="translate(9.172744, 4.72741)"><g><path d="M 0.558594 0.0195312 C 0.472656 0.0195312 0.394531 0 0.324219 -0.0429688 C 0.253906 -0.0820312 0.195312 -0.140625 0.15625 -0.210938 C 0.113281 -0.285156 0.09375 -0.367188 0.09375 -0.457031 C 0.09375 -0.546875 0.113281 -0.628906 0.15625 -0.699219 C 0.195312 -0.773438 0.25 -0.828125 0.320312 -0.871094 C 0.390625 -0.910156 0.46875 -0.933594 0.558594 -0.933594 C 0.644531 -0.933594 0.726562 -0.910156 0.796875 -0.871094 C 0.863281 -0.828125 0.921875 -0.773438 0.960938 -0.703125 C 1 -0.632812 1.019531 -0.550781 1.019531 -0.457031 C 1.019531 -0.363281 1 -0.28125 0.957031 -0.210938 C 0.914062 -0.136719 0.859375 -0.0820312 0.789062 -0.0390625 C 0.71875 0 0.644531 0.0195312 0.558594 0.0195312 Z M 0.558594 -0.105469 C 0.621094 -0.105469 0.675781 -0.121094 0.722656 -0.152344 C 0.773438 -0.183594 0.8125 -0.226562 0.839844 -0.277344 C 0.871094 -0.332031 0.882812 -0.390625 0.882812 -0.457031 C 0.882812 -0.523438 0.871094 -0.582031 0.839844 -0.632812 C 0.8125 -0.6875 0.773438 -0.726562 0.722656 -0.757812 C 0.675781 -0.789062 0.621094 -0.804688 0.558594 -0.804688 C 0.496094 -0.804688 0.441406 -0.789062 0.390625 -0.757812 C 0.34375 -0.726562 0.304688 -0.6875 0.273438 -0.632812 C 0.246094 -0.582031 0.230469 -0.523438 0.230469 -0.457031 C 0.230469 -0.390625 0.246094 -0.332031 0.273438 -0.277344 C 0.304688 -0.226562 0.34375 -0.183594 0.390625 -0.152344 C 0.441406 -0.121094 0.496094 -0.105469 0.558594 -0.105469 Z M 0.558594 -0.105469 "/></g></g></g><g fill="#545454" fill-opacity="1"><g transform="translate(10.286724, 4.72741)"><g><path d="M 0.542969 0.0195312 C 0.457031 0.0195312 0.382812 0 0.3125 -0.0429688 C 0.246094 -0.0820312 0.191406 -0.140625 0.152344 -0.210938 C 0.113281 -0.285156 0.09375 -0.363281 0.09375 -0.457031 C 0.09375 -0.546875 0.113281 -0.628906 0.152344 -0.699219 C 0.191406 -0.773438 0.246094 -0.828125 0.3125 -0.871094 C 0.378906 -0.910156 0.457031 -0.933594 0.542969 -0.933594 C 0.621094 -0.933594 0.691406 -0.914062 0.75 -0.882812 C 0.8125 -0.847656 0.859375 -0.800781 0.894531 -0.742188 L 0.875 -0.707031 L 0.875 -1.289062 L 1.003906 -1.289062 L 1.003906 0 L 0.875 0 L 0.875 -0.203125 L 0.894531 -0.183594 C 0.863281 -0.121094 0.816406 -0.0703125 0.753906 -0.03125 C 0.691406 0.00390625 0.621094 0.0195312 0.542969 0.0195312 Z M 0.550781 -0.105469 C 0.609375 -0.105469 0.664062 -0.121094 0.714844 -0.152344 C 0.765625 -0.183594 0.804688 -0.226562 0.832031 -0.277344 C 0.863281 -0.332031 0.875 -0.390625 0.875 -0.457031 C 0.875 -0.523438 0.863281 -0.582031 0.832031 -0.632812 C 0.804688 -0.6875 0.765625 -0.726562 0.714844 -0.757812 C 0.664062 -0.789062 0.609375 -0.804688 0.550781 -0.804688 C 0.488281 -0.804688 0.433594 -0.789062 0.386719 -0.757812 C 0.335938 -0.726562 0.300781 -0.6875 0.269531 -0.632812 C 0.242188 -0.582031 0.230469 -0.523438 0.230469 -0.457031 C 0.230469 -0.390625 0.242188 -0.332031 0.269531 -0.277344 C 0.300781 -0.226562 0.335938 -0.183594 0.386719 -0.152344 C 0.433594 -0.121094 0.488281 -0.105469 0.550781 -0.105469 Z M 0.550781 -0.105469 "/></g></g></g><g fill="#545454" fill-opacity="1"><g transform="translate(11.421113, 4.72741)"><g><path d="M 0.394531 0.0195312 C 0.335938 0.0195312 0.285156 0.0078125 0.238281 -0.0117188 C 0.195312 -0.0351562 0.160156 -0.0664062 0.132812 -0.105469 C 0.105469 -0.140625 0.09375 -0.1875 0.09375 -0.238281 C 0.09375 -0.285156 0.105469 -0.328125 0.125 -0.367188 C 0.144531 -0.40625 0.175781 -0.4375 0.21875 -0.464844 C 0.261719 -0.492188 0.316406 -0.511719 0.382812 -0.523438 L 0.742188 -0.582031 L 0.742188 -0.46875 L 0.414062 -0.414062 C 0.347656 -0.402344 0.300781 -0.382812 0.273438 -0.351562 C 0.242188 -0.320312 0.230469 -0.285156 0.230469 -0.242188 C 0.230469 -0.199219 0.246094 -0.167969 0.277344 -0.136719 C 0.308594 -0.109375 0.351562 -0.09375 0.402344 -0.09375 C 0.464844 -0.09375 0.519531 -0.109375 0.566406 -0.136719 C 0.613281 -0.160156 0.648438 -0.199219 0.675781 -0.242188 C 0.703125 -0.289062 0.714844 -0.339844 0.714844 -0.394531 L 0.714844 -0.625 C 0.714844 -0.679688 0.695312 -0.726562 0.65625 -0.757812 C 0.613281 -0.792969 0.5625 -0.808594 0.5 -0.808594 C 0.445312 -0.808594 0.394531 -0.796875 0.355469 -0.769531 C 0.3125 -0.738281 0.28125 -0.703125 0.261719 -0.660156 L 0.144531 -0.722656 C 0.160156 -0.761719 0.1875 -0.796875 0.226562 -0.828125 C 0.261719 -0.859375 0.304688 -0.886719 0.351562 -0.902344 C 0.398438 -0.921875 0.449219 -0.933594 0.5 -0.933594 C 0.566406 -0.933594 0.625 -0.917969 0.679688 -0.894531 C 0.730469 -0.867188 0.769531 -0.832031 0.796875 -0.785156 C 0.828125 -0.738281 0.84375 -0.6875 0.84375 -0.625 L 0.84375 0 L 0.714844 0 L 0.714844 -0.183594 L 0.734375 -0.164062 C 0.71875 -0.128906 0.691406 -0.0976562 0.660156 -0.0703125 C 0.625 -0.0429688 0.585938 -0.0195312 0.542969 -0.00390625 C 0.496094 0.0117188 0.449219 0.0195312 0.394531 0.0195312 Z M 0.394531 0.0195312 "/></g></g></g></g></g></g><g transform="matrix(1, 0, 0, 1, 18, 1)"><g clip-path="url(#6705d25e5a)"><g clip-path="url(#abc822989a)"><g fill="#545454" fill-opacity="1"><g transform="translate(0.231521, 5.03058)"><g><path d="M 0.3125 0 L 0.3125 -3.265625 L 1.53125 -3.265625 C 1.75 -3.265625 1.941406 -3.222656 2.109375 -3.140625 C 2.285156 -3.066406 2.421875 -2.953125 2.515625 -2.796875 C 2.617188 -2.640625 2.671875 -2.453125 2.671875 -2.234375 C 2.671875 -2.015625 2.613281 -1.820312 2.5 -1.65625 C 2.394531 -1.5 2.253906 -1.382812 2.078125 -1.3125 L 2.828125 0 L 2.15625 0 L 1.34375 -1.4375 L 1.734375 -1.203125 L 0.90625 -1.203125 L 0.90625 0 Z M 0.90625 -1.734375 L 1.546875 -1.734375 C 1.648438 -1.734375 1.738281 -1.753906 1.8125 -1.796875 C 1.894531 -1.835938 1.957031 -1.894531 2 -1.96875 C 2.050781 -2.050781 2.078125 -2.140625 2.078125 -2.234375 C 2.078125 -2.335938 2.050781 -2.425781 2 -2.5 C 1.957031 -2.570312 1.894531 -2.628906 1.8125 -2.671875 C 1.738281 -2.722656 1.648438 -2.75 1.546875 -2.75 L 0.90625 -2.75 Z M 0.90625 -1.734375 "/></g></g></g></g><g fill="#545454" fill-opacity="1"><g transform="translate(3.130948, 5.03058)"><g><path d="M 0.3125 0 L 0.3125 -3.265625 L 2.484375 -3.265625 L 2.484375 -2.75 L 0.90625 -2.75 L 0.90625 -1.90625 L 2.40625 -1.90625 L 2.40625 -1.375 L 0.90625 -1.375 L 0.90625 -0.53125 L 2.484375 -0.53125 L 2.484375 0 Z M 0.3125 0 "/></g></g></g><g fill="#545454" fill-opacity="1"><g transform="translate(5.740871, 5.03058)"><g><path d="M 1.859375 0.046875 C 1.617188 0.046875 1.398438 0.00390625 1.203125 -0.078125 C 1.003906 -0.160156 0.832031 -0.273438 0.6875 -0.421875 C 0.539062 -0.578125 0.425781 -0.753906 0.34375 -0.953125 C 0.257812 -1.160156 0.21875 -1.390625 0.21875 -1.640625 C 0.21875 -1.878906 0.257812 -2.101562 0.34375 -2.3125 C 0.425781 -2.519531 0.539062 -2.695312 0.6875 -2.84375 C 0.832031 -3 1.003906 -3.117188 1.203125 -3.203125 C 1.398438 -3.285156 1.617188 -3.328125 1.859375 -3.328125 C 2.085938 -3.328125 2.296875 -3.285156 2.484375 -3.203125 C 2.671875 -3.128906 2.828125 -3.023438 2.953125 -2.890625 C 3.078125 -2.765625 3.171875 -2.625 3.234375 -2.46875 L 2.703125 -2.21875 C 2.640625 -2.375 2.535156 -2.503906 2.390625 -2.609375 C 2.242188 -2.722656 2.066406 -2.78125 1.859375 -2.78125 C 1.648438 -2.78125 1.46875 -2.726562 1.3125 -2.625 C 1.15625 -2.53125 1.03125 -2.398438 0.9375 -2.234375 C 0.851562 -2.066406 0.8125 -1.867188 0.8125 -1.640625 C 0.8125 -1.410156 0.851562 -1.207031 0.9375 -1.03125 C 1.03125 -0.863281 1.15625 -0.726562 1.3125 -0.625 C 1.46875 -0.53125 1.648438 -0.484375 1.859375 -0.484375 C 2.066406 -0.484375 2.242188 -0.535156 2.390625 -0.640625 C 2.535156 -0.753906 2.640625 -0.894531 2.703125 -1.0625 L 3.234375 -0.8125 C 3.171875 -0.65625 3.078125 -0.507812 2.953125 -0.375 C 2.828125 -0.25 2.671875 -0.144531 2.484375 -0.0625 C 2.296875 0.0078125 2.085938 0.046875 1.859375 0.046875 Z M 1.859375 0.046875 "/></g></g></g><g fill="#545454" fill-opacity="1"><g transform="translate(9.135964, 5.03058)"><g><path d="M 1.921875 0.046875 C 1.679688 0.046875 1.457031 0.00390625 1.25 -0.078125 C 1.039062 -0.160156 0.859375 -0.273438 0.703125 -0.421875 C 0.554688 -0.578125 0.4375 -0.757812 0.34375 -0.96875 C 0.257812 -1.175781 0.21875 -1.398438 0.21875 -1.640625 C 0.21875 -1.878906 0.257812 -2.097656 0.34375 -2.296875 C 0.425781 -2.503906 0.546875 -2.6875 0.703125 -2.84375 C 0.859375 -3 1.039062 -3.117188 1.25 -3.203125 C 1.457031 -3.285156 1.679688 -3.328125 1.921875 -3.328125 C 2.171875 -3.328125 2.398438 -3.28125 2.609375 -3.1875 C 2.816406 -3.101562 2.992188 -2.984375 3.140625 -2.828125 C 3.296875 -2.679688 3.414062 -2.503906 3.5 -2.296875 C 3.59375 -2.097656 3.640625 -1.878906 3.640625 -1.640625 C 3.640625 -1.398438 3.59375 -1.175781 3.5 -0.96875 C 3.414062 -0.757812 3.296875 -0.578125 3.140625 -0.421875 C 2.984375 -0.273438 2.800781 -0.160156 2.59375 -0.078125 C 2.394531 0.00390625 2.171875 0.046875 1.921875 0.046875 Z M 1.921875 -0.484375 C 2.085938 -0.484375 2.238281 -0.507812 2.375 -0.5625 C 2.507812 -0.625 2.625 -0.707031 2.71875 -0.8125 C 2.820312 -0.914062 2.898438 -1.035156 2.953125 -1.171875 C 3.003906 -1.316406 3.03125 -1.472656 3.03125 -1.640625 C 3.03125 -1.804688 3.003906 -1.957031 2.953125 -2.09375 C 2.898438 -2.226562 2.820312 -2.347656 2.71875 -2.453125 C 2.625 -2.554688 2.507812 -2.632812 2.375 -2.6875 C 2.238281 -2.75 2.085938 -2.78125 1.921875 -2.78125 C 1.765625 -2.78125 1.617188 -2.75 1.484375 -2.6875 C 1.347656 -2.632812 1.226562 -2.554688 1.125 -2.453125 C 1.03125 -2.347656 0.953125 -2.226562 0.890625 -2.09375 C 0.835938 -1.957031 0.8125 -1.804688 0.8125 -1.640625 C 0.8125 -1.472656 0.835938 -1.316406 0.890625 -1.171875 C 0.953125 -1.035156 1.03125 -0.914062 1.125 -0.8125 C 1.226562 -0.707031 1.347656 -0.625 1.484375 -0.5625 C 1.617188 -0.507812 1.765625 -0.484375 1.921875 -0.484375 Z M 1.921875 -0.484375 "/></g></g></g><g fill="#545454" fill-opacity="1"><g transform="translate(12.987246, 5.03058)"><g><path d="M 0.3125 0 L 0.3125 -3.265625 L 1.53125 -3.265625 C 1.75 -3.265625 1.941406 -3.222656 2.109375 -3.140625 C 2.285156 -3.066406 2.421875 -2.953125 2.515625 -2.796875 C 2.617188 -2.640625 2.671875 -2.453125 2.671875 -2.234375 C 2.671875 -2.015625 2.613281 -1.820312 2.5 -1.65625 C 2.394531 -1.5 2.253906 -1.382812 2.078125 -1.3125 L 2.828125 0 L 2.15625 0 L 1.34375 -1.4375 L 1.734375 -1.203125 L 0.90625 -1.203125 L 0.90625 0 Z M 0.90625 -1.734375 L 1.546875 -1.734375 C 1.648438 -1.734375 1.738281 -1.753906 1.8125 -1.796875 C 1.894531 -1.835938 1.957031 -1.894531 2 -1.96875 C 2.050781 -2.050781 2.078125 -2.140625 2.078125 -2.234375 C 2.078125 -2.335938 2.050781 -2.425781 2 -2.5 C 1.957031 -2.570312 1.894531 -2.628906 1.8125 -2.671875 C 1.738281 -2.722656 1.648438 -2.75 1.546875 -2.75 L 0.90625 -2.75 Z M 0.90625 -1.734375 "/></g></g></g><g fill="#545454" fill-opacity="1"><g transform="translate(15.886673, 5.03058)"><g><path d="M 0.3125 0 L 0.3125 -3.265625 L 1.390625 -3.265625 C 1.734375 -3.265625 2.03125 -3.195312 2.28125 -3.0625 C 2.539062 -2.925781 2.738281 -2.734375 2.875 -2.484375 C 3.019531 -2.242188 3.09375 -1.960938 3.09375 -1.640625 C 3.09375 -1.316406 3.019531 -1.03125 2.875 -0.78125 C 2.738281 -0.539062 2.539062 -0.347656 2.28125 -0.203125 C 2.03125 -0.0664062 1.734375 0 1.390625 0 Z M 0.90625 -0.53125 L 1.390625 -0.53125 C 1.617188 -0.53125 1.8125 -0.570312 1.96875 -0.65625 C 2.132812 -0.75 2.257812 -0.878906 2.34375 -1.046875 C 2.4375 -1.210938 2.484375 -1.410156 2.484375 -1.640625 C 2.484375 -1.867188 2.4375 -2.0625 2.34375 -2.21875 C 2.257812 -2.382812 2.132812 -2.515625 1.96875 -2.609375 C 1.8125 -2.703125 1.617188 -2.75 1.390625 -2.75 L 0.90625 -2.75 Z M 0.90625 -0.53125 "/></g></g></g></g></g><g clip-path="url(#8553f4787b)"><g transform="matrix(1, 0, 0, 1, 18, 8)"><g clip-path="url(#3ebb22d6a8)"><g clip-path="url(#de6c689d1d)"><g fill="#545454" fill-opacity="1"><g transform="translate(0.231521, 4.825484)"><g><path d="M 0.3125 0 L 0.3125 -3.265625 L 0.890625 -3.265625 L 2.109375 -1.609375 L 1.84375 -1.609375 L 3.03125 -3.265625 L 3.609375 -3.265625 L 3.609375 0 L 3 0 L 3 -2.59375 L 3.234375 -2.53125 L 2 -0.875 L 1.921875 -0.875 L 0.71875 -2.53125 L 0.90625 -2.59375 L 0.90625 0 Z M 0.3125 0 "/></g></g></g></g><g fill="#545454" fill-opacity="1"><g transform="translate(4.148599, 4.825484)"><g><path d="M 0.046875 0 L 1.171875 -3.265625 L 1.953125 -3.265625 L 3.078125 0 L 2.421875 0 L 2.203125 -0.703125 L 0.9375 -0.703125 L 0.6875 0 Z M 1.109375 -1.234375 L 2.03125 -1.234375 L 1.484375 -2.859375 L 1.640625 -2.859375 Z M 1.109375 -1.234375 "/></g></g></g><g fill="#545454" fill-opacity="1"><g transform="translate(7.271733, 4.825484)"><g><path d="M 0.3125 0 L 0.3125 -3.265625 L 0.78125 -3.265625 L 2.578125 -0.84375 L 2.34375 -0.796875 L 2.34375 -3.265625 L 2.9375 -3.265625 L 2.9375 0 L 2.46875 0 L 0.6875 -2.4375 L 0.90625 -2.484375 L 0.90625 0 Z M 0.3125 0 "/></g></g></g><g fill="#545454" fill-opacity="1"><g transform="translate(10.522073, 4.825484)"><g><path d="M 0.046875 0 L 1.171875 -3.265625 L 1.953125 -3.265625 L 3.078125 0 L 2.421875 0 L 2.203125 -0.703125 L 0.9375 -0.703125 L 0.6875 0 Z M 1.109375 -1.234375 L 2.03125 -1.234375 L 1.484375 -2.859375 L 1.640625 -2.859375 Z M 1.109375 -1.234375 "/></g></g></g><g fill="#545454" fill-opacity="1"><g transform="translate(13.645206, 4.825484)"><g><path d="M 1.859375 0.046875 C 1.628906 0.046875 1.414062 0.00390625 1.21875 -0.078125 C 1.019531 -0.160156 0.84375 -0.273438 0.6875 -0.421875 C 0.539062 -0.578125 0.425781 -0.753906 0.34375 -0.953125 C 0.257812 -1.160156 0.21875 -1.390625 0.21875 -1.640625 C 0.21875 -1.878906 0.257812 -2.101562 0.34375 -2.3125 C 0.425781 -2.519531 0.539062 -2.695312 0.6875 -2.84375 C 0.832031 -3 1.003906 -3.117188 1.203125 -3.203125 C 1.398438 -3.285156 1.617188 -3.328125 1.859375 -3.328125 C 2.085938 -3.328125 2.296875 -3.285156 2.484375 -3.203125 C 2.671875 -3.128906 2.828125 -3.023438 2.953125 -2.890625 C 3.078125 -2.765625 3.171875 -2.625 3.234375 -2.46875 L 2.703125 -2.203125 C 2.640625 -2.378906 2.535156 -2.519531 2.390625 -2.625 C 2.242188 -2.726562 2.066406 -2.78125 1.859375 -2.78125 C 1.648438 -2.78125 1.46875 -2.726562 1.3125 -2.625 C 1.15625 -2.53125 1.03125 -2.398438 0.9375 -2.234375 C 0.851562 -2.066406 0.8125 -1.867188 0.8125 -1.640625 C 0.8125 -1.410156 0.851562 -1.207031 0.9375 -1.03125 C 1.03125 -0.863281 1.15625 -0.726562 1.3125 -0.625 C 1.476562 -0.53125 1.660156 -0.484375 1.859375 -0.484375 C 2.023438 -0.484375 2.175781 -0.515625 2.3125 -0.578125 C 2.457031 -0.648438 2.570312 -0.742188 2.65625 -0.859375 C 2.75 -0.984375 2.796875 -1.128906 2.796875 -1.296875 L 2.796875 -1.546875 L 3.0625 -1.3125 L 1.859375 -1.3125 L 1.859375 -1.828125 L 3.390625 -1.828125 L 3.390625 -1.5 C 3.390625 -1.238281 3.347656 -1.007812 3.265625 -0.8125 C 3.179688 -0.625 3.066406 -0.460938 2.921875 -0.328125 C 2.773438 -0.203125 2.609375 -0.109375 2.421875 -0.046875 C 2.242188 0.015625 2.054688 0.046875 1.859375 0.046875 Z M 1.859375 0.046875 "/></g></g></g><g fill="#545454" fill-opacity="1"><g transform="translate(17.189438, 4.825484)"><g><path d="M 0.3125 0 L 0.3125 -3.265625 L 2.484375 -3.265625 L 2.484375 -2.75 L 0.90625 -2.75 L 0.90625 -1.90625 L 2.40625 -1.90625 L 2.40625 -1.375 L 0.90625 -1.375 L 0.90625 -0.53125 L 2.484375 -0.53125 L 2.484375 0 Z M 0.3125 0 "/></g></g></g><g fill="#545454" fill-opacity="1"><g transform="translate(19.79936, 4.825484)"><g><path d="M 0.3125 0 L 0.3125 -3.265625 L 0.890625 -3.265625 L 2.109375 -1.609375 L 1.84375 -1.609375 L 3.03125 -3.265625 L 3.609375 -3.265625 L 3.609375 0 L 3 0 L 3 -2.59375 L 3.234375 -2.53125 L 2 -0.875 L 1.921875 -0.875 L 0.71875 -2.53125 L 0.90625 -2.59375 L 0.90625 0 Z M 0.3125 0 "/></g></g></g><g fill="#545454" fill-opacity="1"><g transform="translate(23.716438, 4.825484)"><g><path d="M 0.3125 0 L 0.3125 -3.265625 L 2.484375 -3.265625 L 2.484375 -2.75 L 0.90625 -2.75 L 0.90625 -1.90625 L 2.40625 -1.90625 L 2.40625 -1.375 L 0.90625 -1.375 L 0.90625 -0.53125 L 2.484375 -0.53125 L 2.484375 0 Z M 0.3125 0 "/></g></g></g><g fill="#545454" fill-opacity="1"><g transform="translate(26.326361, 4.825484)"><g><path d="M 0.3125 0 L 0.3125 -3.265625 L 0.78125 -3.265625 L 2.578125 -0.84375 L 2.34375 -0.796875 L 2.34375 -3.265625 L 2.9375 -3.265625 L 2.9375 0 L 2.46875 0 L 0.6875 -2.4375 L 0.90625 -2.484375 L 0.90625 0 Z M 0.3125 0 "/></g></g></g><g fill="#545454" fill-opacity="1"><g transform="translate(29.576701, 4.825484)"><g><path d="M 0.890625 0 L 0.890625 -2.75 L 0.046875 -2.75 L 0.046875 -3.265625 L 2.328125 -3.265625 L 2.328125 -2.75 L 1.5 -2.75 L 1.5 0 Z M 0.890625 0 "/></g></g></g></g></g></g><g transform="matrix(1, 0, 0, 1, 18, 15)"><g clip-path="url(#42d015ce7f)"><g clip-path="url(#c75b5c7e88)"><g fill="#545454" fill-opacity="1"><g transform="translate(0.231521, 4.620381)"><g><path d="M 1.484375 0.046875 C 1.273438 0.046875 1.082031 0.0078125 0.90625 -0.0625 C 0.726562 -0.132812 0.578125 -0.238281 0.453125 -0.375 C 0.328125 -0.507812 0.234375 -0.671875 0.171875 -0.859375 L 0.671875 -1.078125 C 0.742188 -0.890625 0.851562 -0.738281 1 -0.625 C 1.15625 -0.519531 1.328125 -0.46875 1.515625 -0.46875 C 1.617188 -0.46875 1.707031 -0.484375 1.78125 -0.515625 C 1.863281 -0.554688 1.925781 -0.601562 1.96875 -0.65625 C 2.007812 -0.71875 2.03125 -0.789062 2.03125 -0.875 C 2.03125 -0.96875 2 -1.046875 1.9375 -1.109375 C 1.882812 -1.171875 1.800781 -1.21875 1.6875 -1.25 L 1.0625 -1.453125 C 0.8125 -1.535156 0.617188 -1.65625 0.484375 -1.8125 C 0.359375 -1.96875 0.296875 -2.15625 0.296875 -2.375 C 0.296875 -2.5625 0.34375 -2.722656 0.4375 -2.859375 C 0.53125 -3.003906 0.65625 -3.117188 0.8125 -3.203125 C 0.976562 -3.285156 1.171875 -3.328125 1.390625 -3.328125 C 1.585938 -3.328125 1.765625 -3.289062 1.921875 -3.21875 C 2.085938 -3.15625 2.226562 -3.0625 2.34375 -2.9375 C 2.46875 -2.8125 2.554688 -2.664062 2.609375 -2.5 L 2.125 -2.28125 C 2.0625 -2.445312 1.960938 -2.570312 1.828125 -2.65625 C 1.703125 -2.75 1.554688 -2.796875 1.390625 -2.796875 C 1.285156 -2.796875 1.195312 -2.78125 1.125 -2.75 C 1.050781 -2.71875 0.988281 -2.671875 0.9375 -2.609375 C 0.894531 -2.546875 0.875 -2.472656 0.875 -2.390625 C 0.875 -2.304688 0.90625 -2.226562 0.96875 -2.15625 C 1.03125 -2.09375 1.117188 -2.039062 1.234375 -2 L 1.84375 -1.8125 C 2.101562 -1.726562 2.296875 -1.609375 2.421875 -1.453125 C 2.554688 -1.304688 2.625 -1.125 2.625 -0.90625 C 2.625 -0.71875 2.570312 -0.550781 2.46875 -0.40625 C 2.375 -0.257812 2.242188 -0.144531 2.078125 -0.0625 C 1.910156 0.0078125 1.710938 0.046875 1.484375 0.046875 Z M 1.484375 0.046875 "/></g></g></g></g><g fill="#545454" fill-opacity="1"><g transform="translate(3.069539, 4.620381)"><g><path d="M 1.15625 0 L 1.15625 -1.453125 L 0.046875 -3.265625 L 0.734375 -3.265625 L 1.578125 -1.84375 L 1.328125 -1.84375 L 2.171875 -3.265625 L 2.84375 -3.265625 L 1.75 -1.453125 L 1.75 0 Z M 1.15625 0 "/></g></g></g><g fill="#545454" fill-opacity="1"><g transform="translate(5.964579, 4.620381)"><g><path d="M 1.484375 0.046875 C 1.273438 0.046875 1.082031 0.0078125 0.90625 -0.0625 C 0.726562 -0.132812 0.578125 -0.238281 0.453125 -0.375 C 0.328125 -0.507812 0.234375 -0.671875 0.171875 -0.859375 L 0.671875 -1.078125 C 0.742188 -0.890625 0.851562 -0.738281 1 -0.625 C 1.15625 -0.519531 1.328125 -0.46875 1.515625 -0.46875 C 1.617188 -0.46875 1.707031 -0.484375 1.78125 -0.515625 C 1.863281 -0.554688 1.925781 -0.601562 1.96875 -0.65625 C 2.007812 -0.71875 2.03125 -0.789062 2.03125 -0.875 C 2.03125 -0.96875 2 -1.046875 1.9375 -1.109375 C 1.882812 -1.171875 1.800781 -1.21875 1.6875 -1.25 L 1.0625 -1.453125 C 0.8125 -1.535156 0.617188 -1.65625 0.484375 -1.8125 C 0.359375 -1.96875 0.296875 -2.15625 0.296875 -2.375 C 0.296875 -2.5625 0.34375 -2.722656 0.4375 -2.859375 C 0.53125 -3.003906 0.65625 -3.117188 0.8125 -3.203125 C 0.976562 -3.285156 1.171875 -3.328125 1.390625 -3.328125 C 1.585938 -3.328125 1.765625 -3.289062 1.921875 -3.21875 C 2.085938 -3.15625 2.226562 -3.0625 2.34375 -2.9375 C 2.46875 -2.8125 2.554688 -2.664062 2.609375 -2.5 L 2.125 -2.28125 C 2.0625 -2.445312 1.960938 -2.570312 1.828125 -2.65625 C 1.703125 -2.75 1.554688 -2.796875 1.390625 -2.796875 C 1.285156 -2.796875 1.195312 -2.78125 1.125 -2.75 C 1.050781 -2.71875 0.988281 -2.671875 0.9375 -2.609375 C 0.894531 -2.546875 0.875 -2.472656 0.875 -2.390625 C 0.875 -2.304688 0.90625 -2.226562 0.96875 -2.15625 C 1.03125 -2.09375 1.117188 -2.039062 1.234375 -2 L 1.84375 -1.8125 C 2.101562 -1.726562 2.296875 -1.609375 2.421875 -1.453125 C 2.554688 -1.304688 2.625 -1.125 2.625 -0.90625 C 2.625 -0.71875 2.570312 -0.550781 2.46875 -0.40625 C 2.375 -0.257812 2.242188 -0.144531 2.078125 -0.0625 C 1.910156 0.0078125 1.710938 0.046875 1.484375 0.046875 Z M 1.484375 0.046875 "/></g></g></g><g fill="#545454" fill-opacity="1"><g transform="translate(8.802597, 4.620381)"><g><path d="M 0.890625 0 L 0.890625 -2.75 L 0.046875 -2.75 L 0.046875 -3.265625 L 2.328125 -3.265625 L 2.328125 -2.75 L 1.5 -2.75 L 1.5 0 Z M 0.890625 0 "/></g></g></g><g fill="#545454" fill-opacity="1"><g transform="translate(11.180039, 4.620381)"><g><path d="M 0.3125 0 L 0.3125 -3.265625 L 2.484375 -3.265625 L 2.484375 -2.75 L 0.90625 -2.75 L 0.90625 -1.90625 L 2.40625 -1.90625 L 2.40625 -1.375 L 0.90625 -1.375 L 0.90625 -0.53125 L 2.484375 -0.53125 L 2.484375 0 Z M 0.3125 0 "/></g></g></g><g clip-path="url(#93a8032b2d)"><g fill="#545454" fill-opacity="1"><g transform="translate(13.789962, 4.620381)"><g><path d="M 0.3125 0 L 0.3125 -3.265625 L 0.890625 -3.265625 L 2.109375 -1.609375 L 1.84375 -1.609375 L 3.03125 -3.265625 L 3.609375 -3.265625 L 3.609375 0 L 3 0 L 3 -2.59375 L 3.234375 -2.53125 L 2 -0.875 L 1.921875 -0.875 L 0.71875 -2.53125 L 0.90625 -2.59375 L 0.90625 0 Z M 0.3125 0 "/></g></g></g></g></g></g></g></g></svg>