<?xml version="1.0" encoding="utf-8"?>
<!-- Generator: Adobe Illustrator 24.0.1, SVG Export Plug-In . SVG Version: 6.00 Build 0)  -->
<svg version="1.1" id="Layer_1" xmlns="http://www.w3.org/2000/svg" xmlns:xlink="http://www.w3.org/1999/xlink" x="0px" y="0px"
	 viewBox="0 0 400 254.4" style="enable-background:new 0 0 400 254.4;" xml:space="preserve">
<style type="text/css">
	.st0{clip-path:url(#SVGID_2_);fill:url(#SVGID_3_);}
	.st1{clip-path:url(#SVGID_5_);fill:url(#SVGID_6_);}
	.st2{clip-path:url(#SVGID_8_);fill:url(#SVGID_9_);}
	.st3{clip-path:url(#SVGID_11_);fill:url(#SVGID_12_);}
	.st4{clip-path:url(#SVGID_14_);fill:url(#SVGID_15_);}
	.st5{clip-path:url(#SVGID_17_);fill:url(#SVGID_18_);}
	.st6{opacity:0.3;}
	.st7{clip-path:url(#SVGID_20_);fill-rule:evenodd;clip-rule:evenodd;fill:#FFFFFF;}
	.st8{fill:#363939;}
	.st9{fill:#231F20;}
	.st10{clip-path:url(#SVGID_22_);fill:url(#SVGID_23_);}
	.st11{clip-path:url(#SVGID_25_);fill:url(#SVGID_26_);}
	.st12{clip-path:url(#SVGID_28_);fill:url(#SVGID_29_);}
</style>
<g>
	<g>
		<defs>
			<path id="SVGID_1_" d="M2.16,50.01l26.68,40.34c0,0,6.3,7.14-1.05,15.13L5.94,138.24l-3.68,5.47c0,0-0.95,5.56,4.41,3.68
				c5.36-1.89,35.4-25.53,65.86-44.86c0,0,8.19-7.24-3.99-13.55L6.36,46.23c0,0-0.68-0.19-1.5-0.19C3.4,46.04,1.48,46.64,2.16,50.01
				"/>
		</defs>
		<clipPath id="SVGID_2_">
			<use xlink:href="#SVGID_1_"  style="overflow:visible;"/>
		</clipPath>
		
			<linearGradient id="SVGID_3_" gradientUnits="userSpaceOnUse" x1="-89.1766" y1="515.3035" x2="-85.8536" y2="515.3035" gradientTransform="matrix(5.9856 9.1586 8.9357 -5.84 -4039.9644 3908.2034)">
			<stop  offset="0" style="stop-color:#E9372F"/>
			<stop  offset="0.51" style="stop-color:#F3703A"/>
			<stop  offset="1" style="stop-color:#F79D53"/>
		</linearGradient>
		<polygon class="st0" points="56.96,9.67 128.01,118.37 25.09,185.64 -45.96,76.93 		"/>
	</g>
	<g>
		<defs>
			<path id="SVGID_4_" d="M78.81,7.51c-1.36,5.51,1.91,43.6,1.35,79.67c0,0,1.57,10.83,13.52,4.1l69.87-28.52
				c0,0,4.11-3.58-0.86-5.59l-48.36,0.17c0,0-9.43,1.35-12.07-9.18L86.85,11.91L84.3,5.84c0,0-1.4-1.3-2.84-1.3
				C80.43,4.54,79.37,5.21,78.81,7.51"/>
		</defs>
		<clipPath id="SVGID_5_">
			<use xlink:href="#SVGID_4_"  style="overflow:visible;"/>
		</clipPath>
		
			<linearGradient id="SVGID_6_" gradientUnits="userSpaceOnUse" x1="-72.0504" y1="581.7472" x2="-68.7274" y2="581.7472" gradientTransform="matrix(-10.663 -0.0221 -0.0216 10.4323 -636.0342 -6019.2852)">
			<stop  offset="0" style="stop-color:#5D9942"/>
			<stop  offset="0.51" style="stop-color:#A1BC4C"/>
			<stop  offset="1" style="stop-color:#F2ED6C"/>
		</linearGradient>
		<polygon class="st1" points="167.65,98.2 77.26,98.01 77.45,4.35 167.85,4.54 		"/>
	</g>
	<g>
		<defs>
			<path id="SVGID_7_" d="M81.7,112.07l-7.4,75.1c0,0,1.25,5.31,5.34,1.85l22.44-42.84c0,0,3.21-8.97,13.75-6.39l39.25,3.31
				l6.56,0.58c0,0,5.33-1.86,1.08-5.64c-4.24-3.78-39.45-18.67-71.08-36.01c0,0-1.26-0.45-2.87-0.45
				C85.74,101.59,81.46,103.14,81.7,112.07"/>
		</defs>
		<clipPath id="SVGID_8_">
			<use xlink:href="#SVGID_7_"  style="overflow:visible;"/>
		</clipPath>
		
			<linearGradient id="SVGID_9_" gradientUnits="userSpaceOnUse" x1="-134.2786" y1="560.7909" x2="-130.9556" y2="560.7909" gradientTransform="matrix(5.2676 -9.9261 -10.5764 -5.6127 6752.4287 1974.2977)">
			<stop  offset="0" style="stop-color:#2F3677"/>
			<stop  offset="0.51" style="stop-color:#4671A5"/>
			<stop  offset="1" style="stop-color:#60BDEB"/>
		</linearGradient>
		<polygon class="st2" points="36.65,172.51 94.66,63.22 204.6,121.56 146.6,230.86 		"/>
	</g>
	<g>
		<defs>
			<path id="SVGID_10_" d="M40.68,33.56l0.01,30.51c0,0,0.71,2.09,2.22,0.53l7.33-18.13c0,0,0.93-3.74,5.28-3.11l15.93-0.24
				l2.66-0.02c0,0,2.07-0.96,0.22-2.31c-1.86-1.35-16.62-5.95-30.04-11.67c0,0-0.34-0.08-0.8-0.08
				C42.26,29.05,40.18,29.6,40.68,33.56"/>
		</defs>
		<clipPath id="SVGID_11_">
			<use xlink:href="#SVGID_10_"  style="overflow:visible;"/>
		</clipPath>
		
			<linearGradient id="SVGID_12_" gradientUnits="userSpaceOnUse" x1="-179.9961" y1="593.5545" x2="-176.6732" y2="593.5545" gradientTransform="matrix(1.6614 -4.0484 -4.193 -1.7208 2844.3809 344.2176)">
			<stop  offset="0" style="stop-color:#2F3677"/>
			<stop  offset="0.51" style="stop-color:#4671A5"/>
			<stop  offset="1" style="stop-color:#60BDEB"/>
		</linearGradient>
		<polygon class="st3" points="27.14,60.81 45.36,16.41 89.2,34.4 70.98,78.8 		"/>
	</g>
	<g>
		<defs>
			<path id="SVGID_13_" d="M39.82,130.22c-0.65,2.2-0.05,17.64-0.96,32.21c0,0,0.43,4.4,5.38,1.91L73,154.14
				c0,0,1.73-1.37-0.24-2.27l-19.54-0.85c0,0-3.83,0.37-4.7-3.94l-5.54-14.93l-0.91-2.5c0,0-0.57-0.58-1.17-0.58
				C40.5,129.06,40.08,129.33,39.82,130.22"/>
		</defs>
		<clipPath id="SVGID_14_">
			<use xlink:href="#SVGID_13_"  style="overflow:visible;"/>
		</clipPath>
		
			<linearGradient id="SVGID_15_" gradientUnits="userSpaceOnUse" x1="-31.759" y1="637.2491" x2="-28.4361" y2="637.2491" gradientTransform="matrix(-4.4011 -0.2152 -0.2128 4.3526 51.5245 -2632.636)">
			<stop  offset="0" style="stop-color:#5D9942"/>
			<stop  offset="0.51" style="stop-color:#A1BC4C"/>
			<stop  offset="1" style="stop-color:#F2ED6C"/>
		</linearGradient>
		<polygon class="st4" points="74.64,168.57 37.02,166.73 38.94,127.31 76.57,129.15 		"/>
	</g>
	<g>
		<defs>
			<path id="SVGID_16_" d="M134.36,79.35l11.11,16.09c0,0,2.61,2.84-0.3,6.12l-8.57,13.42l-1.45,2.24c0,0-0.33,2.26,1.82,1.45
				c2.15-0.81,14.11-10.6,26.26-18.66c0,0,3.25-2.99-1.72-5.44l-25.48-16.78c0,0-0.25-0.07-0.57-0.07
				C134.86,77.72,134.05,77.96,134.36,79.35"/>
		</defs>
		<clipPath id="SVGID_17_">
			<use xlink:href="#SVGID_16_"  style="overflow:visible;"/>
		</clipPath>
		
			<linearGradient id="SVGID_18_" gradientUnits="userSpaceOnUse" x1="-69.5534" y1="470.4862" x2="-66.2304" y2="470.4862" gradientTransform="matrix(2.4897 3.65 3.5677 -2.4336 -1359.4327 1491.1306)">
			<stop  offset="0" style="stop-color:#E9372F"/>
			<stop  offset="0.51" style="stop-color:#F3703A"/>
			<stop  offset="1" style="stop-color:#F79D53"/>
		</linearGradient>
		<polygon class="st5" points="156.18,62.63 185.92,106.23 144.35,134.58 114.61,90.99 		"/>
	</g>
	<g class="st6">
		<g>
			<defs>
				<rect id="SVGID_19_" x="40.21" y="55.72" width="81.46" height="81.46"/>
			</defs>
			<clipPath id="SVGID_20_">
				<use xlink:href="#SVGID_19_"  style="overflow:visible;"/>
			</clipPath>
			<path class="st7" d="M80.94,55.71c22.49,0,40.73,18.24,40.73,40.73c0,22.49-18.24,40.73-40.73,40.73
				c-22.49,0-40.73-18.24-40.73-40.73C40.21,73.95,58.45,55.71,80.94,55.71"/>
		</g>
	</g>
	<path class="st8" d="M210.3,104.41c5.03,0,7.77,2.52,7.77,2.52l-0.83,1.05c0,0-2.67-2.26-6.94-2.26c-5.6,0-9.68,4.46-9.68,10.22
		c0,5.79,3.98,10.22,9.49,10.22c4.77,0,7.64-3.66,7.64-3.66v-4.3h-3.98v-1.27h5.35v10.16h-1.37v-1.94c0-0.48,0.03-0.95,0.03-0.95
		h-0.06c0,0-2.67,3.28-7.61,3.28c-6.21,0-10.92-5.06-10.92-11.53C199.18,109.51,203.99,104.41,210.3,104.41"/>
	<path class="st8" d="M231.21,110.78c4.56,0,8.25,3.6,8.25,8.25c0,4.74-3.69,8.44-8.25,8.44c-4.55,0-8.25-3.7-8.25-8.44
		C222.97,114.38,226.66,110.78,231.21,110.78 M231.21,126.16c3.79,0,6.85-3.09,6.85-7.13c0-3.95-3.06-6.94-6.85-6.94
		c-3.79,0-6.85,2.99-6.85,6.94C224.37,123.07,227.43,126.16,231.21,126.16"/>
	<path class="st8" d="M241.66,111.16h1.44l4.9,12.48c0.29,0.76,0.54,1.72,0.54,1.72h0.07c0,0,0.25-0.96,0.54-1.72l4.9-12.48h1.4
		l-6.24,15.92h-1.27L241.66,111.16z"/>
	<path class="st8" d="M265.45,110.78c4.33,0,6.5,3.41,6.5,7.26c0,0.35-0.07,0.86-0.07,0.86h-12.77c0,4.62,3.12,7.26,6.81,7.26
		c3.06,0,4.94-2.01,4.94-2.01l0.73,1.12c0,0-2.23,2.2-5.67,2.2c-4.49,0-8.21-3.25-8.21-8.31
		C257.71,113.77,261.37,110.78,265.45,110.78 M270.54,117.66c-0.16-3.88-2.49-5.64-5.12-5.64c-2.93,0-5.64,1.91-6.21,5.64H270.54z"
		/>
	<path class="st8" d="M276.43,111.16h1.34v3.03c0,0.73-0.13,1.3-0.13,1.3h0.06c0.79-2.45,2.58-4.46,5.09-4.46
		c0.48,0,0.92,0.1,0.92,0.1v1.34c0,0-0.38-0.06-0.73-0.06c-2.48,0-4.04,2.1-4.75,4.46c-0.35,1.12-0.48,2.29-0.48,3.35v6.88h-1.34
		V111.16z"/>
	<path class="st8" d="M287.19,111.16h1.34v2.8c0,0.73-0.13,1.31-0.13,1.31h0.06c0.54-1.5,2.77-4.49,6.75-4.49
		c4.14,0,5.25,2.45,5.25,6.21v10.1h-1.34v-9.62c0-2.77-0.35-5.38-3.92-5.38c-2.99,0-5.64,2.1-6.43,5.06
		c-0.19,0.67-0.26,1.4-0.26,2.17v7.77h-1.34V111.16z"/>
	<path class="st8" d="M305.85,111.16h1.34v2.8c0,0.73-0.13,1.31-0.13,1.31h0.06c0.79-2.39,3.63-4.49,6.11-4.49
		c3.19,0,4.68,1.5,5.03,4.33h0.06c0.89-2.23,3.31-4.33,6.05-4.33c4.11,0,5.32,2.42,5.32,6.21v10.1h-1.34v-9.62
		c0-2.99-0.6-5.44-3.98-5.44c-2.64,0-4.9,2.36-5.6,4.84c-0.22,0.73-0.32,1.53-0.32,2.45v7.77h-1.34v-9.62
		c0-2.74-0.38-5.44-3.89-5.44c-2.83,0-5.06,2.48-5.8,5.12c-0.19,0.67-0.25,1.4-0.25,2.17v7.77h-1.34V111.16z"/>
	<path class="st8" d="M341.7,110.78c4.33,0,6.5,3.41,6.5,7.26c0,0.35-0.06,0.86-0.06,0.86h-12.77c0,4.62,3.12,7.26,6.82,7.26
		c3.05,0,4.93-2.01,4.93-2.01l0.73,1.12c0,0-2.23,2.2-5.67,2.2c-4.49,0-8.22-3.25-8.22-8.31
		C333.97,113.77,337.63,110.78,341.7,110.78 M346.8,117.66c-0.16-3.88-2.48-5.64-5.13-5.64c-2.93,0-5.64,1.91-6.21,5.64H346.8z"/>
	<path class="st8" d="M352.69,111.16h1.34v2.8c0,0.73-0.13,1.31-0.13,1.31h0.06c0.54-1.5,2.77-4.49,6.75-4.49
		c4.14,0,5.25,2.45,5.25,6.21v10.1h-1.34v-9.62c0-2.77-0.35-5.38-3.92-5.38c-2.99,0-5.64,2.1-6.43,5.06
		c-0.19,0.67-0.26,1.4-0.26,2.17v7.77h-1.34V111.16z"/>
	<path class="st8" d="M371.86,112.47h-2.1v-1.21h2.1v-4.52h1.34v4.52h4.17v1.21h-4.17v8.76c0,4.2,2.52,4.75,3.79,4.75
		c0.45,0,0.73-0.06,0.73-0.06v1.24c0,0-0.32,0.07-0.8,0.07c-1.65,0-5.06-0.6-5.06-5.89V112.47z"/>
	<path class="st8" d="M198.15,142.42c4.68,0,7.2,3.41,7.2,7.71c0,0.48-0.1,1.56-0.1,1.56h-11.21c0.26,2.84,2.46,4.3,4.87,4.3
		c2.61,0,4.68-1.78,4.68-1.78l1.56,2.9c0,0-2.48,2.33-6.53,2.33c-5.38,0-8.73-3.88-8.73-8.5
		C189.9,145.92,193.31,142.42,198.15,142.42 M201.27,148.91c-0.06-2.2-1.44-3.38-3.22-3.38c-2.07,0-3.5,1.28-3.88,3.38H201.27z"/>
	<path class="st8" d="M218.37,136.56h3.31l5.16,12.17c0.51,1.24,1.12,3.02,1.12,3.02h0.06c0,0,0.6-1.78,1.11-3.02l5.16-12.17h3.31
		l1.81,22.48h-3.12l-1.11-14.17c-0.1-1.37-0.03-3.31-0.03-3.31h-0.06c0,0-0.67,2.07-1.21,3.31l-4.49,10.13h-2.8l-4.46-10.13
		c-0.51-1.21-1.21-3.38-1.21-3.38h-0.06c0,0,0.03,2.01-0.06,3.38l-1.09,14.17h-3.15L218.37,136.56z"/>
	<path class="st8" d="M252.6,148.97h0.7v-0.29c0-2.64-1.5-3.54-3.54-3.54c-2.48,0-4.49,1.56-4.49,1.56l-1.27-2.26
		c0,0,2.33-1.91,6.02-1.91c4.08,0,6.37,2.23,6.37,6.31v10.19h-2.87v-1.53c0-0.73,0.06-1.27,0.06-1.27h-0.06c0,0-1.31,3.18-5.16,3.18
		c-2.77,0-5.48-1.69-5.48-4.9C242.88,149.2,249.89,148.97,252.6,148.97 M249.03,156.94c2.61,0,4.3-2.74,4.3-5.13v-0.51h-0.8
		c-2.32,0-6.53,0.16-6.53,3.05C246.01,155.66,247.02,156.94,249.03,156.94"/>
	<path class="st8" d="M261,142.92H264v2.8c0,0.67-0.06,1.21-0.06,1.21H264c0.73-2.36,2.61-4.21,5.09-4.21c0.42,0,0.8,0.07,0.8,0.07
		v3.05c0,0-0.42-0.09-0.89-0.09c-1.97,0-3.79,1.4-4.52,3.79c-0.29,0.92-0.38,1.91-0.38,2.9v6.59H261V142.92z"/>
	<polygon class="st8" points="272.94,136.56 276.03,136.56 276.03,148.85 278.29,148.85 282.69,142.93 286.19,142.93 280.84,150.02 
		280.84,150.09 286.8,159.04 283.2,159.04 278.36,151.46 276.03,151.46 276.03,159.04 272.94,159.04 	"/>
	<path class="st8" d="M296.38,142.54c4.56,0,6.97,3.38,6.97,7.55c0,0.41-0.1,1.34-0.1,1.34h-11.75c0.16,3.54,2.67,5.32,5.54,5.32
		c2.77,0,4.78-1.88,4.78-1.88l1.27,2.26c0,0-2.39,2.29-6.24,2.29c-5.06,0-8.53-3.66-8.53-8.44
		C288.32,145.85,291.79,142.54,296.38,142.54 M300.2,149.1c-0.1-2.77-1.81-4.11-3.88-4.11c-2.36,0-4.27,1.47-4.71,4.11H300.2z"/>
	<path class="st8" d="M307.78,145.63h-2.1v-2.49h2.2v-4.65h2.99v4.65h3.88v2.49h-3.88v7.17c0,3.21,2.26,3.63,3.44,3.63
		c0.44,0,0.73-0.07,0.73-0.07v2.74c0,0-0.45,0.06-1.08,0.06c-2.07,0-6.18-0.64-6.18-6.02V145.63z"/>
	<path class="st8" d="M318.51,142.92h2.83v1.37c0,0.64-0.06,1.18-0.06,1.18h0.06c0,0,1.37-2.93,5.41-2.93
		c4.33,0,7.07,3.44,7.07,8.44c0,5.12-3.09,8.44-7.29,8.44c-3.54,0-4.93-2.64-4.93-2.64h-0.06c0,0,0.06,0.57,0.06,1.4v7.23h-3.09
		V142.92z M326.05,156.78c2.55,0,4.65-2.1,4.65-5.77c0-3.5-1.88-5.76-4.55-5.76c-2.42,0-4.65,1.69-4.65,5.8
		C321.5,153.91,323.09,156.78,326.05,156.78"/>
	<path class="st8" d="M337.42,136.56h3.09v17.55c0,1.94,0.76,2.29,1.72,2.29c0.29,0,0.54-0.03,0.54-0.03v2.74
		c0,0-0.48,0.06-1.02,0.06c-1.75,0-4.33-0.48-4.33-4.52V136.56z"/>
	<path class="st8" d="M354.45,148.97h0.7v-0.29c0-2.64-1.5-3.54-3.53-3.54c-2.49,0-4.49,1.56-4.49,1.56l-1.27-2.26
		c0,0,2.33-1.91,6.02-1.91c4.07,0,6.37,2.23,6.37,6.31v10.19h-2.87v-1.53c0-0.73,0.07-1.27,0.07-1.27h-0.07c0,0-1.3,3.18-5.16,3.18
		c-2.77,0-5.48-1.69-5.48-4.9C344.74,149.2,351.75,148.97,354.45,148.97 M350.89,156.94c2.61,0,4.3-2.74,4.3-5.13v-0.51h-0.8
		c-2.32,0-6.53,0.16-6.53,3.05C347.86,155.66,348.88,156.94,350.89,156.94"/>
	<path class="st8" d="M370.34,142.54c4.04,0,6.05,2.36,6.05,2.36l-1.47,2.17c0,0-1.72-1.85-4.46-1.85c-3.25,0-5.6,2.42-5.6,5.73
		c0,3.28,2.36,5.8,5.7,5.8c2.99,0,4.97-2.16,4.97-2.16l1.24,2.26c0,0-2.23,2.58-6.43,2.58c-5.06,0-8.63-3.6-8.63-8.44
		C361.71,146.21,365.28,142.54,370.34,142.54"/>
	<path class="st8" d="M387.22,142.54c4.55,0,6.97,3.38,6.97,7.55c0,0.41-0.1,1.34-0.1,1.34h-11.75c0.16,3.54,2.67,5.32,5.54,5.32
		c2.77,0,4.78-1.88,4.78-1.88l1.28,2.26c0,0-2.39,2.29-6.24,2.29c-5.06,0-8.53-3.66-8.53-8.44
		C379.16,145.85,382.63,142.54,387.22,142.54 M391.04,149.1c-0.1-2.77-1.81-4.11-3.88-4.11c-2.36,0-4.27,1.47-4.71,4.11H391.04z"/>
	<path class="st8" d="M233.53,29.33c14.84,0,22.52,7.68,22.52,7.68l-5.46,8.19c0,0-6.48-5.8-16.12-5.8
		c-13.56,0-20.81,9.38-20.81,20.81c0,13.14,8.96,21.67,20.3,21.67c9.13,0,15.18-6.31,15.18-6.31v-7.08h-9.29v-9.46h19.19v31.9h-9.38
		v-2.9c0-1.28,0.09-2.56,0.09-2.56h-0.17c0,0-6.31,6.48-17.57,6.48c-15.95,0-29.68-12.37-29.68-31.39
		C202.31,42.98,215.53,29.33,233.53,29.33"/>
	<path class="st8" d="M288.72,46.98c11.85,0,17.91,9.13,17.91,19.79c0,1.02-0.17,2.98-0.17,2.98h-32.92
		c0.26,11,7.76,16.97,16.63,16.97c7.85,0,13.05-5.2,13.05-5.2l2.65,4.44c0,0-6.23,5.97-15.87,5.97c-12.79,0-22.43-9.21-22.43-22.43
		C267.56,55.43,277.12,46.98,288.72,46.98 M300.74,64.98c-0.34-8.96-5.8-13.14-12.2-13.14c-7.17,0-13.39,4.52-14.76,13.14H300.74z"
		/>
	<path class="st8" d="M321.47,30.35h11.77l11.86,29.94c1.36,3.58,3.07,8.87,3.07,8.87h0.17c0,0,1.62-5.29,2.99-8.87l11.85-29.94
		h11.77l4.86,60.56H368.9l-2.56-33.86c-0.26-4.01-0.08-9.38-0.08-9.38h-0.17c0,0-1.79,5.89-3.24,9.38l-9.81,23.46h-9.64l-9.72-23.46
		c-1.45-3.5-3.33-9.47-3.33-9.47h-0.17c0,0,0.17,5.46-0.09,9.47l-2.56,33.86h-11.01L321.47,30.35z"/>
	<polygon class="st9" points="48.15,228.18 48.15,229.19 40.82,229.19 40.82,235.45 47.96,235.45 47.96,236.47 40.82,236.47 
		40.82,242.82 48.33,242.82 48.33,243.83 39.62,243.83 39.62,228.18 	"/>
	<path class="st9" d="M58.59,228.42v1.03c-0.74-0.26-1.36-0.39-1.86-0.39c-1.66,0-2.5,1.06-2.5,3.19v1.28h1.99v0.9h-1.99v9.41h-1.1
		v-9.41h-1.9v-0.9h1.9v-1.69c0-1.19,0.35-2.12,1.03-2.81c0.69-0.69,1.54-1.04,2.54-1.04C57.25,227.98,57.88,228.13,58.59,228.42"/>
	<path class="st9" d="M66.05,228.42v1.03c-0.74-0.26-1.36-0.39-1.86-0.39c-1.66,0-2.5,1.06-2.5,3.19v1.28h1.99v0.9h-1.99v9.41h-1.1
		v-9.41h-1.9v-0.9h1.9v-1.69c0-1.19,0.35-2.12,1.03-2.81c0.69-0.69,1.54-1.04,2.54-1.04C64.71,227.98,65.33,228.13,66.05,228.42"/>
	<path class="st9" d="M68.14,230.06h-1.11v-1.88h1.11V230.06z M68.14,243.83h-1.11v-10.3h1.11V243.83z"/>
	<path class="st9" d="M80.38,233.83v1.22c-0.98-0.43-1.88-0.65-2.68-0.65c-1.15,0-2.09,0.4-2.8,1.2c-0.72,0.8-1.08,1.84-1.08,3.11
		c0,1.3,0.36,2.33,1.08,3.1c0.72,0.76,1.68,1.15,2.89,1.15c0.88,0,1.8-0.2,2.77-0.59v1.14c-1.03,0.35-1.98,0.52-2.86,0.52
		c-1.51,0-2.73-0.48-3.66-1.43c-0.93-0.96-1.39-2.21-1.39-3.76c0-1.62,0.47-2.94,1.41-3.97c0.93-1.03,2.13-1.54,3.59-1.54
		C78.45,233.33,79.36,233.49,80.38,233.83"/>
	<path class="st9" d="M85.91,230.06H84.8v-1.88h1.11V230.06z M85.91,243.83H84.8v-10.3h1.11V243.83z"/>
	<path class="st9" d="M99.66,238.3h-8.12c-0.02,0.18-0.03,0.36-0.03,0.54c0,1.15,0.41,2.12,1.23,2.92c0.82,0.8,1.79,1.2,2.91,1.2
		c1.31,0,2.58-0.51,3.83-1.54v1.24c-1.18,0.91-2.5,1.37-3.96,1.37c-1.49,0-2.71-0.52-3.69-1.55c-0.97-1.03-1.46-2.34-1.46-3.93
		c0-1.51,0.45-2.76,1.34-3.75c0.9-0.99,2.02-1.48,3.38-1.48c1.28,0,2.36,0.45,3.24,1.34C99.22,235.55,99.66,236.77,99.66,238.3
		 M91.69,237.41h6.67c-0.39-2.01-1.47-3.01-3.26-3.01c-0.84,0-1.57,0.26-2.19,0.79C92.3,235.71,91.89,236.45,91.69,237.41"/>
	<path class="st9" d="M104.92,233.52v1.79h0.05c0.86-1.33,1.99-1.99,3.39-1.99c1.16,0,2.09,0.37,2.79,1.12
		c0.69,0.74,1.04,1.78,1.04,3.1v6.28h-1.1v-5.87c0-2.37-0.93-3.56-2.8-3.56c-1.37,0-2.49,0.73-3.37,2.21v7.22h-1.1v-10.3H104.92z"/>
	<path class="st9" d="M119.03,230.11v3.41h2.89v0.9h-2.89v6.13c0,0.98,0.08,1.63,0.24,1.94c0.16,0.31,0.59,0.47,1.3,0.47
		c0.54,0,1.16-0.17,1.88-0.51v1.05c-0.72,0.35-1.43,0.52-2.13,0.52c-0.68,0-1.25-0.19-1.7-0.58c-0.46-0.39-0.68-0.92-0.68-1.61
		v-7.41h-2.78v-0.9h2.78v-2.45l0.75-0.96H119.03z"/>
	<path class="st9" d="M135.71,236.01c0-0.77,0.28-1.43,0.83-1.98c0.55-0.55,1.21-0.82,1.97-0.82c0.76,0,1.42,0.27,1.97,0.82
		c0.55,0.55,0.83,1.21,0.83,1.98c0,0.76-0.28,1.42-0.83,1.96c-0.55,0.55-1.21,0.82-1.97,0.82c-0.76,0-1.42-0.28-1.97-0.82
		C135.99,237.43,135.71,236.77,135.71,236.01"/>
	<polygon class="st9" points="164.35,228.18 164.35,229.19 158.48,229.19 158.48,243.83 157.26,243.83 157.26,229.19 151.39,229.19 
		151.39,228.18 	"/>
	<path class="st9" d="M172.66,234.54l-0.64,1.03c-0.86-0.78-1.55-1.18-2.07-1.18c-1.03,0-2.13,0.98-3.31,2.96v6.47h-1.1v-10.3h1.1
		v2.71h0.05c1.23-1.94,2.43-2.91,3.61-2.91C170.97,233.33,171.75,233.73,172.66,234.54"/>
	<path class="st9" d="M183.91,242.04v0.92c-0.95,0.71-1.64,1.07-2.08,1.07c-0.25,0-0.43-0.09-0.52-0.25
		c-0.1-0.17-0.17-0.51-0.21-1.02c-1.08,0.85-2.16,1.28-3.22,1.28c-0.78,0-1.44-0.25-1.97-0.76c-0.54-0.51-0.81-1.12-0.81-1.85
		c0-1.12,0.52-2,1.56-2.65c1.04-0.65,2.52-1.02,4.45-1.11v-1.31c0-1.4-0.76-2.1-2.28-2.1c-0.97,0-2.02,0.44-3.15,1.31v-1.13
		c1.17-0.73,2.28-1.1,3.33-1.1c0.93,0,1.7,0.23,2.31,0.69c0.6,0.46,0.91,1.12,0.91,2v6.42c0,0.35,0.08,0.53,0.25,0.53
		C182.66,242.96,183.15,242.65,183.91,242.04 M181.09,241.79v-3.21c-1.41-0.05-2.58,0.2-3.51,0.74c-0.93,0.55-1.4,1.25-1.4,2.1
		c0,0.48,0.19,0.88,0.58,1.21c0.39,0.33,0.87,0.5,1.46,0.5C179.16,243.12,180.12,242.68,181.09,241.79"/>
	<path class="st9" d="M188.52,233.52v1.79h0.04c0.86-1.33,1.99-1.99,3.4-1.99c1.16,0,2.09,0.37,2.79,1.12
		c0.69,0.74,1.04,1.78,1.04,3.1v6.28h-1.1v-5.87c0-2.37-0.93-3.56-2.8-3.56c-1.37,0-2.49,0.73-3.37,2.21v7.22h-1.1v-10.3H188.52z"/>
	<path class="st9" d="M206.28,234.2v1.19c-1.05-0.7-1.99-1.05-2.82-1.05c-0.62,0-1.14,0.17-1.57,0.5c-0.43,0.33-0.64,0.75-0.64,1.24
		c0,0.35,0.13,0.67,0.39,0.97c0.26,0.3,0.97,0.67,2.14,1.12c1.17,0.45,1.93,0.92,2.29,1.41s0.54,1.03,0.54,1.62
		c0,0.8-0.33,1.47-0.98,2.02c-0.65,0.55-1.45,0.82-2.41,0.82c-1.04,0-2.07-0.31-3.09-0.94v-1.08c1.22,0.63,2.3,0.94,3.24,0.94
		c0.63,0,1.15-0.17,1.56-0.5c0.41-0.34,0.61-0.76,0.61-1.29c0-0.36-0.13-0.69-0.4-0.99c-0.27-0.3-0.98-0.68-2.15-1.15
		c-1.17-0.46-1.93-0.92-2.27-1.37c-0.35-0.46-0.52-0.96-0.52-1.51c0-0.78,0.32-1.45,0.97-2c0.64-0.55,1.43-0.82,2.36-0.82
		C204.37,233.32,205.29,233.62,206.28,234.2"/>
	<path class="st9" d="M211.8,233.53v0.58c1.04-0.53,2.07-0.78,3.1-0.78c1.46,0,2.67,0.5,3.64,1.51c0.96,1.01,1.44,2.28,1.44,3.81
		c0,1.51-0.5,2.78-1.49,3.82c-0.99,1.04-2.21,1.56-3.64,1.56c-0.99,0-2.01-0.26-3.06-0.77v5.85h-1.1v-15.58H211.8z M211.8,235.16
		v7.02c0.93,0.51,1.88,0.77,2.84,0.77c1.23,0,2.23-0.39,2.99-1.17c0.76-0.78,1.14-1.79,1.14-3.06c0-1.25-0.4-2.29-1.21-3.11
		c-0.81-0.82-1.83-1.23-3.06-1.23C213.63,234.4,212.73,234.65,211.8,235.16"/>
	<path class="st9" d="M232.55,242.04v0.92c-0.95,0.71-1.64,1.07-2.08,1.07c-0.26,0-0.43-0.09-0.53-0.25
		c-0.1-0.17-0.17-0.51-0.21-1.02c-1.08,0.85-2.16,1.28-3.22,1.28c-0.78,0-1.44-0.25-1.97-0.76c-0.54-0.51-0.81-1.12-0.81-1.85
		c0-1.12,0.52-2,1.56-2.65c1.04-0.65,2.52-1.02,4.45-1.11v-1.31c0-1.4-0.76-2.1-2.28-2.1c-0.97,0-2.02,0.44-3.15,1.31v-1.13
		c1.16-0.73,2.27-1.1,3.33-1.1c0.93,0,1.7,0.23,2.31,0.69c0.6,0.46,0.91,1.12,0.91,2v6.42c0,0.35,0.08,0.53,0.25,0.53
		C231.29,242.96,231.78,242.65,232.55,242.04 M229.73,241.79v-3.21c-1.41-0.05-2.58,0.2-3.51,0.74c-0.93,0.55-1.4,1.25-1.4,2.1
		c0,0.48,0.2,0.88,0.58,1.21c0.39,0.33,0.87,0.5,1.46,0.5C227.8,243.12,228.76,242.68,229.73,241.79"/>
	<path class="st9" d="M243.19,234.54l-0.64,1.03c-0.86-0.78-1.55-1.18-2.07-1.18c-1.03,0-2.13,0.98-3.31,2.96v6.47h-1.1v-10.3h1.1
		v2.71h0.05c1.23-1.94,2.43-2.91,3.61-2.91C241.5,233.33,242.29,233.73,243.19,234.54"/>
	<path class="st9" d="M254.42,238.3h-8.12c-0.02,0.18-0.03,0.36-0.03,0.54c0,1.15,0.41,2.12,1.23,2.92c0.82,0.8,1.79,1.2,2.91,1.2
		c1.31,0,2.58-0.51,3.83-1.54v1.24c-1.18,0.91-2.5,1.37-3.96,1.37c-1.49,0-2.71-0.52-3.68-1.55c-0.97-1.03-1.46-2.34-1.46-3.93
		c0-1.51,0.45-2.76,1.35-3.75c0.89-0.99,2.02-1.48,3.38-1.48c1.28,0,2.35,0.45,3.23,1.34C253.98,235.55,254.42,236.77,254.42,238.3
		 M246.45,237.41h6.67c-0.39-2.01-1.48-3.01-3.26-3.01c-0.84,0-1.58,0.26-2.19,0.79C247.06,235.71,246.65,236.45,246.45,237.41"/>
	<path class="st9" d="M259.67,233.52v1.79h0.04c0.86-1.33,1.99-1.99,3.4-1.99c1.16,0,2.09,0.37,2.79,1.12
		c0.69,0.74,1.04,1.78,1.04,3.1v6.28h-1.1v-5.87c0-2.37-0.93-3.56-2.8-3.56c-1.37,0-2.49,0.73-3.37,2.21v7.22h-1.1v-10.3H259.67z"/>
	<path class="st9" d="M273.79,230.11v3.41h2.89v0.9h-2.89v6.13c0,0.98,0.08,1.63,0.24,1.94c0.16,0.31,0.59,0.47,1.3,0.47
		c0.54,0,1.16-0.17,1.88-0.51v1.05c-0.72,0.35-1.43,0.52-2.13,0.52c-0.68,0-1.25-0.19-1.7-0.58c-0.46-0.39-0.68-0.92-0.68-1.61
		v-7.41h-2.78v-0.9h2.78v-2.45l0.75-0.96H273.79z"/>
	<path class="st9" d="M290.47,236.01c0-0.77,0.28-1.43,0.83-1.98c0.55-0.55,1.21-0.82,1.97-0.82c0.76,0,1.42,0.27,1.97,0.82
		c0.55,0.55,0.83,1.21,0.83,1.98c0,0.76-0.28,1.42-0.83,1.96c-0.55,0.55-1.21,0.82-1.97,0.82c-0.76,0-1.42-0.28-1.97-0.82
		C290.75,237.43,290.47,236.77,290.47,236.01"/>
	<rect x="311.07" y="228.18" class="st9" width="1.21" height="15.64"/>
	<path class="st9" d="M318.51,233.52v1.79h0.04c0.86-1.33,1.99-1.99,3.4-1.99c1.16,0,2.09,0.37,2.79,1.12
		c0.69,0.74,1.04,1.78,1.04,3.1v6.28h-1.1v-5.87c0-2.37-0.93-3.56-2.8-3.56c-1.37,0-2.49,0.73-3.37,2.21v7.22h-1.1v-10.3H318.51z"/>
	<path class="st9" d="M337.88,233.83v1.22c-0.98-0.43-1.88-0.65-2.68-0.65c-1.15,0-2.09,0.4-2.8,1.2c-0.72,0.8-1.08,1.84-1.08,3.11
		c0,1.3,0.36,2.33,1.08,3.1c0.72,0.76,1.68,1.15,2.89,1.15c0.88,0,1.8-0.2,2.77-0.59v1.14c-1.03,0.35-1.98,0.52-2.86,0.52
		c-1.51,0-2.73-0.48-3.66-1.43c-0.93-0.96-1.39-2.21-1.39-3.76c0-1.62,0.47-2.94,1.41-3.97c0.94-1.03,2.13-1.54,3.59-1.54
		C335.94,233.33,336.85,233.49,337.88,233.83"/>
	<rect x="342.3" y="228.18" class="st9" width="1.11" height="15.64"/>
	<path class="st9" d="M355.65,243.83v-1.7h-0.04c-0.48,0.68-0.97,1.18-1.48,1.47c-0.5,0.29-1.14,0.44-1.92,0.44
		c-1.1,0-2.02-0.36-2.74-1.08c-0.72-0.72-1.09-1.73-1.09-3.05v-6.38h1.1v6.36c0,0.96,0.26,1.7,0.78,2.25
		c0.52,0.54,1.2,0.82,2.04,0.82c0.72,0,1.33-0.16,1.83-0.49c0.5-0.33,1.01-0.9,1.52-1.7v-7.24h1.1v10.3H355.65z"/>
	<path class="st9" d="M367.24,234.2v1.19c-1.05-0.7-1.99-1.05-2.82-1.05c-0.62,0-1.14,0.17-1.57,0.5c-0.43,0.33-0.64,0.75-0.64,1.24
		c0,0.35,0.13,0.67,0.39,0.97c0.26,0.3,0.97,0.67,2.14,1.12c1.17,0.45,1.93,0.92,2.29,1.41c0.36,0.49,0.54,1.03,0.54,1.62
		c0,0.8-0.33,1.47-0.98,2.02c-0.65,0.55-1.45,0.82-2.41,0.82c-1.04,0-2.07-0.31-3.09-0.94v-1.08c1.22,0.63,2.3,0.94,3.24,0.94
		c0.63,0,1.15-0.17,1.56-0.5c0.41-0.34,0.61-0.76,0.61-1.29c0-0.36-0.13-0.69-0.4-0.99c-0.27-0.3-0.98-0.68-2.15-1.15
		c-1.17-0.46-1.93-0.92-2.27-1.37c-0.35-0.46-0.52-0.96-0.52-1.51c0-0.78,0.32-1.45,0.97-2c0.64-0.55,1.43-0.82,2.36-0.82
		C365.33,233.32,366.25,233.62,367.24,234.2"/>
	<path class="st9" d="M372.93,230.06h-1.11v-1.88h1.11V230.06z M372.93,243.83h-1.11v-10.3h1.11V243.83z"/>
	<polygon class="st9" points="386.28,233.52 381.84,244.03 381.18,244.03 376.48,233.52 377.6,233.52 381.48,242.2 385.21,233.52 	
		"/>
	<path class="st9" d="M398.07,238.3h-8.12c-0.02,0.18-0.03,0.36-0.03,0.54c0,1.15,0.41,2.12,1.23,2.92c0.82,0.8,1.79,1.2,2.91,1.2
		c1.31,0,2.58-0.51,3.83-1.54v1.24c-1.18,0.91-2.5,1.37-3.96,1.37c-1.49,0-2.71-0.52-3.68-1.55c-0.97-1.03-1.46-2.34-1.46-3.93
		c0-1.51,0.45-2.76,1.35-3.75c0.89-0.99,2.02-1.48,3.38-1.48c1.28,0,2.35,0.45,3.23,1.34C397.63,235.55,398.07,236.77,398.07,238.3
		 M390.1,237.41h6.67c-0.39-2.01-1.47-3.01-3.26-3.01c-0.84,0-1.58,0.26-2.19,0.79C390.71,235.71,390.3,236.45,390.1,237.41"/>
	<g>
		<defs>
			<rect id="SVGID_21_" x="284.47" y="209.72" width="115.53" height="1.43"/>
		</defs>
		<clipPath id="SVGID_22_">
			<use xlink:href="#SVGID_21_"  style="overflow:visible;"/>
		</clipPath>
		
			<linearGradient id="SVGID_23_" gradientUnits="userSpaceOnUse" x1="-100.0469" y1="544.2675" x2="-96.7239" y2="544.2675" gradientTransform="matrix(34.7664 0 0 -34.7664 3762.7419 19132.6523)">
			<stop  offset="0" style="stop-color:#2F3677"/>
			<stop  offset="0.51" style="stop-color:#4671A5"/>
			<stop  offset="1" style="stop-color:#60BDEB"/>
		</linearGradient>
		<rect x="284.47" y="209.72" class="st10" width="115.53" height="1.43"/>
	</g>
	<g>
		<defs>
			<rect id="SVGID_24_" x="160.61" y="209.72" width="115.53" height="1.43"/>
		</defs>
		<clipPath id="SVGID_25_">
			<use xlink:href="#SVGID_24_"  style="overflow:visible;"/>
		</clipPath>
		
			<linearGradient id="SVGID_26_" gradientUnits="userSpaceOnUse" x1="-102.5374" y1="544.2675" x2="-99.2145" y2="544.2675" gradientTransform="matrix(34.7664 0 0 -34.7664 3725.4658 19132.6523)">
			<stop  offset="0" style="stop-color:#5D9942"/>
			<stop  offset="0.51" style="stop-color:#A1BC4C"/>
			<stop  offset="1" style="stop-color:#F2ED6C"/>
		</linearGradient>
		<rect x="160.61" y="209.72" class="st11" width="115.52" height="1.43"/>
	</g>
	<g>
		<defs>
			<rect id="SVGID_27_" x="35.96" y="209.72" width="115.52" height="1.43"/>
		</defs>
		<clipPath id="SVGID_28_">
			<use xlink:href="#SVGID_27_"  style="overflow:visible;"/>
		</clipPath>
		
			<linearGradient id="SVGID_29_" gradientUnits="userSpaceOnUse" x1="-105.0437" y1="544.2675" x2="-101.7208" y2="544.2675" gradientTransform="matrix(34.7664 0 0 -34.7664 3687.9551 19132.6523)">
			<stop  offset="0" style="stop-color:#E9372F"/>
			<stop  offset="0.51" style="stop-color:#F3703A"/>
			<stop  offset="1" style="stop-color:#F79D53"/>
		</linearGradient>
		<rect x="35.96" y="209.72" class="st12" width="115.53" height="1.43"/>
	</g>
</g>
</svg>
