<?xml version="1.0" encoding="UTF-8"?>
<svg version="1.1" xmlns="http://www.w3.org/2000/svg" width="138" height="71">
<path d="M0 0 C3.35334021 0.03015594 4.25722863 0.31701789 7.25 2.1875 C9.25 4.3125 9.25 4.3125 9.25 6.3125 C10.9 5.9825 12.55 5.6525 14.25 5.3125 C14.394375 4.673125 14.53875 4.03375 14.6875 3.375 C15.25 1.3125 15.25 1.3125 16.25 0.3125 C23.30882353 -0.27573529 23.30882353 -0.27573529 27.25 2.1875 C29.25 4.3125 29.25 4.3125 29.25 6.3125 C31.89 6.3125 34.53 6.3125 37.25 6.3125 C37.25 7.6325 37.25 8.9525 37.25 10.3125 C36.26 10.3125 35.27 10.3125 34.25 10.3125 C34.25 11.6325 34.25 12.9525 34.25 14.3125 C32.27 14.6425 30.29 14.9725 28.25 15.3125 C28.91 15.9725 29.57 16.6325 30.25 17.3125 C30.25 16.6525 30.25 15.9925 30.25 15.3125 C31.9 15.3125 33.55 15.3125 35.25 15.3125 C35.25 18.9425 35.25 22.5725 35.25 26.3125 C33.826875 26.374375 32.40375 26.43625 30.9375 26.5 C29.73673828 26.55220703 29.73673828 26.55220703 28.51171875 26.60546875 C25.72254598 26.24417694 25.08776076 25.35617233 23.25 23.3125 C22.26 22.9825 21.27 22.6525 20.25 22.3125 C19.92 22.9725 19.59 23.6325 19.25 24.3125 C16.28 24.3125 13.31 24.3125 10.25 24.3125 C10.25 22.0025 10.25 19.6925 10.25 17.3125 C9.26 17.6425 8.27 17.9725 7.25 18.3125 C7.91 18.9725 8.57 19.6325 9.25 20.3125 C8.875 22.4375 8.875 22.4375 8.25 24.3125 C6.5 24.25 6.5 24.25 4.25 23.3125 C2.65498463 21.07085678 1.50456982 18.77683357 0.25 16.3125 C-0.08 18.9525 -0.41 21.5925 -0.75 24.3125 C-2.4 24.3125 -4.05 24.3125 -5.75 24.3125 C-5.75 20.0225 -5.75 15.7325 -5.75 11.3125 C-6.41 10.9825 -7.07 10.6525 -7.75 10.3125 C-7.75 8.9925 -7.75 7.6725 -7.75 6.3125 C-7.09 6.3125 -6.43 6.3125 -5.75 6.3125 C-5.605625 5.508125 -5.46125 4.70375 -5.3125 3.875 C-4.43670172 -0.11474774 -4.34092337 0.36174361 0 0 Z M-1.75 4.3125 C-1.75 4.9725 -1.75 5.6325 -1.75 6.3125 C0.23 6.3125 2.21 6.3125 4.25 6.3125 C3.59 5.6525 2.93 4.9925 2.25 4.3125 C0.93 4.3125 -0.39 4.3125 -1.75 4.3125 Z M18.25 4.3125 C18.25 4.9725 18.25 5.6325 18.25 6.3125 C20.23 6.3125 22.21 6.3125 24.25 6.3125 C23.59 5.6525 22.93 4.9925 22.25 4.3125 C20.93 4.3125 19.61 4.3125 18.25 4.3125 Z M2.25 10.3125 C3.24 11.7975 3.24 11.7975 4.25 13.3125 C4.25 12.3225 4.25 11.3325 4.25 10.3125 C3.59 10.3125 2.93 10.3125 2.25 10.3125 Z M8.25 10.3125 C8.25 11.3025 8.25 12.2925 8.25 13.3125 C8.91 13.3125 9.57 13.3125 10.25 13.3125 C10.25 12.3225 10.25 11.3325 10.25 10.3125 C9.59 10.3125 8.93 10.3125 8.25 10.3125 Z M19.25 10.3125 C19.25 11.9625 19.25 13.6125 19.25 15.3125 C22.13575819 14.91446439 23.07189513 14.52240931 25 12.25 C25.4125 11.610625 25.825 10.97125 26.25 10.3125 C23.94 10.3125 21.63 10.3125 19.25 10.3125 Z " fill="#000000" transform="translate(68.75,12.6875)"/>
<path d="M0 0 C14.52 0 29.04 0 44 0 C44 1.32 44 2.64 44 4 C43.34 4.33 42.68 4.66 42 5 C42 9.29 42 13.58 42 18 C40.35 18 38.7 18 37 18 C37.01160156 17.07316406 37.02320313 16.14632812 37.03515625 15.19140625 C37.04417969 13.99386719 37.05320313 12.79632813 37.0625 11.5625 C37.07410156 10.36753906 37.08570313 9.17257813 37.09765625 7.94140625 C37.33901792 5.11126659 37.33901792 5.11126659 36 4 C36 8.62 36 13.24 36 18 C34.68 18 33.36 18 32 18 C31.67 16.02 31.34 14.04 31 12 C30.01 12 29.02 12 28 12 C28 11.01 28 10.02 28 9 C27.34 9 26.68 9 26 9 C27.3089572 12.12197478 27.3089572 12.12197478 30 14 C30 15.32 30 16.64 30 18 C27.02545866 17.67842796 25.40664722 17.37860258 23.1875 15.3125 C21.67295123 12.36311555 21.71523582 10.2747881 22 7 C22.33 6.34 22.66 5.68 23 5 C22.34 4.67 21.68 4.34 21 4 C21 8.62 21 13.24 21 18 C19.68 18 18.36 18 17 18 C17 13.38 17 8.76 17 4 C16.34 4 15.68 4 15 4 C15 8.62 15 13.24 15 18 C13.68 18 12.36 18 11 18 C10.67 15.69 10.34 13.38 10 11 C10 11.99 10 12.98 10 14 C10 15.32 10 16.64 10 18 C8.35 17.67 6.7 17.34 5 17 C4.67 16.01 4.34 15.02 4 14 C3.01 13.67 2.02 13.34 1 13 C1 11.68 1 10.36 1 9 C1.66 8.67 2.32 8.34 3 8 C2.67 6.68 2.34 5.36 2 4 C1.34 4 0.68 4 0 4 C0 2.68 0 1.36 0 0 Z M29 4 C29.66 4.66 30.32 5.32 31 6 C31.33 5.34 31.66 4.68 32 4 C31.01 4 30.02 4 29 4 Z " fill="#000000" transform="translate(11,19)"/>
<path d="M0 0 C1.65 0 3.3 0 5 0 C5.33 1.32 5.66 2.64 6 4 C6.61875 4.04125 7.2375 4.0825 7.875 4.125 C8.57625 4.41375 9.2775 4.7025 10 5 C11.25 8.0625 11.25 8.0625 12 11 C12 10.01 12 9.02 12 8 C12.33 7.01 12.66 6.02 13 5 C15.8125 4.375 15.8125 4.375 19 4 C22 6 22 6 23 9 C23.2165625 8.0409375 23.2165625 8.0409375 23.4375 7.0625 C24 5 24 5 25 4 C27.4375 3.8125 27.4375 3.8125 30 4 C32.76223278 6.76223278 32.57856291 9.20706617 33 13 C33 8.71 33 4.42 33 0 C34.65 0 36.3 0 38 0 C38.495 5.445 38.495 5.445 39 11 C39 10.01 39 9.02 39 8 C39.33 7.01 39.66 6.02 40 5 C45.44736842 3.66842105 45.44736842 3.66842105 47.875 5.125 C49.33224895 7.55374826 49.13976937 9.20461253 49 12 C49.495 13.485 49.495 13.485 50 15 C33.5 15 17 15 0 15 C0 10.05 0 5.1 0 0 Z M43 6 C44 8 44 8 44 8 Z M5 7 C5 9.31 5 11.62 5 14 C5.33 14 5.66 14 6 14 C6.33 11.69 6.66 9.38 7 7 C6.34 7 5.68 7 5 7 Z M27 10 C28 12 28 12 28 12 Z M16 11 C17 13 17 13 17 13 Z M43 11 C44 13 44 13 44 13 Z " fill="#000000" transform="translate(24,41)"/>
<path d="M0 0 C1.98 0 3.96 0 6 0 C6.33 4.29 6.66 8.58 7 13 C7 8.71 7 4.42 7 0 C8.65 0 10.3 0 12 0 C12.33 1.32 12.66 2.64 13 4 C13.639375 4.12375 14.27875 4.2475 14.9375 4.375 C15.9584375 4.684375 15.9584375 4.684375 17 5 C18.4783226 7.95664519 18.06032783 10.74229737 18 14 C18.66 14 19.32 14 20 14 C19.87431641 12.98679687 19.87431641 12.98679687 19.74609375 11.953125 C19.64425781 11.06109375 19.54242188 10.1690625 19.4375 9.25 C19.33308594 8.36828125 19.22867188 7.4865625 19.12109375 6.578125 C19.00543324 4.11567549 19.26361305 2.33461936 20 0 C21.32 0.33 22.64 0.66 24 1 C24.495 7.93 24.495 7.93 25 15 C21.04857454 15.06883128 17.09867368 15.1285718 13.14697266 15.16479492 C11.14080626 15.18732251 9.13483474 15.2254357 7.12890625 15.26367188 C5.87207031 15.27333984 4.61523438 15.28300781 3.3203125 15.29296875 C1.57645264 15.31653442 1.57645264 15.31653442 -0.20263672 15.34057617 C-1.1257666 15.22818604 -2.04889648 15.1157959 -3 15 C-5 12 -5 12 -4.75 8.9375 C-4 6 -4 6 -2 4 C-1.01 4 -0.02 4 1 4 C1.33 3.34 1.66 2.68 2 2 C1.34 2 0.68 2 0 2 C0 1.34 0 0.68 0 0 Z M0 6 C0 8.31 0 10.62 0 13 C0.66 12.67 1.32 12.34 2 12 C2 10.35 2 8.7 2 7 C1.34 6.67 0.68 6.34 0 6 Z M12 7 C12 9.31 12 11.62 12 14 C12.33 14 12.66 14 13 14 C13 11.69 13 9.38 13 7 C12.67 7 12.34 7 12 7 Z " fill="#000000" transform="translate(113,41)"/>
<path d="M0 0 C2.01822917 0.06510417 4.03645833 0.13020833 6.0546875 0.1953125 C6.3846875 1.1853125 6.7146875 2.1753125 7.0546875 3.1953125 C7.3846875 2.2053125 7.7146875 1.2153125 8.0546875 0.1953125 C9.3746875 0.5253125 10.6946875 0.8553125 12.0546875 1.1953125 C12.5496875 8.1253125 12.5496875 8.1253125 13.0546875 15.1953125 C10.7446875 15.1953125 8.4346875 15.1953125 6.0546875 15.1953125 C6.3846875 12.2253125 6.7146875 9.2553125 7.0546875 6.1953125 C6.0646875 6.1953125 5.0746875 6.1953125 4.0546875 6.1953125 C3.3946875 5.2053125 2.7346875 4.2153125 2.0546875 3.1953125 C1.0646875 2.8653125 0.0746875 2.5353125 -0.9453125 2.1953125 C1.31209373 4.53056032 3.3352636 6.38236323 6.0546875 8.1953125 C6.3671875 10.6953125 6.3671875 10.6953125 6.0546875 13.1953125 C4.0546875 15.1953125 4.0546875 15.1953125 1.890625 15.390625 C0.67246094 15.35582031 0.67246094 15.35582031 -0.5703125 15.3203125 C-1.38757813 15.30226563 -2.20484375 15.28421875 -3.046875 15.265625 C-3.67335938 15.24242187 -4.29984375 15.21921875 -4.9453125 15.1953125 C-4.9453125 13.2153125 -4.9453125 11.2353125 -4.9453125 9.1953125 C-4.2853125 9.1953125 -3.6253125 9.1953125 -2.9453125 9.1953125 C-2.6153125 10.1853125 -2.2853125 11.1753125 -1.9453125 12.1953125 C-0.2953125 12.5253125 1.3546875 12.8553125 3.0546875 13.1953125 C1.67609899 10.43813548 -0.31997565 9.73209504 -2.9453125 8.1953125 C-3.6053125 7.5353125 -4.2653125 6.8753125 -4.9453125 6.1953125 C-4.53127117 2.88298187 -3.68015042 0.36949301 0 0 Z " fill="#000000" transform="translate(83.9453125,40.8046875)"/>
<path d="M0 0 C2.01822917 0.06510417 4.03645833 0.13020833 6.0546875 0.1953125 C6.0546875 2.86197917 6.0546875 5.52864583 6.0546875 8.1953125 C6.2609375 8.8346875 6.4671875 9.4740625 6.6796875 10.1328125 C7.0546875 12.1953125 7.0546875 12.1953125 5.0546875 15.1953125 C2.890625 15.48828125 2.890625 15.48828125 0.4296875 15.3828125 C-0.38757813 15.35574219 -1.20484375 15.32867187 -2.046875 15.30078125 C-2.67335938 15.26597656 -3.29984375 15.23117188 -3.9453125 15.1953125 C-3.9453125 13.2153125 -3.9453125 11.2353125 -3.9453125 9.1953125 C-1.4703125 11.1753125 -1.4703125 11.1753125 1.0546875 13.1953125 C1.3846875 12.5353125 1.7146875 11.8753125 2.0546875 11.1953125 C1.0646875 10.6384375 0.0746875 10.0815625 -0.9453125 9.5078125 C-3.9453125 7.1953125 -3.9453125 7.1953125 -4.4453125 4.5703125 C-3.82806526 1.63838812 -3.10817598 0.31206586 0 0 Z M0.0546875 2.1953125 C0.0546875 3.1853125 0.0546875 4.1753125 0.0546875 5.1953125 C2.0346875 5.6903125 2.0346875 5.6903125 4.0546875 6.1953125 C3.3946875 4.8753125 2.7346875 3.5553125 2.0546875 2.1953125 C1.3946875 2.1953125 0.7346875 2.1953125 0.0546875 2.1953125 Z " fill="#000000" transform="translate(16.9453125,40.8046875)"/>
<path d="M0 0 C1.65 0 3.3 0 5 0 C5.33 4.95 5.66 9.9 6 15 C2.7 15 -0.6 15 -4 15 C-5.39935013 12.20129973 -5.25265405 10.09501208 -5 7 C-3.6875 5.125 -3.6875 5.125 -2 4 C-1.01 4 -0.02 4 1 4 C0.67 2.68 0.34 1.36 0 0 Z M-1 6 C-1 8.31 -1 10.62 -1 13 C-0.34 13 0.32 13 1 13 C1 11.02 1 9.04 1 7 C0.34 6.67 -0.32 6.34 -1 6 Z " fill="#000000" transform="translate(102,41)"/>
</svg>
