<?xml version="1.0" encoding="UTF-8"?>
<svg version="1.1" xmlns="http://www.w3.org/2000/svg" width="453" height="111">
<path d="M0 0 C149.49 0 298.98 0 453 0 C453 36.63 453 73.26 453 111 C303.51 111 154.02 111 0 111 C0 74.37 0 37.74 0 0 Z " fill="#3C3B3B" transform="translate(0,0)"/>
<path d="M0 0 C0.66 0.33 1.32 0.66 2 1 C4.99842128 1.09612832 7.97356499 1.13007863 10.97219849 1.12025452 C11.91312438 1.12110894 12.85405027 1.12196337 13.82348907 1.12284368 C16.99578905 1.12449887 20.16803687 1.11897645 23.34033203 1.11352539 C25.60660806 1.1132435 27.87288418 1.11340129 30.13916016 1.1139679 C36.30827441 1.1142558 42.47736937 1.10836016 48.64647913 1.10139394 C55.08738769 1.09515928 61.52829665 1.09455651 67.96920776 1.09336853 C78.78530248 1.09060964 89.60138926 1.08435569 100.41748047 1.07543945 C111.55940719 1.06626415 122.70133198 1.05918389 133.84326172 1.05493164 C134.52974525 1.05466892 135.21622879 1.05440619 135.92351486 1.05413551 C139.36730997 1.0528305 142.81110509 1.05156678 146.25490022 1.05032361 C174.8366051 1.03995243 203.41830192 1.02206065 232 1 C232 9.25 232 17.5 232 26 C202.54675838 26.17275079 173.0934802 26.33597419 143.64010527 26.48431293 C140.16290182 26.50183464 136.68569882 26.5194447 133.20849609 26.53710938 C132.17012295 26.54238223 132.17012295 26.54238223 131.11077257 26.5477616 C119.90183354 26.60489125 108.69294641 26.66917858 97.48406212 26.736111 C85.98279946 26.80463 74.4815178 26.86530568 62.98017657 26.91914403 C56.52001903 26.9496332 50.05992466 26.9837025 43.59983444 27.02626419 C37.52116987 27.06620089 31.44253194 27.09666175 25.36378098 27.11981392 C23.13127772 27.12999476 20.89878725 27.14365581 18.66632843 27.16103554 C15.6205575 27.18422906 12.57498825 27.19495158 9.52914429 27.20254517 C8.20130985 27.21712011 8.20130985 27.21712011 6.84665048 27.2319895 C2.15600707 27.22913711 -1.58792262 26.81175053 -6 25 C-6 24.34 -6 23.68 -6 23 C-9.97754128 22.26665571 -9.97754128 22.26665571 -14 22 C-14 21.34 -14 20.68 -14 20 C-13.01 19.34 -12.02 18.68 -11 18 C-11.33 17.34 -11.66 16.68 -12 16 C-12.66 16 -13.32 16 -14 16 C-14 15.34 -14 14.68 -14 14 C-12.35 13.67 -10.7 13.34 -9 13 C-10.37485532 11.45833358 -10.37485532 11.45833358 -12 10 C-12.66 10 -13.32 10 -14 10 C-14 9.34 -14 8.68 -14 8 C-12.02 7.67 -10.04 7.34 -8 7 C-10.07553648 6.4465236 -11.84365964 6 -14 6 C-14 5.34 -14 4.68 -14 4 C-11.03 4 -8.06 4 -5 4 C-5 3.34 -5 2.68 -5 2 C-3.35 2 -1.7 2 0 2 C0 1.34 0 0.68 0 0 Z M-24 10 C-20.7 10 -17.4 10 -14 10 C-14.33 10.99 -14.66 11.98 -15 13 C-17.97 13 -20.94 13 -24 13 C-24 12.01 -24 11.02 -24 10 Z " fill="#7F7F7F" transform="translate(221,51)"/>
<path d="M0 0 C107.58 0 215.16 0 326 0 C326 6.27 326 12.54 326 19 C321.38713264 19.0154612 321.38713264 19.0154612 316.68107605 19.03123474 C288.49948376 19.12614984 260.31791323 19.2259561 232.1363575 19.33111694 C228.44499042 19.344887 224.75362319 19.35861402 221.06225586 19.37231445 C219.95989941 19.37640691 219.95989941 19.37640691 218.83527312 19.38058204 C206.92596679 19.42469219 195.01665096 19.46531372 183.10732802 19.50465261 C170.89299495 19.54507642 158.67867952 19.58923387 146.46437246 19.63687855 C138.92367916 19.66617442 131.38298721 19.69253604 123.84227095 19.71517897 C118.06618788 19.73283461 112.29013446 19.75567752 106.51407814 19.78049088 C104.14004757 19.78986866 101.76600959 19.79754131 99.39196777 19.80341911 C96.16123287 19.81166791 92.93058014 19.82594121 89.69987488 19.84178162 C88.27722274 19.84324878 88.27722274 19.84324878 86.82583016 19.84474558 C85.9629417 19.85022002 85.10005325 19.85569446 84.21101665 19.8613348 C83.46486621 19.86399284 82.71871576 19.86665089 81.94995469 19.86938947 C79.78313782 19.93222141 79.78313782 19.93222141 77 21 C74.66700175 21.03954234 72.33291811 21.04401732 70 21 C70 21.66 70 22.32 70 23 C68.68 23 67.36 23 66 23 C64.55488667 29.17457513 65.71897993 33.17323585 68 39 C68.33 39.99 68.66 40.98 69 42 C66.36 42.33 63.72 42.66 61 43 C61 43.66 61 44.32 61 45 C57.04 45 53.08 45 49 45 C48.94628323 40.5415078 48.90646229 36.08365611 48.875 31.625 C48.85824219 30.35398437 48.84148437 29.08296875 48.82421875 27.7734375 C48.81455078 25.95585938 48.81455078 25.95585938 48.8046875 24.1015625 C48.78897705 22.42054443 48.78897705 22.42054443 48.77294922 20.70556641 C49 18 49 18 51 16 C47.7 15.67 44.4 15.34 41 15 C41 14.67 41 14.34 41 14 C20.705 13.505 20.705 13.505 0 13 C0 11.35 0 9.7 0 8 C19.8 7.67 39.6 7.34 60 7 C60.99 5.02 61.98 3.04 63 1 C42.21 1 21.42 1 0 1 C0 0.67 0 0.34 0 0 Z M61 11 C61.33 11.66 61.66 12.32 62 13 C65.465 12.505 65.465 12.505 69 12 C69 11.67 69 11.34 69 11 C66.36 11 63.72 11 61 11 Z " fill="#797979" transform="translate(127,30)"/>
<path d="M0 0 C1.28275694 -0.00128164 1.28275694 -0.00128164 2.59142816 -0.00258917 C5.47351983 -0.00424386 8.35555403 0.00127725 11.23764038 0.00672913 C13.29702249 0.00701103 15.3564047 0.00685321 17.41578674 0.00628662 C23.0208702 0.00599876 28.62593241 0.01189373 34.23101091 0.01886058 C40.08334783 0.02509593 45.93568518 0.02569806 51.7880249 0.02688599 C62.87670237 0.02999876 73.96537003 0.03821144 85.05404317 0.04823548 C97.67537169 0.05939827 110.29670066 0.06490748 122.91803288 0.06993091 C148.88704161 0.08039409 174.85604162 0.0979925 200.82504272 0.12025452 C200.82504272 5.07025452 200.82504272 10.02025452 200.82504272 15.12025452 C174.80010206 15.16692776 148.77516765 15.20222039 122.7501936 15.22387886 C110.6669748 15.23420152 98.58378197 15.24828073 86.50057983 15.27113342 C75.97168613 15.29103703 65.44281123 15.30396375 54.91389924 15.30843151 C49.33638165 15.31104403 43.75891786 15.31720508 38.18141747 15.33171463 C32.93580968 15.34525071 27.69027806 15.34948523 22.44465446 15.34646988 C20.51567929 15.34702183 18.58670166 15.35102285 16.65774155 15.35866547 C14.03125953 15.36856457 11.40506796 15.36624191 8.77857971 15.36076355 C7.62440301 15.36950207 7.62440301 15.36950207 6.44690961 15.37841713 C2.68948498 15.35712292 1.03380066 15.25942648 -2.17495728 13.12025452 C-2.17495728 11.12025452 -2.17495728 11.12025452 -0.17495728 9.12025452 C-1.16495728 7.80025452 -2.15495728 6.48025452 -3.17495728 5.12025452 C-1.85495728 5.12025452 -0.53495728 5.12025452 0.82504272 5.12025452 C0.82504272 4.46025452 0.82504272 3.80025452 0.82504272 3.12025452 C-1.48495728 3.12025452 -3.79495728 3.12025452 -6.17495728 3.12025452 C-6.17495728 3.78025452 -6.17495728 4.44025452 -6.17495728 5.12025452 C-7.49495728 5.12025452 -8.81495728 5.12025452 -10.17495728 5.12025452 C-10.50495728 5.78025452 -10.83495728 6.44025452 -11.17495728 7.12025452 C-11.50495728 5.80025452 -11.83495728 4.48025452 -12.17495728 3.12025452 C-11.51495728 3.12025452 -10.85495728 3.12025452 -10.17495728 3.12025452 C-10.17495728 2.46025452 -10.17495728 1.80025452 -10.17495728 1.12025452 C-6.97767334 -0.47838745 -3.51120097 -0.01266757 0 0 Z M-2.17495728 15.12025452 C0.82504272 16.12025452 0.82504272 16.12025452 0.82504272 16.12025452 Z " fill="#7D7D7D" transform="translate(252.17495727539063,89.87974548339844)"/>
<path d="M0 0 C9.24 0 18.48 0 28 0 C27.67 0.99 27.34 1.98 27 3 C126.495 3.495 126.495 3.495 228 4 C228 4.33 228 4.66 228 5 C158.37 5.33 88.74 5.66 17 6 C17 7.32 17 8.64 17 10 C18.32 10 19.64 10 21 10 C21 9.34 21 8.68 21 8 C23.31 8 25.62 8 28 8 C28 11.63 28 15.26 28 19 C94 19.33 160 19.66 228 20 C228 21.98 228 23.96 228 26 C133.95 26 39.9 26 -57 26 C-57 24 -57 24 -55 22 C-54.75787127 20.01871492 -54.75787127 20.01871492 -54.875 17.875 C-54.936875 15.956875 -54.936875 15.956875 -55 14 C-52.69 14 -50.38 14 -48 14 C-48 13.34 -48 12.68 -48 12 C-46.35 12 -44.7 12 -43 12 C-42.67 13.32 -42.34 14.64 -42 16 C-42 15.34 -42 14.68 -42 14 C-41.360625 13.71125 -40.72125 13.4225 -40.0625 13.125 C-37.84793921 12.17176549 -37.84793921 12.17176549 -37 10 C-35.68 10 -34.36 10 -33 10 C-33 9.34 -33 8.68 -33 8 C-32.06027344 7.90912109 -32.06027344 7.90912109 -31.1015625 7.81640625 C-30.28429687 7.73261719 -29.46703125 7.64882812 -28.625 7.5625 C-27.81289062 7.48128906 -27.00078125 7.40007812 -26.1640625 7.31640625 C-23.95727195 7.10909886 -23.95727195 7.10909886 -22 6 C-22 5.34 -22 4.68 -22 4 C-17.38 3.67 -12.76 3.34 -8 3 C-8 2.67 -8 2.34 -8 2 C-5.36 2 -2.72 2 0 2 C0 1.34 0 0.68 0 0 Z " fill="#4A4A4A" transform="translate(225,85)"/>
<path d="M0 0 C0.75204712 -0.00029205 1.50409424 -0.00058411 2.27893066 -0.00088501 C4.74084401 0.0004976 7.2024468 0.01600783 9.66430664 0.03173828 C11.38065933 0.03547222 13.09701416 0.03831739 14.81336975 0.04031372 C19.3129371 0.04792019 23.81237368 0.0675428 28.31188965 0.08972168 C32.91046378 0.11024468 37.50905921 0.1193292 42.10766602 0.12939453 C51.11749811 0.15079172 60.12719912 0.18594929 69.13696289 0.22705078 C69.13696289 9.79705078 69.13696289 19.36705078 69.13696289 29.22705078 C-38.44303711 29.22705078 -146.02303711 29.22705078 -256.86303711 29.22705078 C-256.86303711 28.89705078 -256.86303711 28.56705078 -256.86303711 28.22705078 C-174.19803711 27.73205078 -174.19803711 27.73205078 -89.86303711 27.22705078 C-90.19303711 25.57705078 -90.52303711 23.92705078 -90.86303711 22.22705078 C-64.79303711 21.89705078 -38.72303711 21.56705078 -11.86303711 21.22705078 C-12.85303711 20.23705078 -12.85303711 20.23705078 -13.86303711 19.22705078 C-13.86303711 18.56705078 -13.86303711 17.90705078 -13.86303711 17.22705078 C-12.87303711 16.56705078 -11.88303711 15.90705078 -10.86303711 15.22705078 C-10.86303711 14.56705078 -10.86303711 13.90705078 -10.86303711 13.22705078 C-15.48303711 13.22705078 -20.10303711 13.22705078 -24.86303711 13.22705078 C-25.19303711 13.88705078 -25.52303711 14.54705078 -25.86303711 15.22705078 C-26.85303711 14.56705078 -27.84303711 13.90705078 -28.86303711 13.22705078 C-28.86303711 12.56705078 -28.86303711 11.90705078 -28.86303711 11.22705078 C-27.54303711 10.56705078 -26.22303711 9.90705078 -24.86303711 9.22705078 C-24.86303711 8.56705078 -24.86303711 7.90705078 -24.86303711 7.22705078 C-24.20303711 6.56705078 -23.54303711 5.90705078 -22.86303711 5.22705078 C-22.86303711 4.89705078 -22.86303711 4.56705078 -22.86303711 4.22705078 C-20.22303711 3.89705078 -17.58303711 3.56705078 -14.86303711 3.22705078 C-14.86303711 2.89705078 -14.86303711 2.56705078 -14.86303711 2.22705078 C-9.81450397 0.57280731 -5.32583601 -0.05511442 0 0 Z " fill="#7F7F7F" transform="translate(383.863037109375,-0.22705078125)"/>
<path d="M0 0 C31.02 0 62.04 0 94 0 C93.34 1.65 92.68 3.3 92 5 C91.86289782 7.64607209 91.80937028 10.17469013 91.875 12.8125 C91.88402344 13.50537109 91.89304687 14.19824219 91.90234375 14.91210938 C91.92573843 16.60822395 91.96160359 18.30415871 92 20 C81.1686597 20.02319818 70.33732534 20.04095319 59.50596523 20.05181217 C54.47621723 20.05702464 49.44648625 20.06409256 44.41674805 20.07543945 C39.56030676 20.08632649 34.70388183 20.09228916 29.84742928 20.09487724 C27.99713954 20.09672101 26.14685067 20.10032141 24.29656792 20.10573006 C21.6995642 20.11301769 19.10262758 20.11398769 16.50561523 20.11352539 C15.74532013 20.11712067 14.98502502 20.12071594 14.20169067 20.12442017 C9.70003033 20.11578229 5.44243593 19.73766948 1 19 C1 18.01 1 17.02 1 16 C-1.97 15.67 -4.94 15.34 -8 15 C-7.835 13.865625 -7.67 12.73125 -7.5 11.5625 C-7.14367797 9.28867481 -7.14367797 9.28867481 -7 7 C-1.06 6.505 -1.06 6.505 5 6 C5 5.34 5 4.68 5 4 C3.35 3.67 1.7 3.34 0 3 C0 2.01 0 1.02 0 0 Z " fill="#6A6A6A" transform="translate(150,0)"/>
<path d="M0 0 C1.01037827 0.00222061 2.02075653 0.00444122 3.06175232 0.00672913 C4.77341331 0.00684242 4.77341331 0.00684242 6.51965332 0.00695801 C7.76129745 0.01211929 9.00294159 0.01728058 10.2822113 0.02259827 C12.17785072 0.02472069 12.17785072 0.02472069 14.11178589 0.02688599 C17.47705394 0.0315487 20.84225495 0.04053972 24.20750427 0.05158997 C27.63930175 0.06180606 31.07110614 0.06638403 34.50291443 0.07142639 C41.2405633 0.08248071 47.9781803 0.09923742 54.71580505 0.12025452 C54.86146912 1.22369202 55.00713318 2.32712952 55.1572113 3.46400452 C55.6593011 6.75041043 56.42991912 9.09464056 57.71580505 12.12025452 C58.70580505 15.58525452 58.70580505 15.58525452 59.71580505 19.12025452 C54.76580505 19.78025452 49.81580505 20.44025452 44.71580505 21.12025452 C44.71580505 21.78025452 44.71580505 22.44025452 44.71580505 23.12025452 C-9.40419495 23.12025452 -63.52419495 23.12025452 -119.28419495 23.12025452 C-119.28419495 22.13025452 -119.28419495 21.14025452 -119.28419495 20.12025452 C-83.31419495 19.79025452 -47.34419495 19.46025452 -10.28419495 19.12025452 C-10.28419495 13.51025452 -10.28419495 7.90025452 -10.28419495 2.12025452 C-6.81919495 1.62525452 -6.81919495 1.62525452 -3.28419495 1.12025452 C-2.28419495 0.12025452 -2.28419495 0.12025452 0 0 Z " fill="#B1B1B1" transform="translate(246.28419494628906,-0.1202545166015625)"/>
<path d="M0 0 C1.28275694 -0.00128164 1.28275694 -0.00128164 2.59142816 -0.00258917 C5.47351983 -0.00424386 8.35555403 0.00127725 11.23764038 0.00672913 C13.29702249 0.00701103 15.3564047 0.00685321 17.41578674 0.00628662 C23.0208702 0.00599876 28.62593241 0.01189373 34.23101091 0.01886058 C40.08334783 0.02509593 45.93568518 0.02569806 51.7880249 0.02688599 C62.87670237 0.02999876 73.96537003 0.03821144 85.05404317 0.04823548 C97.67537169 0.05939827 110.29670066 0.06490748 122.91803288 0.06993091 C148.88704161 0.08039409 174.85604162 0.0979925 200.82504272 0.12025452 C200.82504272 2.43025452 200.82504272 4.74025452 200.82504272 7.12025452 C174.8173728 7.16693865 148.80970913 7.20222575 122.80200577 7.22387886 C110.72666271 7.2341992 98.65134566 7.24827401 86.57601929 7.27113342 C76.05334193 7.2910441 65.53068341 7.30396544 55.00798774 7.30843151 C49.43435063 7.31104282 43.8607674 7.31719629 38.28714752 7.33171463 C33.04399894 7.34526185 27.80092657 7.34948295 22.55776215 7.34646988 C20.63081956 7.34702132 18.7038745 7.35101575 16.77694702 7.35866547 C14.15081499 7.36858194 11.52497264 7.36623547 8.89883423 7.36076355 C8.13229594 7.36658923 7.36575764 7.37241492 6.57599092 7.37841713 C2.8370385 7.35728748 -0.00208116 7.21013484 -3.17495728 5.12025452 C-1.85495728 5.12025452 -0.53495728 5.12025452 0.82504272 5.12025452 C0.82504272 4.46025452 0.82504272 3.80025452 0.82504272 3.12025452 C-1.48495728 3.12025452 -3.79495728 3.12025452 -6.17495728 3.12025452 C-6.17495728 3.78025452 -6.17495728 4.44025452 -6.17495728 5.12025452 C-7.49495728 5.12025452 -8.81495728 5.12025452 -10.17495728 5.12025452 C-10.50495728 5.78025452 -10.83495728 6.44025452 -11.17495728 7.12025452 C-11.50495728 5.80025452 -11.83495728 4.48025452 -12.17495728 3.12025452 C-11.51495728 3.12025452 -10.85495728 3.12025452 -10.17495728 3.12025452 C-10.17495728 2.46025452 -10.17495728 1.80025452 -10.17495728 1.12025452 C-6.97767334 -0.47838745 -3.51120097 -0.01266757 0 0 Z M-1.17495728 7.12025452 C0.82504272 8.12025452 0.82504272 8.12025452 0.82504272 8.12025452 Z " fill="#979797" transform="translate(252.17495727539063,89.87974548339844)"/>
<path d="M0 0 C107.58 0 215.16 0 326 0 C326 1.65 326 3.3 326 5 C299.93102236 5.02336373 273.8620463 5.04099627 247.7930603 5.05181217 C235.6886968 5.05696773 223.5843398 5.06399637 211.47998047 5.07543945 C200.92943092 5.08540885 190.37888608 5.09185881 179.82833195 5.09408849 C174.24228901 5.09539176 168.65625956 5.09845338 163.07022095 5.10573006 C157.81065948 5.11252583 152.55111703 5.1146097 147.29155159 5.11310768 C145.36306721 5.11338241 143.43458219 5.1153664 141.50610161 5.11920547 C138.86830236 5.12419829 136.23057442 5.12297772 133.59277344 5.12025452 C132.45460662 5.12462378 132.45460662 5.12462378 131.29344654 5.12908131 C126.44846559 5.11561013 121.79796492 4.68234317 117 4 C117 3.67 117 3.34 117 3 C119.97 3 122.94 3 126 3 C126 2.34 126 1.68 126 1 C116.76 1 107.52 1 98 1 C98 2.32 98 3.64 98 5 C90.74 5 83.48 5 76 5 C76 5.66 76 6.32 76 7 C70.06 7 64.12 7 58 7 C58 5.35 58 3.7 58 2 C38.86 1.67 19.72 1.34 0 1 C0 0.67 0 0.34 0 0 Z " fill="#7C7C7C" transform="translate(127,84)"/>
<path d="M0 0 C3.03866799 -0.41137202 5.92159703 -0.13193156 9 0 C9 3.96 9 7.92 9 12 C7.68 12.33 6.36 12.66 5 13 C4.67 14.65 4.34 16.3 4 18 C5.98 18.33 7.96 18.66 10 19 C10 18.34 10 17.68 10 17 C11.32 17.33 12.64 17.66 14 18 C14 18.66 14 19.32 14 20 C11.23439328 21.38280336 9.00920474 21.12277171 5.91305542 21.12025452 C4.61452637 21.12162918 3.31599731 21.12300385 1.9781189 21.12442017 C0.53082253 21.12088077 -0.91647361 21.11724596 -2.36376953 21.11352539 C-3.8812866 21.11324345 -5.39880381 21.11340139 -6.9163208 21.1139679 C-11.04418177 21.1142556 -15.17201387 21.10836326 -19.29986811 21.10139394 C-23.61070771 21.09515587 -27.92154793 21.09455624 -32.23239136 21.09336853 C-40.39925322 21.09025656 -48.56610174 21.08204496 -56.73295772 21.07201904 C-66.02907692 21.06085376 -75.32519674 21.05534641 -84.62132096 21.05032361 C-103.74755488 21.03986224 -122.87377637 21.02226538 -142 21 C-142 18.69 -142 16.38 -142 14 C-79.135 13.505 -79.135 13.505 -15 13 C-15 10.03 -15 7.06 -15 4 C-13.62714844 3.94392578 -13.62714844 3.94392578 -12.2265625 3.88671875 C-11.03804687 3.82097656 -9.84953125 3.75523438 -8.625 3.6875 C-7.44164062 3.62949219 -6.25828125 3.57148437 -5.0390625 3.51171875 C-4.03617188 3.34285156 -3.03328125 3.17398438 -2 3 C-1.34 2.01 -0.68 1.02 0 0 Z " fill="#7B7B7B" transform="translate(142,90)"/>
<path d="M0 0 C107.58 0 215.16 0 326 0 C326 0.33 326 0.66 326 1 C245.15 1 164.3 1 81 1 C78.85537969 9.11420063 78.85537969 9.11420063 79 14 C79 14.33 79 14.66 79 15 C77.35 15 75.7 15 74 15 C74.495 17.97 74.495 17.97 75 21 C73.35 21 71.7 21 70 21 C70 21.66 70 22.32 70 23 C68.68 23 67.36 23 66 23 C64.55488667 29.17457513 65.71897993 33.17323585 68 39 C68.33 39.99 68.66 40.98 69 42 C66.36 42.33 63.72 42.66 61 43 C61 43.66 61 44.32 61 45 C57.04 45 53.08 45 49 45 C48.94628323 40.5415078 48.90646229 36.08365611 48.875 31.625 C48.85824219 30.35398437 48.84148437 29.08296875 48.82421875 27.7734375 C48.81455078 25.95585938 48.81455078 25.95585938 48.8046875 24.1015625 C48.78897705 22.42054443 48.78897705 22.42054443 48.77294922 20.70556641 C49 18 49 18 51 16 C47.7 15.67 44.4 15.34 41 15 C41 14.67 41 14.34 41 14 C20.705 13.505 20.705 13.505 0 13 C0 11.35 0 9.7 0 8 C19.8 7.67 39.6 7.34 60 7 C60.99 5.02 61.98 3.04 63 1 C42.21 1 21.42 1 0 1 C0 0.67 0 0.34 0 0 Z M61 11 C61.33 11.66 61.66 12.32 62 13 C65.465 12.505 65.465 12.505 69 12 C69 11.67 69 11.34 69 11 C66.36 11 63.72 11 61 11 Z M86 8 C86 8.66 86 9.32 86 10 C86.66 10.33 87.32 10.66 88 11 C85.36 11 82.72 11 80 11 C80 10.34 80 9.68 80 9 C82 8 82 8 86 8 Z " fill="#B3B3B3" transform="translate(127,30)"/>
<path d="M0 0 C0.81025222 -0.00085442 1.62050443 -0.00170885 2.45530975 -0.00258917 C5.1853877 -0.00424356 7.91540495 0.00127675 10.64547729 0.00672913 C12.59648639 0.00701103 14.5474956 0.0068532 16.49850464 0.00628662 C21.80814345 0.00599878 27.11775985 0.01189334 32.42739344 0.01886058 C37.97143091 0.02509635 43.51546884 0.02569809 49.05950928 0.02688599 C59.56382355 0.02999864 70.06812746 0.03821114 80.57243717 0.04823548 C92.52872384 0.05939865 104.485011 0.06490758 116.44130158 0.06993091 C141.04175523 0.08039381 165.64219967 0.09799198 190.24264526 0.12025452 C190.24264526 1.77025452 190.24264526 3.42025452 190.24264526 5.12025452 C164.07005001 5.16691679 137.89746096 5.20221498 111.72483253 5.22387886 C99.57320391 5.23420386 87.42160108 5.24828751 75.26998901 5.27113342 C64.68214125 5.29102991 54.09431218 5.30396204 43.50644624 5.30843151 C37.8971026 5.31104525 32.28781242 5.31721393 26.67848587 5.33171463 C21.40415416 5.3452395 16.12989817 5.34948754 10.85555077 5.34646988 C8.91486767 5.34702234 6.97418217 5.35102999 5.03351402 5.35866547 C2.39354531 5.36854709 -0.24613364 5.36624842 -2.8861084 5.36076355 C-3.66236332 5.36658923 -4.43861825 5.37241492 -5.23839605 5.37841713 C-10.52911231 5.34849694 -10.52911231 5.34849694 -12.75735474 3.12025452 C-11.76735474 3.12025452 -10.77735474 3.12025452 -9.75735474 3.12025452 C-9.75735474 2.46025452 -9.75735474 1.80025452 -9.75735474 1.12025452 C-6.66170554 -0.42757008 -3.39687803 -0.01294114 0 0 Z " fill="#969696" transform="translate(262.7573547363281,105.87974548339844)"/>
<path d="M0 0 C3.64165643 0.01045293 7.28332051 0.01484334 10.92498779 0.01983643 C17.99922429 0.03038302 25.07343115 0.04731994 32.14764404 0.06866455 C32.14764404 0.39866455 32.14764404 0.72866455 32.14764404 1.06866455 C30.99135498 1.10733643 30.99135498 1.10733643 29.81170654 1.14678955 C28.80881592 1.2035083 27.80592529 1.26022705 26.77264404 1.31866455 C25.77490967 1.3650708 24.77717529 1.41147705 23.74920654 1.45928955 C21.02437141 1.80066002 21.02437141 1.80066002 19.73358154 3.99053955 C18.88557534 6.10549041 18.88557534 6.10549041 20.14764404 8.06866455 C16.84764404 8.06866455 13.54764404 8.06866455 10.14764404 8.06866455 C10.14764404 8.72866455 10.14764404 9.38866455 10.14764404 10.06866455 C8.82764404 10.06866455 7.50764404 10.06866455 6.14764404 10.06866455 C6.14764404 10.72866455 6.14764404 11.38866455 6.14764404 12.06866455 C7.46764404 12.72866455 8.78764404 13.38866455 10.14764404 14.06866455 C7.17764404 14.06866455 4.20764404 14.06866455 1.14764404 14.06866455 C1.14764404 14.72866455 1.14764404 15.38866455 1.14764404 16.06866455 C-0.17235596 15.73866455 -1.49235596 15.40866455 -2.85235596 15.06866455 C-2.85235596 14.40866455 -2.85235596 13.74866455 -2.85235596 13.06866455 C-3.51235596 12.73866455 -4.17235596 12.40866455 -4.85235596 12.06866455 C-4.95548096 12.68741455 -5.05860596 13.30616455 -5.16485596 13.94366455 C-5.85235596 16.06866455 -5.85235596 16.06866455 -8.85235596 18.06866455 C-9.58200962 20.63149197 -9.58200962 20.63149197 -9.85235596 23.06866455 C-11.17235596 23.39866455 -12.49235596 23.72866455 -13.85235596 24.06866455 C-13.85235596 24.72866455 -13.85235596 25.38866455 -13.85235596 26.06866455 C-18.47235596 26.06866455 -23.09235596 26.06866455 -27.85235596 26.06866455 C-27.85235596 25.07866455 -27.85235596 24.08866455 -27.85235596 23.06866455 C-28.51235596 22.73866455 -29.17235596 22.40866455 -29.85235596 22.06866455 C-29.85235596 22.72866455 -29.85235596 23.38866455 -29.85235596 24.06866455 C-33.15235596 24.06866455 -36.45235596 24.06866455 -39.85235596 24.06866455 C-40.18235596 23.07866455 -40.51235596 22.08866455 -40.85235596 21.06866455 C-40.08923096 20.98616455 -39.32610596 20.90366455 -38.53985596 20.81866455 C-35.75550627 20.27869803 -35.75550627 20.27869803 -33.97735596 18.19366455 C-33.60610596 17.49241455 -33.23485596 16.79116455 -32.85235596 16.06866455 C-33.62874916 12.99412895 -33.62874916 12.99412895 -35.85235596 11.06866455 C-34.20235596 11.06866455 -32.55235596 11.06866455 -30.85235596 11.06866455 C-31.03798096 10.28491455 -31.22360596 9.50116455 -31.41485596 8.69366455 C-31.85235596 6.06866455 -31.85235596 6.06866455 -30.85235596 4.06866455 C-31.84235596 3.73866455 -32.83235596 3.40866455 -33.85235596 3.06866455 C-34.18235596 3.39866455 -34.51235596 3.72866455 -34.85235596 4.06866455 C-36.85193959 4.10947238 -38.8528085 4.11120811 -40.85235596 4.06866455 C-40.85235596 3.40866455 -40.85235596 2.74866455 -40.85235596 2.06866455 C-45.47235596 2.06866455 -50.09235596 2.06866455 -54.85235596 2.06866455 C-54.85235596 1.73866455 -54.85235596 1.40866455 -54.85235596 1.06866455 C-36.56414602 0.0798477 -18.30764601 -0.05835986 0 0 Z M-41.85235596 4.06866455 C-41.52235596 4.72866455 -41.19235596 5.38866455 -40.85235596 6.06866455 C-45.47235596 6.06866455 -50.09235596 6.06866455 -54.85235596 6.06866455 C-54.85235596 5.73866455 -54.85235596 5.40866455 -54.85235596 5.06866455 C-48.41735596 4.57366455 -48.41735596 4.57366455 -41.85235596 4.06866455 Z " fill="#5F5F5F" transform="translate(181.85235595703125,84.93133544921875)"/>
<path d="M0 0 C0.73511307 0.00359528 1.47022614 0.00719055 2.22761536 0.01089478 C2.99829346 0.01074875 3.76897156 0.01060272 4.56300354 0.01045227 C7.12237823 0.01115157 9.68168104 0.01894471 12.24104309 0.02676392 C14.01081299 0.02862804 15.7805834 0.03005197 17.550354 0.03105164 C22.2176505 0.03487728 26.88491607 0.04470796 31.55220032 0.05575562 C36.31110719 0.06596873 41.07001905 0.07054904 45.82893372 0.07559204 C55.17334837 0.08633019 64.51774004 0.10340717 73.86213684 0.12442017 C73.86213684 2.10442017 73.86213684 4.08442017 73.86213684 6.12442017 C-33.71786316 6.12442017 -141.29786316 6.12442017 -252.13786316 6.12442017 C-252.13786316 5.79442017 -252.13786316 5.46442017 -252.13786316 5.12442017 C-169.47286316 4.62942017 -169.47286316 4.62942017 -85.13786316 4.12442017 C-85.46786316 3.13442017 -85.79786316 2.14442017 -86.13786316 1.12442017 C-84.63782494 1.12775108 -84.63782494 1.12775108 -83.10748291 1.13114929 C-73.70417976 1.15138085 -64.30088101 1.16639237 -54.89756107 1.17623234 C-50.06269489 1.18146113 -45.22784622 1.18855871 -40.39299011 1.19985962 C-35.73109196 1.21068863 -31.0692107 1.21669703 -26.40730095 1.21929741 C-24.62462027 1.22115163 -22.84194057 1.22477219 -21.05926704 1.23015022 C-18.57120355 1.23736085 -16.08321073 1.2384111 -13.59513855 1.23794556 C-12.47844284 1.24333847 -12.47844284 1.24333847 -11.33918762 1.24884033 C-7.13698213 1.24027612 -4.19620086 0.00866001 0 0 Z " fill="#B7B7B7" transform="translate(379.1378631591797,22.875579833984375)"/>
<path d="M0 0 C1.22244667 0.00333092 1.22244667 0.00333092 2.46958923 0.00672913 C3.85090782 0.00684242 3.85090782 0.00684242 5.26013184 0.00695801 C6.2611644 0.01211929 7.26219696 0.01728058 8.29356384 0.02259827 C9.31316696 0.02401321 10.33277008 0.02542816 11.38327026 0.02688599 C14.65417867 0.03250355 17.92501972 0.04505902 21.19590759 0.05775452 C23.40749515 0.06276725 25.61908377 0.06733055 27.83067322 0.07142639 C33.26494116 0.08247868 38.69916957 0.09923389 44.13340759 0.12025452 C43.60747009 1.04837952 43.60747009 1.04837952 43.07090759 1.99525452 C42.76153259 2.69650452 42.45215759 3.39775452 42.13340759 4.12025452 C42.62840759 5.11025452 42.62840759 5.11025452 43.13340759 6.12025452 C35.21340759 6.61525452 35.21340759 6.61525452 27.13340759 7.12025452 C26.80340759 9.43025452 26.47340759 11.74025452 26.13340759 14.12025452 C27.12340759 13.46025452 28.11340759 12.80025452 29.13340759 12.12025452 C32.48887634 11.92494202 32.48887634 11.92494202 36.32090759 11.99525452 C37.59321228 12.01330139 38.86551697 12.03134827 40.17637634 12.04994202 C41.15219666 12.07314514 42.12801697 12.09634827 43.13340759 12.12025452 C43.25840759 16.87025452 43.25840759 16.87025452 42.13340759 19.12025452 C39.03599792 20.2265308 36.07891959 20.24155335 32.81407166 20.23377991 C31.75327393 20.23370438 30.6924762 20.23362885 29.59953308 20.23355103 C27.89153534 20.2258091 27.89153534 20.2258091 26.14903259 20.21791077 C24.978302 20.21649582 23.80757141 20.21508087 22.60136414 20.21362305 C18.8620193 20.20802541 15.12273433 20.19547332 11.38340759 20.18275452 C8.84825221 20.17773921 6.31309588 20.17317636 3.77793884 20.16908264 C-2.43692798 20.15805675 -8.65175004 20.1407937 -14.86659241 20.12025452 C-14.86659241 15.83025452 -14.86659241 11.54025452 -14.86659241 7.12025452 C-12.88659241 6.79025452 -10.90659241 6.46025452 -8.86659241 6.12025452 C-8.86659241 5.79025452 -8.86659241 5.46025452 -8.86659241 5.12025452 C-5.40159241 4.62525452 -5.40159241 4.62525452 -1.86659241 4.12025452 C-2.19659241 3.13025452 -2.52659241 2.14025452 -2.86659241 1.12025452 C-1.86659241 0.12025452 -1.86659241 0.12025452 0 0 Z " fill="#4F4F4F" transform="translate(331.86659240722656,-0.1202545166015625)"/>
<path d="M0 0 C16.17 0 32.34 0 49 0 C48.34 1.65 47.68 3.3 47 5 C46.65514842 9.59802102 47.55078342 13.65235025 49 18 C49.66 18.66 50.32 19.32 51 20 C45.00431618 20.02480236 39.00866254 20.04290845 33.01293945 20.05493164 C30.97517374 20.05994639 28.9374116 20.0667598 26.8996582 20.07543945 C23.96304439 20.08763052 21.02647834 20.09325702 18.08984375 20.09765625 C17.18540024 20.10281754 16.28095673 20.10797882 15.34910583 20.11329651 C10.45452139 20.1137262 5.82549889 19.8305951 1 19 C1 18.01 1 17.02 1 16 C-1.97 15.67 -4.94 15.34 -8 15 C-7.835 13.865625 -7.67 12.73125 -7.5 11.5625 C-7.14367797 9.28867481 -7.14367797 9.28867481 -7 7 C-1.06 6.505 -1.06 6.505 5 6 C5 5.34 5 4.68 5 4 C3.35 3.67 1.7 3.34 0 3 C0 2.01 0 1.02 0 0 Z " fill="#373737" transform="translate(150,0)"/>
<path d="M0 0 C1.06863281 0.01804687 2.13726562 0.03609375 3.23828125 0.0546875 C4.04652344 0.07789062 4.85476562 0.10109375 5.6875 0.125 C5.3575 1.115 5.0275 2.105 4.6875 3.125 C104.1825 3.62 104.1825 3.62 205.6875 4.125 C205.6875 4.455 205.6875 4.785 205.6875 5.125 C136.0575 5.455 66.4275 5.785 -5.3125 6.125 C-5.3125 7.445 -5.3125 8.765 -5.3125 10.125 C-3.9925 10.125 -2.6725 10.125 -1.3125 10.125 C-1.3125 9.465 -1.3125 8.805 -1.3125 8.125 C0.9975 8.125 3.3075 8.125 5.6875 8.125 C5.6875 11.755 5.6875 15.385 5.6875 19.125 C71.6875 19.455 137.6875 19.785 205.6875 20.125 C205.6875 20.455 205.6875 20.785 205.6875 21.125 C106.6875 21.62 106.6875 21.62 5.6875 22.125 C5.3575 23.445 5.0275 24.765 4.6875 26.125 C2.0475 26.125 -0.5925 26.125 -3.3125 26.125 C-3.3125 25.135 -3.3125 24.145 -3.3125 23.125 C-3.9725 22.795 -4.6325 22.465 -5.3125 22.125 C-5.3125 22.785 -5.3125 23.445 -5.3125 24.125 C-8.30582739 23.1272242 -9.26016315 22.3727975 -11.3125 20.125 C-11.3125 20.785 -11.3125 21.445 -11.3125 22.125 C-12.3025 21.795 -13.2925 21.465 -14.3125 21.125 C-16.19485294 12.88970588 -16.19485294 12.88970588 -14.3125 9.125 C-17.2825 8.63 -17.2825 8.63 -20.3125 8.125 C-20.3125 7.795 -20.3125 7.465 -20.3125 7.125 C-19.37277344 7.03412109 -19.37277344 7.03412109 -18.4140625 6.94140625 C-17.18816406 6.81572266 -17.18816406 6.81572266 -15.9375 6.6875 C-15.12539062 6.60628906 -14.31328125 6.52507812 -13.4765625 6.44140625 C-11.26977195 6.23409886 -11.26977195 6.23409886 -9.3125 5.125 C-9.9725 4.795 -10.6325 4.465 -11.3125 4.125 C-11.3125 3.465 -11.3125 2.805 -11.3125 2.125 C-7.38392246 0.27368517 -4.32474888 -0.09504943 0 0 Z M-11.3125 16.125 C-11.3125 16.785 -11.3125 17.445 -11.3125 18.125 C-9.6625 17.795 -8.0125 17.465 -6.3125 17.125 C-6.3125 16.795 -6.3125 16.465 -6.3125 16.125 C-7.9625 16.125 -9.6125 16.125 -11.3125 16.125 Z M-12.3125 4.125 C-11.9825 4.785 -11.6525 5.445 -11.3125 6.125 C-14.2825 6.125 -17.2525 6.125 -20.3125 6.125 C-20.3125 5.795 -20.3125 5.465 -20.3125 5.125 C-17.6725 4.795 -15.0325 4.465 -12.3125 4.125 Z " fill="#111111" transform="translate(247.3125,84.875)"/>
<path d="M0 0 C81.18 0 162.36 0 246 0 C246 0.99 246 1.98 246 3 C169.77 3.33 93.54 3.66 15 4 C14.67 3.34 14.34 2.68 14 2 C9.38 2 4.76 2 0 2 C0 1.34 0 0.68 0 0 Z M-2 2 C0 3 0 3 0 3 Z " fill="#525252" transform="translate(207,49)"/>
<path d="M0 0 C14.85 0 29.7 0 45 0 C45 0.33 45 0.66 45 1 C63.03048984 1.89285995 81.01221876 2.12600248 99.0625 2.0625 C101.59830639 2.05746574 104.13411377 2.0529063 106.66992188 2.04882812 C112.77997011 2.03799629 118.88998015 2.02141651 125 2 C125 3.65 125 5.3 125 7 C83.75 7 42.5 7 0 7 C0 4.69 0 2.38 0 0 Z " fill="#958C8B" transform="translate(0,0)"/>
<path d="M0 0 C1.35611813 0.00502686 2.71223808 0.00958766 4.06835938 0.01367188 C7.35811994 0.02537921 10.64778594 0.04177789 13.9375 0.0625 C13.61225342 0.84044922 13.28700684 1.61839844 12.9519043 2.41992188 C10.92045774 7.71195017 11.58044775 13.63429098 12.9375 19.0625 C12.9375 19.3925 12.9375 19.7225 12.9375 20.0625 C-1.2525 20.0625 -15.4425 20.0625 -30.0625 20.0625 C-30.0625 16.4325 -30.0625 12.8025 -30.0625 9.0625 C-28.7425 9.0625 -27.4225 9.0625 -26.0625 9.0625 C-26.0625 8.4025 -26.0625 7.7425 -26.0625 7.0625 C-25.4025 6.4025 -24.7425 5.7425 -24.0625 5.0625 C-24.0625 3.7425 -24.0625 2.4225 -24.0625 1.0625 C-16.02742265 -0.05764799 -8.10320923 -0.05191805 0 0 Z " fill="#1A1A1A" transform="translate(276.0625,-0.0625)"/>
<path d="M0 0 C41.25 0 82.5 0 125 0 C125 1.65 125 3.3 125 5 C83.75 5 42.5 5 0 5 C0 3.35 0 1.7 0 0 Z " fill="#9A9190" transform="translate(0,72)"/>
<path d="M0 0 C41.25 0 82.5 0 125 0 C125 1.65 125 3.3 125 5 C83.75 5 42.5 5 0 5 C0 3.35 0 1.7 0 0 Z " fill="#876B69" transform="translate(0,38)"/>
<path d="M0 0 C41.25 0 82.5 0 125 0 C125 1.65 125 3.3 125 5 C83.75 5 42.5 5 0 5 C0 3.35 0 1.7 0 0 Z " fill="#967C7A" transform="translate(0,32)"/>
<path d="M0 0 C41.25 0 82.5 0 125 0 C125 1.65 125 3.3 125 5 C83.75 5 42.5 5 0 5 C0 3.35 0 1.7 0 0 Z " fill="#918887" transform="translate(0,90)"/>
<path d="M0 0 C41.25 0 82.5 0 125 0 C125 1.65 125 3.3 125 5 C83.75 5 42.5 5 0 5 C0 3.35 0 1.7 0 0 Z " fill="#9C8E8D" transform="translate(0,52)"/>
<path d="M0 0 C9.57 0 19.14 0 29 0 C29.495 1.485 29.495 1.485 30 3 C31.64639965 4.35827971 33.31295807 5.69254251 35 7 C35.495 7.99 35.495 7.99 36 9 C32.7 9.33 29.4 9.66 26 10 C27.21044132 14.60742865 27.21044132 14.60742865 29 19 C50.78 19.495 50.78 19.495 73 20 C73 20.33 73 20.66 73 21 C46.27 21 19.54 21 -8 21 C-8 20.67 -8 20.34 -8 20 C-4.535 19.505 -4.535 19.505 -1 19 C-1 18.02417969 -1 17.04835938 -1 16.04296875 C-1 2 -1 2 0 0 Z " fill="#A1A1A1" transform="translate(301,0)"/>
<path d="M0 0 C0.75204712 -0.00029205 1.50409424 -0.00058411 2.27893066 -0.00088501 C4.74084401 0.0004976 7.2024468 0.01600783 9.66430664 0.03173828 C11.38065933 0.03547222 13.09701416 0.03831739 14.81336975 0.04031372 C19.3129371 0.04792019 23.81237368 0.0675428 28.31188965 0.08972168 C32.91046378 0.11024468 37.50905921 0.1193292 42.10766602 0.12939453 C51.11748884 0.1507917 60.12721496 0.1848913 69.13696289 0.22705078 C69.13696289 1.87705078 69.13696289 3.52705078 69.13696289 5.22705078 C43.72696289 5.22705078 18.31696289 5.22705078 -7.86303711 5.22705078 C-8.19303711 7.20705078 -8.52303711 9.18705078 -8.86303711 11.22705078 C-14.14303711 11.22705078 -19.42303711 11.22705078 -24.86303711 11.22705078 C-25.19303711 11.88705078 -25.52303711 12.54705078 -25.86303711 13.22705078 C-26.85303711 12.56705078 -27.84303711 11.90705078 -28.86303711 11.22705078 C-27.54303711 10.56705078 -26.22303711 9.90705078 -24.86303711 9.22705078 C-24.86303711 8.56705078 -24.86303711 7.90705078 -24.86303711 7.22705078 C-24.20303711 6.56705078 -23.54303711 5.90705078 -22.86303711 5.22705078 C-22.86303711 4.89705078 -22.86303711 4.56705078 -22.86303711 4.22705078 C-20.22303711 3.89705078 -17.58303711 3.56705078 -14.86303711 3.22705078 C-14.86303711 2.89705078 -14.86303711 2.56705078 -14.86303711 2.22705078 C-9.81450397 0.57280731 -5.32583601 -0.05511442 0 0 Z " fill="#909090" transform="translate(383.863037109375,-0.22705078125)"/>
<path d="M0 0 C107.58 0 215.16 0 326 0 C326 0.33 326 0.66 326 1 C250.76 1 175.52 1 98 1 C98 2.32 98 3.64 98 5 C90.74 5 83.48 5 76 5 C76 5.66 76 6.32 76 7 C70.06 7 64.12 7 58 7 C58 5.35 58 3.7 58 2 C38.86 1.67 19.72 1.34 0 1 C0 0.67 0 0.34 0 0 Z " fill="#DEDEDE" transform="translate(127,84)"/>
<path d="M0 0 C1.28275694 -0.00128164 1.28275694 -0.00128164 2.59142816 -0.00258917 C5.47351983 -0.00424386 8.35555403 0.00127725 11.23764038 0.00672913 C13.29702249 0.00701103 15.3564047 0.00685321 17.41578674 0.00628662 C23.0208702 0.00599876 28.62593241 0.01189373 34.23101091 0.01886058 C40.08334783 0.02509593 45.93568518 0.02569806 51.7880249 0.02688599 C62.87670237 0.02999876 73.96537003 0.03821144 85.05404317 0.04823548 C97.67537169 0.05939827 110.29670066 0.06490748 122.91803288 0.06993091 C148.88704161 0.08039409 174.85604162 0.0979925 200.82504272 0.12025452 C200.82504272 0.78025452 200.82504272 1.44025452 200.82504272 2.12025452 C132.51504272 2.45025452 64.20504272 2.78025452 -6.17495728 3.12025452 C-6.17495728 3.78025452 -6.17495728 4.44025452 -6.17495728 5.12025452 C-7.49495728 5.12025452 -8.81495728 5.12025452 -10.17495728 5.12025452 C-10.50495728 5.78025452 -10.83495728 6.44025452 -11.17495728 7.12025452 C-11.50495728 5.80025452 -11.83495728 4.48025452 -12.17495728 3.12025452 C-11.51495728 3.12025452 -10.85495728 3.12025452 -10.17495728 3.12025452 C-10.17495728 2.46025452 -10.17495728 1.80025452 -10.17495728 1.12025452 C-6.97767334 -0.47838745 -3.51120097 -0.01266757 0 0 Z " fill="#7B7B7B" transform="translate(252.17495727539063,89.87974548339844)"/>
<path d="M0 0 C1.58206057 0.00667536 3.16410534 0.0186375 4.74609375 0.03515625 C5.55240234 0.03966797 6.35871094 0.04417969 7.18945312 0.04882812 C9.18753131 0.06065107 11.18557158 0.07858711 13.18359375 0.09765625 C13.30859375 4.84765625 13.30859375 4.84765625 12.18359375 7.09765625 C8.88359375 7.09765625 5.58359375 7.09765625 2.18359375 7.09765625 C1.07412918 11.53551455 1.48353481 12.98172407 3.18359375 17.09765625 C6.16214731 20.07620981 9.47384198 19.45390809 13.47265625 19.51171875 C14.29108002 19.5310849 15.10950378 19.55045105 15.95272827 19.57040405 C18.57124351 19.63026707 21.18980256 19.67661157 23.80859375 19.72265625 C25.58205061 19.76082989 27.3554888 19.79988126 29.12890625 19.83984375 C33.4803175 19.93597396 37.83181554 20.01997976 42.18359375 20.09765625 C42.18359375 20.42765625 42.18359375 20.75765625 42.18359375 21.09765625 C-11.60640625 21.09765625 -65.39640625 21.09765625 -120.81640625 21.09765625 C-120.81640625 20.76765625 -120.81640625 20.43765625 -120.81640625 20.09765625 C-84.84640625 19.76765625 -48.87640625 19.43765625 -11.81640625 19.09765625 C-11.81640625 13.48765625 -11.81640625 7.87765625 -11.81640625 2.09765625 C-8.35140625 1.60265625 -8.35140625 1.60265625 -4.81640625 1.09765625 C-3.81640625 0.09765625 -3.81640625 0.09765625 0 0 Z " fill="#C0C0C0" transform="translate(247.81640625,-0.09765625)"/>
<path d="M0 0 C3.5 -0.1875 3.5 -0.1875 7 0 C7.66 0 8.32 0 9 0 C9.99 0 10.98 0 12 0 C12 1.65 12 3.3 12 5 C10.68 5 9.36 5 8 5 C7.08680711 12.3707712 6.91364608 19.57356288 7 27 C-0.26 27 -7.52 27 -15 27 C-15 19.41 -15 11.82 -15 4 C-12.89625 3.896875 -10.7925 3.79375 -8.625 3.6875 C-5.11610554 3.58592634 -5.11610554 3.58592634 -2 3 C-1.34 2.01 -0.68 1.02 0 0 Z " fill="#A1A1A1" transform="translate(142,48)"/>
<path d="M0 0 C3.72921526 -0.02700156 7.45823443 -0.04684022 11.1875 -0.0625 C12.77014648 -0.07506836 12.77014648 -0.07506836 14.38476562 -0.08789062 C15.91713867 -0.09272461 15.91713867 -0.09272461 17.48046875 -0.09765625 C18.41785889 -0.10289307 19.35524902 -0.10812988 20.32104492 -0.11352539 C22.98049477 -0.00082657 25.40920573 0.40623351 28 1 C28.22786458 2.953125 28.45572917 4.90625 28.68359375 6.859375 C29.01301137 9.32991923 29.01301137 9.32991923 30 13 C25.38 13.33 20.76 13.66 16 14 C22.93 14.495 22.93 14.495 30 15 C30.33 16.65 30.66 18.3 31 20 C20.6003968 20.09790421 10.35894903 20.07625444 0 19 C0 12.73 0 6.46 0 0 Z " fill="#7F7F7F" transform="translate(127,0)"/>
<path d="M0 0 C41.25 0 82.5 0 125 0 C125 0.99 125 1.98 125 3 C83.75 3 42.5 3 0 3 C0 2.01 0 1.02 0 0 Z " fill="#A49C9C" transform="translate(0,98)"/>
<path d="M0 0 C41.25 0 82.5 0 125 0 C125 0.99 125 1.98 125 3 C83.75 3 42.5 3 0 3 C0 2.01 0 1.02 0 0 Z " fill="#9E908F" transform="translate(0,86)"/>
<path d="M0 0 C41.25 0 82.5 0 125 0 C125 0.99 125 1.98 125 3 C83.75 3 42.5 3 0 3 C0 2.01 0 1.02 0 0 Z " fill="#9E908F" transform="translate(0,78)"/>
<path d="M0 0 C41.25 0 82.5 0 125 0 C125 0.99 125 1.98 125 3 C83.75 3 42.5 3 0 3 C0 2.01 0 1.02 0 0 Z " fill="#9D8D8C" transform="translate(0,44)"/>
<path d="M0 0 C41.25 0 82.5 0 125 0 C125 0.99 125 1.98 125 3 C83.75 3 42.5 3 0 3 C0 2.01 0 1.02 0 0 Z " fill="#98807F" transform="translate(0,28)"/>
<path d="M0 0 C41.25 0 82.5 0 125 0 C125 0.99 125 1.98 125 3 C83.75 3 42.5 3 0 3 C0 2.01 0 1.02 0 0 Z " fill="#9B8786" transform="translate(0,12)"/>
<path d="M0 0 C41.25 0 82.5 0 125 0 C125 0.99 125 1.98 125 3 C83.75 3 42.5 3 0 3 C0 2.01 0 1.02 0 0 Z " fill="#9E9190" transform="translate(0,82)"/>
<path d="M0 0 C41.25 0 82.5 0 125 0 C125 0.99 125 1.98 125 3 C83.75 3 42.5 3 0 3 C0 2.01 0 1.02 0 0 Z " fill="#A49E9D" transform="translate(0,58)"/>
<path d="M0 0 C41.25 0 82.5 0 125 0 C125 0.99 125 1.98 125 3 C83.75 3 42.5 3 0 3 C0 2.01 0 1.02 0 0 Z " fill="#9D8E8D" transform="translate(0,48)"/>
<path d="M0 0 C41.25 0 82.5 0 125 0 C125 0.99 125 1.98 125 3 C83.75 3 42.5 3 0 3 C0 2.01 0 1.02 0 0 Z " fill="#967D7C" transform="translate(0,20)"/>
<path d="M0 0 C41.25 0 82.5 0 125 0 C125 0.99 125 1.98 125 3 C83.75 3 42.5 3 0 3 C0 2.01 0 1.02 0 0 Z " fill="#9A8785" transform="translate(0,16)"/>
<path d="M0 0 C41.25 0 82.5 0 125 0 C125 0.99 125 1.98 125 3 C83.75 3 42.5 3 0 3 C0 2.01 0 1.02 0 0 Z " fill="#9A8684" transform="translate(0,8)"/>
<path d="M0 0 C41.25 0 82.5 0 125 0 C125 0.99 125 1.98 125 3 C83.75 3 42.5 3 0 3 C0 2.01 0 1.02 0 0 Z " fill="#A39A9A" transform="translate(0,62)"/>
<path d="M0 0 C5.00860026 0.01351849 9.78592529 0.06878959 14.70703125 1.1328125 C13.80962985 7.67102268 12.57014407 13.79822892 10.70703125 20.1328125 C-0.81460884 20.31732275 -0.81460884 20.31732275 -6.29296875 19.1328125 C-6.29296875 18.1428125 -6.29296875 17.1528125 -6.29296875 16.1328125 C-8.93296875 15.8028125 -11.57296875 15.4728125 -14.29296875 15.1328125 C-14.29296875 10.8428125 -14.29296875 6.5528125 -14.29296875 2.1328125 C-10.04492188 1.79101562 -10.04492188 1.79101562 -5.796875 1.44921875 C-3.05093243 1.10222757 -2.7030512 0.15656515 0 0 Z " fill="#575757" transform="translate(201.29296875,-0.1328125)"/>
<path d="M0 0 C41.25 0 82.5 0 125 0 C125 0.99 125 1.98 125 3 C83.75 3 42.5 3 0 3 C0 2.01 0 1.02 0 0 Z " fill="#957F7D" transform="translate(0,24)"/>
<path d="M0 0 C0.99 0.33 1.98 0.66 3 1 C3 3.64 3 6.28 3 9 C1.35 9 -0.3 9 -2 9 C-2 9.66 -2 10.32 -2 11 C-0.35 10.67 1.3 10.34 3 10 C3 12.31 3 14.62 3 17 C1.35 17 -0.3 17 -2 17 C-2 17.66 -2 18.32 -2 19 C-3.98 19 -5.96 19 -8 19 C-8.66 17.02 -9.32 15.04 -10 13 C-10.33 13 -10.66 13 -11 13 C-12.14820544 16.44461631 -11.81315918 17.25418522 -10.625 20.5625 C-10.34914062 21.34753906 -10.07328125 22.13257812 -9.7890625 22.94140625 C-9.03093872 25.01934231 -9.03093872 25.01934231 -8 27 C-11.96 27 -15.92 27 -20 27 C-20 22.71 -20 18.42 -20 14 C-18.68 13.67 -17.36 13.34 -16 13 C-15.29925156 9.846632 -15 7.27275026 -15 4 C-15 3.34 -15 2.68 -15 2 C-14.08476562 1.93941406 -13.16953125 1.87882812 -12.2265625 1.81640625 C-10.44378906 1.69072266 -10.44378906 1.69072266 -8.625 1.5625 C-7.44164062 1.48128906 -6.25828125 1.40007813 -5.0390625 1.31640625 C-2.08481099 1.18915064 -2.08481099 1.18915064 0 0 Z M-20 6 C-18.68 6.33 -17.36 6.66 -16 7 C-16 7.66 -16 8.32 -16 9 C-17.32 8.67 -18.64 8.34 -20 8 C-20 7.34 -20 6.68 -20 6 Z M-20 10 C-18.68 10.33 -17.36 10.66 -16 11 C-16 11.66 -16 12.32 -16 13 C-17.32 12.67 -18.64 12.34 -20 12 C-20 11.34 -20 10.68 -20 10 Z " fill="#575757" transform="translate(171,48)"/>
<path d="M0 0 C1.39456452 0.00667256 2.78911118 0.01863093 4.18359375 0.03515625 C4.89451172 0.03966797 5.60542969 0.04417969 6.33789062 0.04882812 C8.09899388 0.06064761 9.86005411 0.07858362 11.62109375 0.09765625 C11.62109375 1.08765625 11.62109375 2.07765625 11.62109375 3.09765625 C13.44369673 5.26742171 15.22920376 6.50306293 17.62109375 8.09765625 C14.59375 8.34179688 14.59375 8.34179688 11.56640625 8.5859375 C9.22590159 8.97158661 9.22590159 8.97158661 7.62109375 12.09765625 C8.28109375 12.75765625 8.94109375 13.41765625 9.62109375 14.09765625 C10.28109375 16.07765625 10.94109375 18.05765625 11.62109375 20.09765625 C2.38109375 20.09765625 -6.85890625 20.09765625 -16.37890625 20.09765625 C-16.37890625 15.80765625 -16.37890625 11.51765625 -16.37890625 7.09765625 C-14.39890625 6.76765625 -12.41890625 6.43765625 -10.37890625 6.09765625 C-10.37890625 5.76765625 -10.37890625 5.43765625 -10.37890625 5.09765625 C-6.91390625 4.60265625 -6.91390625 4.60265625 -3.37890625 4.09765625 C-3.70890625 3.10765625 -4.03890625 2.11765625 -4.37890625 1.09765625 C-3.37890625 0.09765625 -3.37890625 0.09765625 0 0 Z " fill="#111111" transform="translate(333.37890625,-0.09765625)"/>
<path d="M0 0 C3.03866799 -0.41137202 5.92159703 -0.13193156 9 0 C9 3.96 9 7.92 9 12 C7.68 12.33 6.36 12.66 5 13 C5 13.66 5 14.32 5 15 C-43.51 15 -92.02 15 -142 15 C-142 14.67 -142 14.34 -142 14 C-79.135 13.505 -79.135 13.505 -15 13 C-15 10.03 -15 7.06 -15 4 C-13.62714844 3.94392578 -13.62714844 3.94392578 -12.2265625 3.88671875 C-11.03804687 3.82097656 -9.84953125 3.75523438 -8.625 3.6875 C-7.44164062 3.62949219 -6.25828125 3.57148437 -5.0390625 3.51171875 C-4.03617188 3.34285156 -3.03328125 3.17398438 -2 3 C-1.34 2.01 -0.68 1.02 0 0 Z " fill="#C0C0C0" transform="translate(142,90)"/>
<path d="M0 0 C26.73 0 53.46 0 81 0 C81 5 81 5 80 7 C53.6 7 27.2 7 0 7 C-1 2 -1 2 0 0 Z " fill="#000000" transform="translate(291,21)"/>
<path d="M0 0 C6.93 0 13.86 0 21 0 C17.85714286 13.85714286 17.85714286 13.85714286 16 20 C10.84828377 20.09038099 6.08086796 19.84681133 1 19 C1 18.01 1 17.02 1 16 C-1.97 15.67 -4.94 15.34 -8 15 C-7.835 13.865625 -7.67 12.73125 -7.5 11.5625 C-7.14367797 9.28867481 -7.14367797 9.28867481 -7 7 C-1.06 6.505 -1.06 6.505 5 6 C5 5.34 5 4.68 5 4 C3.35 3.67 1.7 3.34 0 3 C0 2.01 0 1.02 0 0 Z " fill="#484848" transform="translate(150,0)"/>
<path d="M0 0 C1.98 0.495 1.98 0.495 4 1 C4 1.66 4 2.32 4 3 C1.23439328 4.38280336 -0.99079526 4.12277171 -4.08694458 4.12025452 C-5.38547363 4.12162918 -6.68400269 4.12300385 -8.0218811 4.12442017 C-9.46917747 4.12088077 -10.91647361 4.11724596 -12.36376953 4.11352539 C-13.8812866 4.11324345 -15.39880381 4.11340139 -16.9163208 4.1139679 C-21.04418177 4.1142556 -25.17201387 4.10836326 -29.29986811 4.10139394 C-33.61070771 4.09515587 -37.92154793 4.09455624 -42.23239136 4.09336853 C-50.39925322 4.09025656 -58.56610174 4.08204496 -66.73295772 4.07201904 C-76.02907692 4.06085376 -85.32519674 4.05534641 -94.62132096 4.05032361 C-113.74755488 4.03986224 -132.87377637 4.02226538 -152 4 C-152 3.34 -152 2.68 -152 2 C-101.84 2 -51.68 2 0 2 C0 1.34 0 0.68 0 0 Z " fill="#757575" transform="translate(152,107)"/>
<path d="M0 0 C0.89589844 0.00322266 1.79179687 0.00644531 2.71484375 0.00976562 C4.12056641 0.02233398 4.12056641 0.02233398 5.5546875 0.03515625 C6.49957031 0.03966797 7.44445312 0.04417969 8.41796875 0.04882812 C10.75527137 0.06063268 13.09244811 0.07709866 15.4296875 0.09765625 C15.0996875 1.08765625 14.7696875 2.07765625 14.4296875 3.09765625 C13.4396875 3.09765625 12.4496875 3.09765625 11.4296875 3.09765625 C11.4296875 2.43765625 11.4296875 1.77765625 11.4296875 1.09765625 C9.1196875 1.09765625 6.8096875 1.09765625 4.4296875 1.09765625 C4.4296875 5.71765625 4.4296875 10.33765625 4.4296875 15.09765625 C2.4496875 16.08765625 2.4496875 16.08765625 0.4296875 17.09765625 C1.4196875 17.75765625 2.4096875 18.41765625 3.4296875 19.09765625 C-5.4803125 19.09765625 -14.3903125 19.09765625 -23.5703125 19.09765625 C-22.2503125 18.10765625 -20.9303125 17.11765625 -19.5703125 16.09765625 C-18.8278125 15.37578125 -18.0853125 14.65390625 -17.3203125 13.91015625 C-13.50127979 11.39306651 -11.07924832 11.79196569 -6.5703125 12.09765625 C-9.2103125 11.76765625 -11.8503125 11.43765625 -14.5703125 11.09765625 C-14.5703125 10.10765625 -14.5703125 9.11765625 -14.5703125 8.09765625 C-10.1153125 7.60265625 -10.1153125 7.60265625 -5.5703125 7.09765625 C-8.5403125 7.09765625 -11.5103125 7.09765625 -14.5703125 7.09765625 C-14.9003125 5.44765625 -15.2303125 3.79765625 -15.5703125 2.09765625 C-14.63058594 2.00677734 -14.63058594 2.00677734 -13.671875 1.9140625 C-12.85460937 1.83027344 -12.03734375 1.74648437 -11.1953125 1.66015625 C-10.38320312 1.57894531 -9.57109375 1.49773437 -8.734375 1.4140625 C-5.53998513 0.94701272 -3.35466925 -0.02123208 0 0 Z M6.4296875 2.09765625 C9.80431465 2.64489308 11.5120375 3.15255625 14.4296875 5.09765625 C13.1096875 5.09765625 11.7896875 5.09765625 10.4296875 5.09765625 C10.4296875 5.75765625 10.4296875 6.41765625 10.4296875 7.09765625 C9.1096875 6.76765625 7.7896875 6.43765625 6.4296875 6.09765625 C6.4296875 4.77765625 6.4296875 3.45765625 6.4296875 2.09765625 Z " fill="#929292" transform="translate(209.5703125,91.90234375)"/>
<path d="M0 0 C41.25 0 82.5 0 125 0 C125 0.99 125 1.98 125 3 C112.09808202 3.02335376 99.19616923 3.04103088 86.29423428 3.05181217 C80.30088482 3.05699127 74.30755001 3.06399647 68.31420898 3.07543945 C62.51105166 3.08644773 56.70790826 3.09231409 50.90474129 3.09487724 C48.71041711 3.09669965 46.51609354 3.10025663 44.32177544 3.10573006 C29.52033038 3.14112158 14.78176227 2.7748656 0 2 C0 1.34 0 0.68 0 0 Z " fill="#867473" transform="translate(0,38)"/>
<path d="M0 0 C11.01694975 -0.02353479 22.03389318 -0.04111863 33.05086327 -0.05181217 C38.17063685 -0.05695355 43.29039281 -0.0638843 48.41015625 -0.07543945 C73.29395065 -0.13015442 98.13228531 0.05168871 123 1 C123 1.33 123 1.66 123 2 C96.1218842 2.8489598 69.27345543 3.13404876 42.38287354 3.06866455 C37.57361319 3.05815285 32.76434682 3.05380947 27.95507812 3.04882812 C18.63670402 3.03832673 9.31835498 3.0214262 0 3 C0 2.01 0 1.02 0 0 Z " fill="#8D8584" transform="translate(0,66)"/>
<path d="M0 0 C41.25 0 82.5 0 125 0 C122.15378178 2.84621822 120.21109394 2.31600713 116.2109375 2.4140625 C115.47612656 2.43347397 114.74131561 2.45288544 113.98423767 2.47288513 C111.44794699 2.5349991 108.91165908 2.58057785 106.375 2.625 C105.4908139 2.64368134 104.60662781 2.66236267 103.69564819 2.68161011 C69.1421388 3.4049805 34.55888454 3.08463306 0 3 C0 2.01 0 1.02 0 0 Z " fill="#888080" transform="translate(0,72)"/>
<path d="M0 0 C2.57287554 0.03023844 5.14576612 0.05664846 7.71869278 0.08213425 C11.80481271 0.12345544 15.89065723 0.17550844 19.97653389 0.23622131 C21.50168555 0.25758068 23.02688558 0.27574295 24.55211449 0.29059601 C26.64878874 0.31199311 28.74489758 0.34576664 30.84134293 0.38294601 C32.02449081 0.39928589 33.2076387 0.41562576 34.42663956 0.43246078 C37.19144058 0.71766281 37.19144058 0.71766281 39.19144058 2.71766281 C-2.05855942 2.71766281 -43.30855942 2.71766281 -85.80855942 2.71766281 C-85.80855942 2.05766281 -85.80855942 1.39766281 -85.80855942 0.71766281 C-57.19736172 -0.2401705 -28.62129441 -0.34958573 0 0 Z " fill="#7B7272" transform="translate(85.80855941772461,54.2823371887207)"/>
<path d="M0 0 C41.25 0 82.5 0 125 0 C122.4604732 2.5395268 121.47509105 2.30070024 117.94287109 2.42944336 C116.29818344 2.49102379 116.29818344 2.49102379 114.62026978 2.55384827 C112.7779628 2.60260353 112.7779628 2.60260353 110.8984375 2.65234375 C108.93685196 2.71034401 108.93685196 2.71034401 106.93563843 2.76951599 C87.23946073 3.28454004 67.52608061 2.87250534 47.82879639 2.60510254 C42.41717544 2.53314141 37.00546054 2.46910184 31.59375 2.40429688 C21.06239674 2.27706637 10.53117199 2.14139462 0 2 C0 1.34 0 0.68 0 0 Z " fill="#736260" transform="translate(0,32)"/>
<path d="M0 0 C0.74886475 0.00523682 1.49772949 0.01047363 2.26928711 0.01586914 C3.07817383 0.0190918 3.88706055 0.02231445 4.72045898 0.02563477 C5.5705957 0.03401367 6.42073242 0.04239258 7.29663086 0.05102539 C8.15063477 0.05553711 9.00463867 0.06004883 9.88452148 0.06469727 C12.00108749 0.07652166 14.11761771 0.0944577 16.23413086 0.11352539 C15.90799805 0.84571289 15.58186523 1.57790039 15.24584961 2.33227539 C13.28178236 7.7315645 13.8546532 13.59561476 15.23413086 19.11352539 C15.23413086 19.44352539 15.23413086 19.77352539 15.23413086 20.11352539 C8.96413086 20.11352539 2.69413086 20.11352539 -3.76586914 20.11352539 C-3.76586914 15.49352539 -3.76586914 10.87352539 -3.76586914 6.11352539 C-3.10586914 6.11352539 -2.44586914 6.11352539 -1.76586914 6.11352539 C-2.04430664 4.90696289 -2.04430664 4.90696289 -2.32836914 3.67602539 C-2.47274414 2.83040039 -2.61711914 1.98477539 -2.76586914 1.11352539 C-1.76586914 0.11352539 -1.76586914 0.11352539 0 0 Z " fill="#0C0C0C" transform="translate(273.765869140625,-0.113525390625)"/>
<path d="M0 0 C1.21469971 -0.00193359 2.42939941 -0.00386719 3.6809082 -0.00585938 C4.98374756 -0.00134766 6.28658691 0.00316406 7.62890625 0.0078125 C8.94012451 0.00974609 10.25134277 0.01167969 11.60229492 0.01367188 C21.49413725 0.05744916 31.32837214 0.39341503 41.19140625 1.1328125 C40.86140625 2.1228125 40.53140625 3.1128125 40.19140625 4.1328125 C39.21558594 4.19339844 38.23976562 4.25398438 37.234375 4.31640625 C35.96207031 4.40019531 34.68976563 4.48398437 33.37890625 4.5703125 C32.11433594 4.65152344 30.84976563 4.73273437 29.546875 4.81640625 C26.19958732 5.00465797 26.19958732 5.00465797 23.19140625 6.1328125 C20.95913725 6.04663524 18.72902139 5.89359009 16.50390625 5.6953125 C15.32441406 5.59347656 14.14492187 5.49164063 12.9296875 5.38671875 C12.02605469 5.30292969 11.12242187 5.21914063 10.19140625 5.1328125 C9.86140625 5.7928125 9.53140625 6.4528125 9.19140625 7.1328125 C9.19140625 6.1428125 9.19140625 5.1528125 9.19140625 4.1328125 C6.11687065 4.9092057 6.11687065 4.9092057 4.19140625 7.1328125 C4.19140625 6.1428125 4.19140625 5.1528125 4.19140625 4.1328125 C1.84828495 4.38842573 -0.48702778 4.72552022 -2.80859375 5.1328125 C-3.13859375 5.7928125 -3.46859375 6.4528125 -3.80859375 7.1328125 C-8.42859375 7.1328125 -13.04859375 7.1328125 -17.80859375 7.1328125 C-17.80859375 5.4828125 -17.80859375 3.8328125 -17.80859375 2.1328125 C-17.02613281 2.07222656 -16.24367187 2.01164062 -15.4375 1.94921875 C-14.42558594 1.86542969 -13.41367188 1.78164063 -12.37109375 1.6953125 C-11.36175781 1.61410156 -10.35242188 1.53289063 -9.3125 1.44921875 C-5.84381182 1.01089778 -3.86929295 0.00398515 0 0 Z " fill="#383838" transform="translate(144.80859375,43.8671875)"/>
<path d="M0 0 C1.03253906 0.00676758 1.03253906 0.00676758 2.0859375 0.01367188 C3.76566335 0.02533664 5.44534375 0.04326729 7.125 0.0625 C6.79886719 0.8359375 6.47273438 1.609375 6.13671875 2.40625 C4.09368175 7.77020815 5.35917866 12.76503599 7.125 18.0625 C7.785 18.7225 8.445 19.3825 9.125 20.0625 C1.865 20.0625 -5.395 20.0625 -12.875 20.0625 C-11.555 18.4125 -10.235 16.7625 -8.875 15.0625 C-8.875 14.4025 -8.875 13.7425 -8.875 13.0625 C-9.865 12.4025 -10.855 11.7425 -11.875 11.0625 C-12.3515625 9.1875 -12.3515625 9.1875 -12.5 7.0625 C-12.73779979 3.94811456 -12.73779979 3.94811456 -13.875 1.0625 C-9.21962644 0.14157719 -4.72814567 -0.05955997 0 0 Z " fill="#0C0C0C" transform="translate(191.875,-0.0625)"/>
<path d="M0 0 C1.01725914 0.00424484 1.01725914 0.00424484 2.05506897 0.00857544 C4.19445391 0.01965834 6.33340055 0.0447389 8.47265625 0.0703125 C9.93423869 0.08035774 11.39582778 0.08948087 12.85742188 0.09765625 C16.41680604 0.11955825 19.97593828 0.15400384 23.53515625 0.1953125 C23.00921875 1.1234375 23.00921875 1.1234375 22.47265625 2.0703125 C22.16328125 2.7715625 21.85390625 3.4728125 21.53515625 4.1953125 C22.03015625 5.1853125 22.03015625 5.1853125 22.53515625 6.1953125 C14.61515625 6.6903125 14.61515625 6.6903125 6.53515625 7.1953125 C6.53515625 7.8553125 6.53515625 8.5153125 6.53515625 9.1953125 C4.55515625 9.1953125 2.57515625 9.1953125 0.53515625 9.1953125 C0.53515625 9.8553125 0.53515625 10.5153125 0.53515625 11.1953125 C-1.77484375 11.1953125 -4.08484375 11.1953125 -6.46484375 11.1953125 C-6.46484375 10.8653125 -6.46484375 10.5353125 -6.46484375 10.1953125 C-9.43484375 9.7003125 -9.43484375 9.7003125 -12.46484375 9.1953125 C-12.60921875 8.4115625 -12.75359375 7.6278125 -12.90234375 6.8203125 C-13.342833 4.23110232 -13.342833 4.23110232 -14.46484375 2.1953125 C-9.46818653 0.56823201 -5.3100298 -0.04406664 0 0 Z " fill="#7F7F7F" transform="translate(352.46484375,-0.1953125)"/>
<path d="M0 0 C1.65 0 3.3 0 5 0 C5 3.63 5 7.26 5 11 C5.33 10.67 5.66 10.34 6 10 C7.32 10 8.64 10 10 10 C10.33 8.68 10.66 7.36 11 6 C12.65 6 14.3 6 16 6 C16 5.34 16 4.68 16 4 C18.12438339 3.91921359 20.2496323 3.86090859 22.375 3.8125 C23.55835938 3.77769531 24.74171875 3.74289063 25.9609375 3.70703125 C27.46527344 3.85205078 27.46527344 3.85205078 29 4 C29.66 4.99 30.32 5.98 31 7 C25.94997778 8.03590199 21.12583611 8.10251672 16 8 C15.67 9.65 15.34 11.3 15 13 C9.82682579 14.06309567 4.87630664 14.11693938 -0.375 14.0625 C-1.62216797 14.05573242 -1.62216797 14.05573242 -2.89453125 14.04882812 C-4.92971897 14.03713164 -6.96486923 14.01919935 -9 14 C-9 12 -9 12 -7 10 C-6.75787127 8.01871492 -6.75787127 8.01871492 -6.875 5.875 C-6.936875 3.956875 -6.936875 3.956875 -7 2 C-4.69 2 -2.38 2 0 2 C0 1.34 0 0.68 0 0 Z " fill="#020202" transform="translate(177,97)"/>
<path d="M0 0 C4.59441641 0.01049262 9.18883906 0.01485129 13.78326416 0.01983643 C22.69278541 0.03035242 31.60227803 0.04726486 40.51177979 0.06866455 C38.05165964 2.5287847 37.32927054 2.33741263 33.940979 2.40338135 C32.9787291 2.42643341 32.01647919 2.44948547 31.02507019 2.47323608 C29.96623123 2.48796967 28.90739227 2.50270325 27.81646729 2.5178833 C26.70465591 2.54002899 25.59284454 2.56217468 24.44734192 2.58499146 C20.76058605 2.65361136 17.07382741 2.70579965 13.38677979 2.75616455 C11.50528732 2.78660355 11.50528732 2.78660355 9.58578491 2.81765747 C-18.45192563 3.26447269 -46.45712149 2.78766244 -74.48822021 2.06866455 C-74.48822021 1.73866455 -74.48822021 1.40866455 -74.48822021 1.06866455 C-49.65266206 0.18198365 -24.8499767 -0.06309842 0 0 Z " fill="#635756" transform="translate(84.48822021484375,-0.06866455078125)"/>
<path d="M0 0 C6.93 0 13.86 0 21 0 C21.495 1.485 21.495 1.485 22 3 C21.11477661 3.02187378 21.11477661 3.02187378 20.21166992 3.04418945 C17.53628771 3.11868844 14.86215108 3.21533995 12.1875 3.3125 C11.25873047 3.33505859 10.32996094 3.35761719 9.37304688 3.38085938 C8.48037109 3.41630859 7.58769531 3.45175781 6.66796875 3.48828125 C5.84578857 3.51446533 5.0236084 3.54064941 4.17651367 3.56762695 C1.57393468 4.08463956 0.66089283 4.98202695 -1 7 C0.84188612 9.05270463 0.84188612 9.05270463 3 10 C1.18884044 11.81115956 -1.61278227 11.38199448 -4.0625 11.5625 C-5.16722656 11.64628906 -6.27195313 11.73007813 -7.41015625 11.81640625 C-8.26480469 11.87699219 -9.11945313 11.93757813 -10 12 C-10 12.66 -10 13.32 -10 14 C-11.65 14 -13.3 14 -15 14 C-15.33 15.32 -15.66 16.64 -16 18 C-17.32 18 -18.64 18 -20 18 C-20 18.66 -20 19.32 -20 20 C-21.32 19.67 -22.64 19.34 -24 19 C-24 17.02 -24 15.04 -24 13 C-23.01 12.67 -22.02 12.34 -21 12 C-20.67 11.34 -20.34 10.68 -20 10 C-18.66666667 9.33333333 -17.33333333 8.66666667 -16 8 C-15.67 7.34 -15.34 6.68 -15 6 C-13.68 6 -12.36 6 -11 6 C-11 5.34 -11 4.68 -11 4 C-10.06027344 3.90912109 -10.06027344 3.90912109 -9.1015625 3.81640625 C-8.28429687 3.73261719 -7.46703125 3.64882812 -6.625 3.5625 C-5.81289062 3.48128906 -5.00078125 3.40007812 -4.1640625 3.31640625 C-1.95727195 3.10909886 -1.95727195 3.10909886 0 2 C0 1.34 0 0.68 0 0 Z " fill="#1A1A1A" transform="translate(203,89)"/>
<path d="M0 0 C4.29 0 8.58 0 13 0 C13 6.93 13 13.86 13 21 C6.565 21.495 6.565 21.495 0 22 C-0.84728203 17.76358987 -1.08384078 14.27587998 -1 10 C-2.32 10 -3.64 10 -5 10 C-5 8 -5 8 -3 6 C-3 4.68 -3 3.36 -3 2 C-2.01 2 -1.02 2 0 2 C0 1.34 0 0.68 0 0 Z " fill="#040404" transform="translate(174,49)"/>
<path d="M0 0 C3.63 0 7.26 0 11 0 C10.34 1.65 9.68 3.3 9 5 C8.86289782 7.64607209 8.80937028 10.17469013 8.875 12.8125 C8.88402344 13.50537109 8.89304688 14.19824219 8.90234375 14.91210938 C8.92573843 16.60822395 8.96160359 18.30415871 9 20 C4.38 20 -0.24 20 -5 20 C-5.12375 18.659375 -5.2475 17.31875 -5.375 15.9375 C-5.8307042 11.75690926 -6.74780706 8.00701739 -8 4 C-8 3.67 -8 3.34 -8 3 C-6.865625 2.87625 -5.73125 2.7525 -4.5625 2.625 C-3.386875 2.41875 -2.21125 2.2125 -1 2 C-0.67 1.34 -0.34 0.68 0 0 Z " fill="#0A0A0A" transform="translate(233,0)"/>
<path d="M0 0 C3.63 0 7.26 0 11 0 C11 0.33 11 0.66 11 1 C8.36 1 5.72 1 3 1 C3 1.99 3 2.98 3 4 C4.32 4 5.64 4 7 4 C7 3.34 7 2.68 7 2 C7.99 2.33 8.98 2.66 10 3 C10 5.64779693 9.82804069 7.51587793 9 10 C8.01 10.495 8.01 10.495 7 11 C6.34786708 13.02463255 6.34786708 13.02463255 6 15 C6.33 14.67 6.66 14.34 7 14 C10 15 10 15 11 17 C8.35541621 18.32229189 6.32238699 18.09677194 3.375 18.0625 C2.37210938 18.05347656 1.36921875 18.04445313 0.3359375 18.03515625 C-0.43492187 18.02355469 -1.20578125 18.01195313 -2 18 C-2 17.01 -2 16.02 -2 15 C-2.66 14.67 -3.32 14.34 -4 14 C-4 14.66 -4 15.32 -4 16 C-7.3 16 -10.6 16 -14 16 C-14.33 15.01 -14.66 14.02 -15 13 C-14.195625 12.87625 -13.39125 12.7525 -12.5625 12.625 C-11.716875 12.41875 -10.87125 12.2125 -10 12 C-9.67 11.34 -9.34 10.68 -9 10 C-7.35 10 -5.7 10 -4 10 C-4 9.34 -4 8.68 -4 8 C-2.68 7.34 -1.36 6.68 0 6 C-0.185625 5.38125 -0.37125 4.7625 -0.5625 4.125 C-1 2 -1 2 0 0 Z " fill="#0D0D0D" transform="translate(156,93)"/>
<path d="M0 0 C8.57142857 -0.28571429 8.57142857 -0.28571429 12 2 C12 8 12 14 12 20 C7.71 20 3.42 20 -1 20 C-1 2 -1 2 0 0 Z " fill="#080808" transform="translate(301,0)"/>
<path d="M0 0 C2.31 0 4.62 0 7 0 C6.67 0.66 6.34 1.32 6 2 C5.67 2.99 5.34 3.98 5 5 C5.33 4.67 5.66 4.34 6 4 C8.0625 4.4375 8.0625 4.4375 10 5 C11.125 8.75 11.125 8.75 10 11 C9.01 11.33 8.02 11.66 7 12 C6.67 12.66 6.34 13.32 6 14 C7.32 14.33 8.64 14.66 10 15 C9.67 15.99 9.34 16.98 9 18 C2.25766581 18.12910853 -4.30386804 17.797837 -11 17 C-11 16.67 -11 16.34 -11 16 C-7.7 15.34 -4.4 14.68 -1 14 C-1.99 13.34 -2.98 12.68 -4 12 C-3.34 11.34 -2.68 10.68 -2 10 C-3.32 7.36 -4.64 4.72 -6 2 C-4.02 2 -2.04 2 0 2 C0 1.34 0 0.68 0 0 Z M5 14 C4.01 14.66 3.02 15.32 2 16 C3.32 16 4.64 16 6 16 C5.67 15.34 5.34 14.68 5 14 Z " fill="#1E1E1E" transform="translate(214,93)"/>
<path d="M0 0 C6.6 0 13.2 0 20 0 C19.67 0.99 19.34 1.98 19 3 C12.73 3.33 6.46 3.66 0 4 C0 4.66 0 5.32 0 6 C-8.91 6 -17.82 6 -27 6 C-26.67 8.64 -26.34 11.28 -26 14 C-27.65 14 -29.3 14 -31 14 C-31 14.66 -31 15.32 -31 16 C-31.99 15.67 -32.98 15.34 -34 15 C-34.5625 13.0625 -34.5625 13.0625 -35 11 C-35.66 10.34 -36.32 9.68 -37 9 C-36.236875 8.9175 -35.47375 8.835 -34.6875 8.75 C-31.46619518 7.85103121 -30.67634879 6.82332427 -29 4 C-29 3.67 -29 3.34 -29 3 C-19.76 2.67 -10.52 2.34 -1 2 C-0.67 1.34 -0.34 0.68 0 0 Z " fill="#808080" transform="translate(183,87)"/>
<path d="M0 0 C3.5 -0.1875 3.5 -0.1875 7 0 C7.66 0 8.32 0 9 0 C9.99 0 10.98 0 12 0 C12 1.65 12 3.3 12 5 C10.68 5 9.36 5 8 5 C7.67 5.99 7.34 6.98 7 8 C4.9375 8.6875 4.9375 8.6875 3 9 C3 9.66 3 10.32 3 11 C-2.94 11 -8.88 11 -15 11 C-15 8.69 -15 6.38 -15 4 C-13.62714844 3.94392578 -13.62714844 3.94392578 -12.2265625 3.88671875 C-11.03804687 3.82097656 -9.84953125 3.75523438 -8.625 3.6875 C-7.44164062 3.62949219 -6.25828125 3.57148437 -5.0390625 3.51171875 C-4.03617188 3.34285156 -3.03328125 3.17398438 -2 3 C-1.34 2.01 -0.68 1.02 0 0 Z " fill="#858585" transform="translate(142,48)"/>
<path d="M0 0 C1.32 0.33 2.64 0.66 4 1 C4 2.32 4 3.64 4 5 C5.32 5.66 6.64 6.32 8 7 C8.33 6.67 8.66 6.34 9 6 C10.67542976 6.28604898 12.34385343 6.61781233 14 7 C14 9.97 14 12.94 14 16 C7.55929529 16.10655578 1.37358711 15.96205088 -5 15 C-5 14.67 -5 14.34 -5 14 C-3.35 13.67 -1.7 13.34 0 13 C-0.66 9.37 -1.32 5.74 -2 2 C-1.34 2 -0.68 2 0 2 C0 1.34 0 0.68 0 0 Z " fill="#1E1E1E" transform="translate(160,59)"/>
<path d="M0 0 C0.12375 0.70125 0.2475 1.4025 0.375 2.125 C1.0398252 5.18319593 1.99279466 8.03763134 3 11 C3.68976632 13.32737479 4.34545813 15.66235047 5 18 C3.41870971 18.22331199 1.83478911 18.42804644 0.25 18.625 C-1.07257813 18.79902344 -1.07257813 18.79902344 -2.421875 18.9765625 C-5 19 -5 19 -9 17 C-9 11.72 -9 6.44 -9 1 C-3 -1 -3 -1 0 0 Z " fill="#828282" transform="translate(301,1)"/>
<path d="M0 0 C0 1.65 0 3.3 0 5 C-0.66 5 -1.32 5 -2 5 C-2 5.66 -2 6.32 -2 7 C-1.01 7.33 -0.02 7.66 1 8 C2.125 11.375 2.125 11.375 3 15 C3.33 15.99 3.66 16.98 4 18 C-1.9114744 18.77313045 -7.1314592 19.14819277 -13 18 C-12.525625 17.34 -12.05125 16.68 -11.5625 16 C-9.57427633 12.18261056 -9.40787113 9.28264688 -9 5 C-8.6875 2.625 -8.6875 2.625 -8 1 C-5.08518252 -1.1107299 -3.34823603 -1.19579858 0 0 Z " fill="#777777" transform="translate(272,1)"/>
<path d="M0 0 C2 1 2 1 3 3 C4.32 3.66 5.64 4.32 7 5 C4.03 5 1.06 5 -2 5 C-2 5.66 -2 6.32 -2 7 C-0.68 6.67 0.64 6.34 2 6 C2.33 7.65 2.66 9.3 3 11 C1.35 11 -0.3 11 -2 11 C-2 11.66 -2 12.32 -2 13 C-2.99 12.67 -3.98 12.34 -5 12 C-6.15811388 13.05270463 -6.15811388 13.05270463 -7 15 C-10.96 15 -14.92 15 -19 15 C-19 13.35 -19 11.7 -19 10 C-18.236875 9.896875 -17.47375 9.79375 -16.6875 9.6875 C-13.97020993 9.25255235 -13.97020993 9.25255235 -12.5625 7.4375 C-11 6 -11 6 -7.8125 5.8125 C-6.4203125 5.9053125 -6.4203125 5.9053125 -5 6 C-5 4.68 -5 3.36 -5 2 C-2.625 0.9375 -2.625 0.9375 0 0 Z " fill="#686868" transform="translate(209,60)"/>
<path d="M0 0 C5.94 0 11.88 0 18 0 C18.495 0.99 18.495 0.99 19 2 C15.7 2 12.4 2 9 2 C9 2.66 9 3.32 9 4 C7.68 4 6.36 4 5 4 C5 4.66 5 5.32 5 6 C6.32 6.66 7.64 7.32 9 8 C6.03 8 3.06 8 0 8 C0 8.66 0 9.32 0 10 C-1.32 9.67 -2.64 9.34 -4 9 C-4 8.34 -4 7.68 -4 7 C-3.01 7 -2.02 7 -1 7 C-1 5.68 -1 4.36 -1 3 C-4.72614153 4.11854586 -4.72614153 4.11854586 -7 7 C-8.32 6.67 -9.64 6.34 -11 6 C-10.67 5.01 -10.34 4.02 -10 3 C-11.98 3.33 -13.96 3.66 -16 4 C-16 4.66 -16 5.32 -16 6 C-17.32 5.34 -18.64 4.68 -20 4 C-20 4.66 -20 5.32 -20 6 C-21.32 6 -22.64 6 -24 6 C-24 5.01 -24 4.02 -24 3 C-16.02509872 1.67084979 -8.05813281 1.91198641 0 2 C0 1.34 0 0.68 0 0 Z " fill="#3E3E3E" transform="translate(183,91)"/>
<path d="M0 0 C1.28132813 0.00902344 2.56265625 0.01804687 3.8828125 0.02734375 C4.87023437 0.03894531 5.85765625 0.05054688 6.875 0.0625 C7 4.8125 7 4.8125 5.875 7.0625 C3.07610283 8.02914909 0.49017492 8.18117982 -2.453125 8.16015625 C-3.25234375 8.15693359 -4.0515625 8.15371094 -4.875 8.15039062 C-5.7 8.14201172 -6.525 8.13363281 -7.375 8.125 C-8.21546875 8.12048828 -9.0559375 8.11597656 -9.921875 8.11132812 C-11.98961401 8.09957961 -14.05731624 8.08164522 -16.125 8.0625 C-14.875 5.5625 -14.875 5.5625 -13.125 3.0625 C-11.805 3.0625 -10.485 3.0625 -9.125 3.0625 C-9.125 2.4025 -9.125 1.7425 -9.125 1.0625 C-6.12186252 -0.43906874 -3.33432478 -0.03031204 0 0 Z " fill="#373737" transform="translate(368.125,11.9375)"/>
<path d="M0 0 C1.06863281 0.01804687 2.13726562 0.03609375 3.23828125 0.0546875 C4.04652344 0.07789062 4.85476562 0.10109375 5.6875 0.125 C5.3575 1.445 5.0275 2.765 4.6875 4.125 C1.3875 4.125 -1.9125 4.125 -5.3125 4.125 C-5.6425 6.765 -5.9725 9.405 -6.3125 12.125 C-7.9625 12.125 -9.6125 12.125 -11.3125 12.125 C-11.3125 12.785 -11.3125 13.445 -11.3125 14.125 C-12.6325 13.795 -13.9525 13.465 -15.3125 13.125 C-14.9825 11.805 -14.6525 10.485 -14.3125 9.125 C-17.2825 8.63 -17.2825 8.63 -20.3125 8.125 C-20.3125 7.795 -20.3125 7.465 -20.3125 7.125 C-19.37277344 7.03412109 -19.37277344 7.03412109 -18.4140625 6.94140625 C-17.18816406 6.81572266 -17.18816406 6.81572266 -15.9375 6.6875 C-15.12539062 6.60628906 -14.31328125 6.52507812 -13.4765625 6.44140625 C-11.26977195 6.23409886 -11.26977195 6.23409886 -9.3125 5.125 C-9.9725 4.795 -10.6325 4.465 -11.3125 4.125 C-11.3125 3.465 -11.3125 2.805 -11.3125 2.125 C-7.38392246 0.27368517 -4.32474888 -0.09504943 0 0 Z M-12.3125 4.125 C-11.9825 4.785 -11.6525 5.445 -11.3125 6.125 C-14.2825 6.125 -17.2525 6.125 -20.3125 6.125 C-20.3125 5.795 -20.3125 5.465 -20.3125 5.125 C-17.6725 4.795 -15.0325 4.465 -12.3125 4.125 Z " fill="#676767" transform="translate(247.3125,84.875)"/>
<path d="M0 0 C1.81177734 0.14115234 1.81177734 0.14115234 3.66015625 0.28515625 C6.95041004 0.9400697 8.50170738 1.69608485 10.9375 3.9375 C9.9475 4.2675 8.9575 4.5975 7.9375 4.9375 C8.9275 5.5975 9.9175 6.2575 10.9375 6.9375 C2.0275 6.9375 -6.8825 6.9375 -16.0625 6.9375 C-14.7425 5.9475 -13.4225 4.9575 -12.0625 3.9375 C-11.30066406 3.21433594 -10.53882813 2.49117188 -9.75390625 1.74609375 C-6.22365737 -0.62619251 -4.19081127 -0.38994715 0 0 Z " fill="#5D5D5D" transform="translate(202.0625,104.0625)"/>
<path d="M0 0 C1.32 0.33 2.64 0.66 4 1 C4 4 4 7 4 10 C4.33 10 4.66 10 5 10 C6.66666667 10 8.33333333 10 10 10 C10.33 11.32 10.66 12.64 11 14 C11 13.34 11 12.68 11 12 C12.32 12.33 13.64 12.66 15 13 C15 13.66 15 14.32 15 15 C11.78548731 16.60725635 8.56387464 16.05748185 5 16 C4.67 15.01 4.34 14.02 4 13 C2.68 13.33 1.36 13.66 0 14 C-0.33 13.01 -0.66 12.02 -1 11 C-1.66 10.67 -2.32 10.34 -3 10 C-3 7.36 -3 4.72 -3 2 C-2.01 2 -1.02 2 0 2 C0 1.34 0 0.68 0 0 Z M5 6 C6.65 6 8.3 6 10 6 C7 8 7 8 5 8 C5 7.34 5 6.68 5 6 Z M-3 14 C0 15 0 15 0 15 Z " fill="#060606" transform="translate(231,95)"/>
<path d="M0 0 C0.77923828 0.00451172 1.55847656 0.00902344 2.36132812 0.01367188 C4.26175268 0.02533092 6.16213706 0.04326123 8.0625 0.0625 C8.0625 1.0525 8.0625 2.0425 8.0625 3.0625 C6.4125 3.0625 4.7625 3.0625 3.0625 3.0625 C3.0625 3.7225 3.0625 4.3825 3.0625 5.0625 C0.0925 5.0625 -2.8775 5.0625 -5.9375 5.0625 C-5.9375 5.7225 -5.9375 6.3825 -5.9375 7.0625 C-6.9275 6.7325 -7.9175 6.4025 -8.9375 6.0625 C-8.9375 5.4025 -8.9375 4.7425 -8.9375 4.0625 C-11.2475 3.7325 -13.5575 3.4025 -15.9375 3.0625 C-15.9375 2.4025 -15.9375 1.7425 -15.9375 1.0625 C-10.57260405 0.15766363 -5.43432543 -0.06053662 0 0 Z M-15.9375 3.0625 C-15.9375 4.3825 -15.9375 5.7025 -15.9375 7.0625 C-17.2575 7.0625 -18.5775 7.0625 -19.9375 7.0625 C-19.9375 7.7225 -19.9375 8.3825 -19.9375 9.0625 C-20.9275 8.7325 -21.9175 8.4025 -22.9375 8.0625 C-22.9375 6.0625 -22.9375 6.0625 -21.6875 4.4375 C-19.9375 3.0625 -19.9375 3.0625 -15.9375 3.0625 Z " fill="#5F5F5F" transform="translate(212.9375,49.9375)"/>
<path d="M0 0 C0.83595703 0.00451172 1.67191406 0.00902344 2.53320312 0.01367188 C4.58466649 0.02539452 6.63609273 0.04332797 8.6875 0.0625 C8.1615625 0.990625 8.1615625 0.990625 7.625 1.9375 C7.315625 2.63875 7.00625 3.34 6.6875 4.0625 C7.0175 4.7225 7.3475 5.3825 7.6875 6.0625 C6.54410156 6.11148437 5.40070313 6.16046875 4.22265625 6.2109375 C2.73174527 6.28595189 1.24086108 6.36150028 -0.25 6.4375 C-1.38211914 6.48390625 -1.38211914 6.48390625 -2.53710938 6.53125 C-4.46757395 6.6351315 -6.39192081 6.84145614 -8.3125 7.0625 C-8.6425 7.7225 -8.9725 8.3825 -9.3125 9.0625 C-12.91904039 6.65813974 -13.16702932 5.11570393 -14.3125 1.0625 C-9.54157044 -0.17152862 -4.88780554 -0.05015112 0 0 Z " fill="#101010" transform="translate(367.3125,-0.0625)"/>
<path d="M0 0 C5.28 0 10.56 0 16 0 C13 2 13 2 11 2 C10.67 2.99 10.34 3.98 10 5 C8.72125 5.12375 7.4425 5.2475 6.125 5.375 C2.65209064 5.69042399 2.65209064 5.69042399 0 8 C0 7.34 0 6.68 0 6 C-6.93 6 -13.86 6 -21 6 C-21 5.67 -21 5.34 -21 5 C-11.1 4.505 -11.1 4.505 -1 4 C-3.31 3.67 -5.62 3.34 -8 3 C-8 2.67 -8 2.34 -8 2 C-5.36 2 -2.72 2 0 2 C0 1.34 0 0.68 0 0 Z " fill="#5C5C5C" transform="translate(225,85)"/>
<path d="M0 0 C4.29 0 8.58 0 13 0 C13 0.99 13 1.98 13 3 C12.15695313 3.04898438 11.31390625 3.09796875 10.4453125 3.1484375 C9.34960938 3.22320312 8.25390625 3.29796875 7.125 3.375 C5.48917969 3.47941406 5.48917969 3.47941406 3.8203125 3.5859375 C0.86953526 3.73253491 0.86953526 3.73253491 -1 6 C-1.33 6.33 -1.66 6.66 -2 7 C-1.34 7.33 -0.68 7.66 0 8 C-1 10 -1 10 -2 11 C-1.34 11.33 -0.68 11.66 0 12 C-0.33 12.66 -0.66 13.32 -1 14 C-1.99 14 -2.98 14 -4 14 C-4.66 14.66 -5.32 15.32 -6 16 C-6.99 15.34 -7.98 14.68 -9 14 C-8.46073515 12.36714218 -7.89260746 10.74379788 -7.3125 9.125 C-6.84263672 7.76761719 -6.84263672 7.76761719 -6.36328125 6.3828125 C-4.66303207 3.41103027 -3.22446551 2.93044278 0 2 C0 1.34 0 0.68 0 0 Z M0 6 C1.65 6 3.3 6 5 6 C3.02 6.99 3.02 6.99 1 8 C0.67 7.34 0.34 6.68 0 6 Z M0 10 C1.32 10.33 2.64 10.66 4 11 C2.68 11.33 1.36 11.66 0 12 C0 11.34 0 10.68 0 10 Z " fill="#050505" transform="translate(155,49)"/>
<path d="M0 0 C2.12438339 -0.08078641 4.2496323 -0.13909141 6.375 -0.1875 C7.55835938 -0.22230469 8.74171875 -0.25710937 9.9609375 -0.29296875 C11.46527344 -0.14794922 11.46527344 -0.14794922 13 0 C13.66 0.99 14.32 1.98 15 3 C9.94997778 4.03590199 5.12583611 4.10251672 0 4 C-0.33 5.65 -0.66 7.3 -1 9 C-7.435 9.495 -7.435 9.495 -14 10 C-12.68 8.68 -11.36 7.36 -10 6 C-8.68 6 -7.36 6 -6 6 C-5.67 4.68 -5.34 3.36 -5 2 C-3.35 2 -1.7 2 0 2 C0 1.34 0 0.68 0 0 Z " fill="#0B0B0B" transform="translate(193,101)"/>
<path d="M0 0 C2.31 0 4.62 0 7 0 C7 1.32 7 2.64 7 4 C3.37 4.66 -0.26 5.32 -4 6 C-4 6.66 -4 7.32 -4 8 C-5.98 8 -7.96 8 -10 8 C-10 8.66 -10 9.32 -10 10 C-11.32 9.67 -12.64 9.34 -14 9 C-14 8.34 -14 7.68 -14 7 C-13.01 6.67 -12.02 6.34 -11 6 C-10.67 5.34 -10.34 4.68 -10 4 C-8.02 4 -6.04 4 -4 4 C-4 3.34 -4 2.68 -4 2 C-2.68 2 -1.36 2 0 2 C0 1.34 0 0.68 0 0 Z " fill="#494949" transform="translate(246,93)"/>
<path d="M0 0 C6.93 0 13.86 0 21 0 C21.495 1.485 21.495 1.485 22 3 C21.40461426 3.02505615 20.80922852 3.0501123 20.19580078 3.07592773 C17.50530864 3.19177494 14.8151766 3.31455196 12.125 3.4375 C11.18785156 3.47681641 10.25070313 3.51613281 9.28515625 3.55664062 C8.38925781 3.59853516 7.49335938 3.64042969 6.5703125 3.68359375 C5.74289551 3.72025146 4.91547852 3.75690918 4.06298828 3.79467773 C1.93820571 3.88238327 1.93820571 3.88238327 0 5 C-1.87056791 5.2275015 -3.74685958 5.40962811 -5.625 5.5625 C-6.62789062 5.64628906 -7.63078125 5.73007813 -8.6640625 5.81640625 C-9.43492187 5.87699219 -10.20578125 5.93757813 -11 6 C-11 5.34 -11 4.68 -11 4 C-10.06027344 3.90912109 -10.06027344 3.90912109 -9.1015625 3.81640625 C-7.87566406 3.69072266 -7.87566406 3.69072266 -6.625 3.5625 C-5.81289062 3.48128906 -5.00078125 3.40007812 -4.1640625 3.31640625 C-1.95727195 3.10909886 -1.95727195 3.10909886 0 2 C0 1.34 0 0.68 0 0 Z M-15 6 C-13.02 6.495 -13.02 6.495 -11 7 C-11 7.66 -11 8.32 -11 9 C-12.65 9 -14.3 9 -16 9 C-15.67 8.01 -15.34 7.02 -15 6 Z " fill="#030303" transform="translate(203,89)"/>
<path d="M0 0 C0.98484375 0.01804688 1.9696875 0.03609375 2.984375 0.0546875 C4.10585938 0.08949219 4.10585938 0.08949219 5.25 0.125 C5.375 4.875 5.375 4.875 4.25 7.125 C0.95 7.125 -2.35 7.125 -5.75 7.125 C-5.75 7.785 -5.75 8.445 -5.75 9.125 C-7.07 8.795 -8.39 8.465 -9.75 8.125 C-9.75 6.145 -9.75 4.165 -9.75 2.125 C-6.40060119 0.09941119 -3.88037449 -0.09238987 0 0 Z " fill="#A6A6A6" transform="translate(255.75,-0.125)"/>
<path d="M0 0 C9.9 0 19.8 0 30 0 C30 0.99 30 1.98 30 3 C20.1 3.33 10.2 3.66 0 4 C-0.33 4.66 -0.66 5.32 -1 6 C-1.33 4.68 -1.66 3.36 -2 2 C-1.34 2 -0.68 2 0 2 C0 1.34 0 0.68 0 0 Z " fill="#030303" transform="translate(152,89)"/>
<path d="M0 0 C2.31 0 4.62 0 7 0 C7.33 1.65 7.66 3.3 8 5 C5.36 5.33 2.72 5.66 0 6 C0 6.66 0 7.32 0 8 C-3.96 8 -7.92 8 -12 8 C-12 6.35 -12 4.7 -12 3 C-11.21753906 2.95101562 -10.43507812 2.90203125 -9.62890625 2.8515625 C-8.61699219 2.77679688 -7.60507813 2.70203125 -6.5625 2.625 C-5.55316406 2.55539063 -4.54382813 2.48578125 -3.50390625 2.4140625 C-2.26447266 2.20910156 -2.26447266 2.20910156 -1 2 C-0.67 1.34 -0.34 0.68 0 0 Z " fill="#858585" transform="translate(188,67)"/>
<path d="M0 0 C0.8971875 0.309375 0.8971875 0.309375 1.8125 0.625 C1.8125 2.605 1.8125 4.585 1.8125 6.625 C-3.21046004 7.75516601 -7.16624074 7.40416092 -12.1875 6.625 C-12.1875 4.975 -12.1875 3.325 -12.1875 1.625 C-10.5478125 1.686875 -10.5478125 1.686875 -8.875 1.75 C-5.14696408 1.6236259 -3.39059562 -0.58124496 0 0 Z " fill="#929292" transform="translate(182.1875,12.375)"/>
<path d="M0 0 C0 0.99 0 1.98 0 3 C-1.32 3 -2.64 3 -4 3 C-4.33 4.32 -4.66 5.64 -5 7 C-6.32 7 -7.64 7 -9 7 C-9 7.66 -9 8.32 -9 9 C-10.32 8.67 -11.64 8.34 -13 8 C-13 6.68 -13 5.36 -13 4 C-12.01 3.67 -11.02 3.34 -10 3 C-9.5875 2.484375 -9.175 1.96875 -8.75 1.4375 C-6.02123151 -0.8039884 -3.39786009 -0.1923317 0 0 Z " fill="#717171" transform="translate(192,100)"/>
<path d="M0 0 C2.3125 0.0625 2.3125 0.0625 5 1 C6.8125 4.5625 6.8125 4.5625 8 8 C4.04 8 0.08 8 -4 8 C-4 6.35 -4 4.7 -4 3 C-2.68 2.67 -1.36 2.34 0 2 C0 1.34 0 0.68 0 0 Z " fill="#7B7B7B" transform="translate(155,67)"/>
<path d="M0 0 C0.99 0.33 1.98 0.66 3 1 C3 2.32 3 3.64 3 5 C1.35 5 -0.3 5 -2 5 C-2 5.66 -2 6.32 -2 7 C-5.3 7 -8.6 7 -12 7 C-12.33 6.01 -12.66 5.02 -13 4 C-12.31292969 3.87882812 -11.62585938 3.75765625 -10.91796875 3.6328125 C-9.56638672 3.38144531 -9.56638672 3.38144531 -8.1875 3.125 C-7.29417969 2.96257812 -6.40085938 2.80015625 -5.48046875 2.6328125 C-2.77272154 2.08811551 -2.77272154 2.08811551 0 0 Z " fill="#424242" transform="translate(154,102)"/>
<path d="M0 0 C1.32 0 2.64 0 4 0 C4.33 2.64 4.66 5.28 5 8 C3.35 8 1.7 8 0 8 C0 8.66 0 9.32 0 10 C-0.99 9.67 -1.98 9.34 -3 9 C-3.5625 7.0625 -3.5625 7.0625 -4 5 C-4.66 4.34 -5.32 3.68 -6 3 C-5.195625 2.87625 -4.39125 2.7525 -3.5625 2.625 C-2.716875 2.41875 -1.87125 2.2125 -1 2 C-0.67 1.34 -0.34 0.68 0 0 Z " fill="#5E5E5E" transform="translate(152,93)"/>
<path d="M0 0 C0 2.64 0 5.28 0 8 C-2.97 8 -5.94 8 -9 8 C-9 6 -9 6 -7 4 C-7 2.68 -7 1.36 -7 0 C-3.86650268 -1.04449911 -3.01031744 -0.93423645 0 0 Z " fill="#343434" transform="translate(177,103)"/>
<path d="M0 0 C7.92 0 15.84 0 24 0 C22.68 0.33 21.36 0.66 20 1 C20 1.66 20 2.32 20 3 C18.02 3 16.04 3 14 3 C14 2.34 14 1.68 14 1 C9.38 1 4.76 1 0 1 C0 0.67 0 0.34 0 0 Z M13 3 C13.33 3.66 13.66 4.32 14 5 C9.38 5 4.76 5 0 5 C0 4.67 0 4.34 0 4 C6.435 3.505 6.435 3.505 13 3 Z " fill="#B6B6B6" transform="translate(127,86)"/>
<path d="M0 0 C0 1.65 0 3.3 0 5 C-0.66 5 -1.32 5 -2 5 C-2 5.66 -2 6.32 -2 7 C-6.95 7 -11.9 7 -17 7 C-17 6.01 -17 5.02 -17 4 C-14.36 3.67 -11.72 3.34 -9 3 C-9 2.67 -9 2.34 -9 2 C-2.25 0 -2.25 0 0 0 Z " fill="#8D8D8D" transform="translate(378,0)"/>
<path d="M0 0 C2.64 0 5.28 0 8 0 C7.67 0.99 7.34 1.98 7 3 C4.69 3.33 2.38 3.66 0 4 C0 4.66 0 5.32 0 6 C-3.96 6 -7.92 6 -12 6 C-12 5.01 -12 4.02 -12 3 C-11.21753906 2.95101562 -10.43507812 2.90203125 -9.62890625 2.8515625 C-8.61699219 2.77679688 -7.60507813 2.70203125 -6.5625 2.625 C-5.55316406 2.55539063 -4.54382813 2.48578125 -3.50390625 2.4140625 C-2.26447266 2.20910156 -2.26447266 2.20910156 -1 2 C-0.67 1.34 -0.34 0.68 0 0 Z " fill="#848484" transform="translate(188,49)"/>
<path d="M0 0 C0.33 1.65 0.66 3.3 1 5 C-0.65 5 -2.3 5 -4 5 C-4 5.66 -4 6.32 -4 7 C-5.32 6.67 -6.64 6.34 -8 6 C-8 4.02 -8 2.04 -8 0 C-4.94736336 -0.98120464 -3.05263664 -0.98120464 0 0 Z " fill="#6D6D6D" transform="translate(159,62)"/>
<path d="M0 0 C0 1.98 0 3.96 0 6 C-6.435 6.495 -6.435 6.495 -13 7 C-9 3 -9 3 -6.25 2.75 C-5.5075 2.8325 -4.765 2.915 -4 3 C-4 2.34 -4 1.68 -4 1 C-2 0 -2 0 0 0 Z " fill="#313131" transform="translate(192,104)"/>
<path d="M0 0 C-1.32 0.33 -2.64 0.66 -4 1 C-4 1.66 -4 2.32 -4 3 C-2.68 3.66 -1.36 4.32 0 5 C-2.97 5 -5.94 5 -9 5 C-9 5.66 -9 6.32 -9 7 C-10.32 6.67 -11.64 6.34 -13 6 C-13 5.34 -13 4.68 -13 4 C-12.01 3.67 -11.02 3.34 -10 3 C-9.5875 2.484375 -9.175 1.96875 -8.75 1.4375 C-6.02123151 -0.8039884 -3.39786009 -0.1923317 0 0 Z " fill="#737373" transform="translate(192,94)"/>
<path d="M0 0 C1.06863281 0.01804688 2.13726562 0.03609375 3.23828125 0.0546875 C4.04652344 0.07789063 4.85476562 0.10109375 5.6875 0.125 C5.6875 0.455 5.6875 0.785 5.6875 1.125 C4.0375 1.125 2.3875 1.125 0.6875 1.125 C0.6875 1.785 0.6875 2.445 0.6875 3.125 C-2.2825 3.125 -5.2525 3.125 -8.3125 3.125 C-8.3125 3.785 -8.3125 4.445 -8.3125 5.125 C-9.3025 4.795 -10.2925 4.465 -11.3125 4.125 C-11.3125 3.465 -11.3125 2.805 -11.3125 2.125 C-7.38392246 0.27368517 -4.32474888 -0.09504943 0 0 Z " fill="#7C7C7C" transform="translate(215.3125,51.875)"/>
<path d="M0 0 C1.28132812 0.10183594 2.56265625 0.20367187 3.8828125 0.30859375 C4.87023437 0.39238281 5.85765625 0.47617188 6.875 0.5625 C6.875 0.8925 6.875 1.2225 6.875 1.5625 C1.49009359 2.47907981 -3.66730189 2.67388159 -9.125 2.5625 C-9.125 1.9025 -9.125 1.2425 -9.125 0.5625 C-6.07230154 -0.96384923 -3.36654311 -0.27544444 0 0 Z M-10.125 2.5625 C-9.795 3.2225 -9.465 3.8825 -9.125 4.5625 C-10.115 4.2325 -11.105 3.9025 -12.125 3.5625 C-11.465 3.2325 -10.805 2.9025 -10.125 2.5625 Z " fill="#6B6B6B" transform="translate(202.125,104.4375)"/>
<path d="M0 0 C0 1.32 0 2.64 0 4 C-1.65 4 -3.3 4 -5 4 C-5 4.66 -5 5.32 -5 6 C-6.32 5.67 -7.64 5.34 -9 5 C-9.33 3.68 -9.66 2.36 -10 1 C-3.375 -1.125 -3.375 -1.125 0 0 Z " fill="#818181" transform="translate(174,67)"/>
<path d="M0 0 C0 0.66 0 1.32 0 2 C-3.3 2 -6.6 2 -10 2 C-10 2.66 -10 3.32 -10 4 C-11.32 3.34 -12.64 2.68 -14 2 C-14 2.66 -14 3.32 -14 4 C-15.32 4 -16.64 4 -18 4 C-18 3.01 -18 2.02 -18 1 C-11.95170514 0.10395632 -6.1105424 -0.11269443 0 0 Z " fill="#535353" transform="translate(177,93)"/>
<path d="M0 0 C2.97 0 5.94 0 9 0 C8.67 0.66 8.34 1.32 8 2 C5.93359375 2.4140625 5.93359375 2.4140625 3.4375 2.625 C2.61121094 2.69976562 1.78492188 2.77453125 0.93359375 2.8515625 C-0.02353516 2.92503906 -0.02353516 2.92503906 -1 3 C-0.67 2.01 -0.34 1.02 0 0 Z M-2 3 C-1.67 3.66 -1.34 4.32 -1 5 C-5.62 5 -10.24 5 -15 5 C-15 4.67 -15 4.34 -15 4 C-8.565 3.505 -8.565 3.505 -2 3 Z " fill="#9B9B9B" transform="translate(142,90)"/>
<path d="M0 0 C1.32 0.33 2.64 0.66 4 1 C4 2.98 4 4.96 4 7 C1.625 7.625 1.625 7.625 -1 8 C-1.66 7.34 -2.32 6.68 -3 6 C-3 4.68 -3 3.36 -3 2 C-2.01 2 -1.02 2 0 2 C0 1.34 0 0.68 0 0 Z M-3 8 C-1 9 -1 9 -1 9 Z " fill="#010101" transform="translate(231,95)"/>
<path d="M0 0 C3.62269357 0 6.50215253 0.09732968 10 1 C10 1.66 10 2.32 10 3 C6.78548731 4.60725635 3.56387464 4.05748185 0 4 C-0.33 3.34 -0.66 2.68 -1 2 C-0.67 1.34 -0.34 0.68 0 0 Z " fill="#181818" transform="translate(236,107)"/>
<path d="M0 0 C0.99 0.33 1.98 0.66 3 1 C2.67 1.66 2.34 2.32 2 3 C0.68 3 -0.64 3 -2 3 C-2 2.34 -2 1.68 -2 1 C-1.34 0.67 -0.68 0.34 0 0 Z M-3 3 C-2.67 3.66 -2.34 4.32 -2 5 C-2.33 5.66 -2.66 6.32 -3 7 C-4.65 7 -6.3 7 -8 7 C-8 7.66 -8 8.32 -8 9 C-8.99 8.67 -9.98 8.34 -11 8 C-11.33 7.34 -11.66 6.68 -12 6 C-9.03 5.01 -6.06 4.02 -3 3 Z " fill="#767676" transform="translate(244,98)"/>
<path d="M0 0 C1.32 0.33 2.64 0.66 4 1 C5.125 4.75 5.125 4.75 4 7 C3.01 7.33 2.02 7.66 1 8 C0.34 8.66 -0.32 9.32 -1 10 C-1 9.01 -1 8.02 -1 7 C-1.66 6.67 -2.32 6.34 -3 6 C-3 5.34 -3 4.68 -3 4 C-2.34 4 -1.68 4 -1 4 C-0.67 2.68 -0.34 1.36 0 0 Z " fill="#010101" transform="translate(220,97)"/>
<path d="M0 0 C0 0.66 0 1.32 0 2 C0.66 2.33 1.32 2.66 2 3 C-0.64 3 -3.28 3 -6 3 C-6 2.34 -6 1.68 -6 1 C-4 0 -4 0 0 0 Z M-13 2 C-11.02 2 -9.04 2 -7 2 C-6.67 2.99 -6.34 3.98 -6 5 C-8.31 5 -10.62 5 -13 5 C-13 4.01 -13 3.02 -13 2 Z " fill="#999999" transform="translate(213,38)"/>
<path d="M0 0 C0.99 0.33 1.98 0.66 3 1 C3 1.66 3 2.32 3 3 C1.35 3 -0.3 3 -2 3 C-2 3.66 -2 4.32 -2 5 C-2.56203125 4.84660156 -3.1240625 4.69320312 -3.703125 4.53515625 C-6.05838878 3.98639581 -8.34548104 3.68502401 -10.75 3.4375 C-11.54921875 3.35371094 -12.3484375 3.26992188 -13.171875 3.18359375 C-13.77515625 3.12300781 -14.3784375 3.06242187 -15 3 C-15 2.67 -15 2.34 -15 2 C-14.08476562 1.93941406 -13.16953125 1.87882812 -12.2265625 1.81640625 C-10.44378906 1.69072266 -10.44378906 1.69072266 -8.625 1.5625 C-7.44164062 1.48128906 -6.25828125 1.40007813 -5.0390625 1.31640625 C-2.08481099 1.18915064 -2.08481099 1.18915064 0 0 Z " fill="#A1A1A1" transform="translate(171,48)"/>
<path d="M0 0 C1.4540625 0.0309375 1.4540625 0.0309375 2.9375 0.0625 C2.6075 1.7125 2.2775 3.3625 1.9375 5.0625 C0.6175 5.0625 -0.7025 5.0625 -2.0625 5.0625 C-2.0625 5.7225 -2.0625 6.3825 -2.0625 7.0625 C-3.0525 6.7325 -4.0425 6.4025 -5.0625 6.0625 C-4.4025 6.0625 -3.7425 6.0625 -3.0625 6.0625 C-3.3409375 4.8559375 -3.3409375 4.8559375 -3.625 3.625 C-3.769375 2.779375 -3.91375 1.93375 -4.0625 1.0625 C-3.0625 0.0625 -3.0625 0.0625 0 0 Z " fill="#3E3E3E" transform="translate(275.0625,-0.0625)"/>
<path d="M0 0 C1.65 0.33 3.3 0.66 5 1 C5 1.99 5 2.98 5 4 C3.35 4 1.7 4 0 4 C0 4.66 0 5.32 0 6 C-1.32 5.67 -2.64 5.34 -4 5 C-4 4.34 -4 3.68 -4 3 C-3.01 2.67 -2.02 2.34 -1 2 C-0.67 1.34 -0.34 0.68 0 0 Z " fill="#646464" transform="translate(236,93)"/>
<path d="M0 0 C1.32 0.33 2.64 0.66 4 1 C3.67 1.66 3.34 2.32 3 3 C2.01 3 1.02 3 0 3 C0 2.01 0 1.02 0 0 Z M-5 2 C-1.62537285 2.54723683 0.08235 3.0549 3 5 C1.68 5 0.36 5 -1 5 C-1 5.66 -1 6.32 -1 7 C-2.32 6.67 -3.64 6.34 -5 6 C-5 4.68 -5 3.36 -5 2 Z " fill="#828282" transform="translate(221,92)"/>
<path d="M0 0 C0.66 0.33 1.32 0.66 2 1 C2.625 3.0625 2.625 3.0625 3 5 C1.35 5 -0.3 5 -2 5 C-2 5.66 -2 6.32 -2 7 C-2.99 6.67 -3.98 6.34 -5 6 C-5 4.68 -5 3.36 -5 2 C-2.625 0.9375 -2.625 0.9375 0 0 Z " fill="#757575" transform="translate(209,66)"/>
<path d="M0 0 C1.98 0.495 1.98 0.495 4 1 C4 1.66 4 2.32 4 3 C2.35 3 0.7 3 -1 3 C-0.67 2.01 -0.34 1.02 0 0 Z M-8 2 C-6.02 2 -4.04 2 -2 2 C-1.67 2.99 -1.34 3.98 -1 5 C-3.31 5 -5.62 5 -8 5 C-8 4.01 -8 3.02 -8 2 Z " fill="#939393" transform="translate(198,48)"/>
<path d="M0 0 C0 0.99 0 1.98 0 3 C-2.64 3 -5.28 3 -8 3 C-8 3.66 -8 4.32 -8 5 C-8.99 4.67 -9.98 4.34 -11 4 C-11 3.34 -11 2.68 -11 2 C-7.17010894 0.19769832 -4.21878192 -0.19622241 0 0 Z " fill="#858585" transform="translate(215,56)"/>
<path d="M0 0 C0 1.65 0 3.3 0 5 C-1.32 5 -2.64 5 -4 5 C-4 5.66 -4 6.32 -4 7 C-4.99 6.67 -5.98 6.34 -7 6 C-7 4 -7 4 -5.1875 1.875 C-3 0 -3 0 0 0 Z " fill="#646464" transform="translate(154,48)"/>
<path d="M0 0 C0 1.65 0 3.3 0 5 C-2.97 5 -5.94 5 -9 5 C-9.33 4.01 -9.66 3.02 -10 2 C-8.7090864 1.66376204 -7.41723903 1.33110751 -6.125 1 C-5.40570313 0.814375 -4.68640625 0.62875 -3.9453125 0.4375 C-2 0 -2 0 0 0 Z " fill="#9F9F9F" transform="translate(151,104)"/>
<path d="M0 0 C0 0.99 0 1.98 0 3 C-2.97 3 -5.94 3 -9 3 C-9 2.34 -9 1.68 -9 1 C-6.04335481 -0.4783226 -3.25770263 -0.06032783 0 0 Z M-10 3 C-9.67 3.66 -9.34 4.32 -9 5 C-10.32 4.67 -11.64 4.34 -13 4 C-12.01 3.67 -11.02 3.34 -10 3 Z " fill="#626262" transform="translate(192,100)"/>
<path d="M0 0 C0 0.99 0 1.98 0 3 C-1.65 3 -3.3 3 -5 3 C-5 3.66 -5 4.32 -5 5 C-7.31 5 -9.62 5 -12 5 C-7.86687528 1.75254486 -5.36067372 0 0 0 Z " fill="#828282" transform="translate(182,94)"/>
<path d="M0 0 C0.99 0.33 1.98 0.66 3 1 C3 1.66 3 2.32 3 3 C1.35 3 -0.3 3 -2 3 C-2 3.66 -2 4.32 -2 5 C-6.455 4.01 -6.455 4.01 -11 3 C-11 2.67 -11 2.34 -11 2 C-10.06027344 1.90912109 -10.06027344 1.90912109 -9.1015625 1.81640625 C-7.87566406 1.69072266 -7.87566406 1.69072266 -6.625 1.5625 C-5.81289062 1.48128906 -5.00078125 1.40007812 -4.1640625 1.31640625 C-1.95727195 1.10909886 -1.95727195 1.10909886 0 0 Z " fill="#8D8D8D" transform="translate(238,90)"/>
<path d="M0 0 C-3.38018531 1.04005702 -6.4780279 1.08004482 -10 1 C-10 1.66 -10 2.32 -10 3 C-11.98 3 -13.96 3 -16 3 C-16 2.67 -16 2.34 -16 2 C-14.35 2 -12.7 2 -11 2 C-11 1.01 -11 0.02 -11 -1 C-3.57142857 -2.42857143 -3.57142857 -2.42857143 0 0 Z " fill="#393939" transform="translate(206,66)"/>
<path d="M0 0 C1.65 0 3.3 0 5 0 C4.67 0.99 4.34 1.98 4 3 C2.35 3 0.7 3 -1 3 C-0.67 2.01 -0.34 1.02 0 0 Z M-5 2 C-3.68 2.33 -2.36 2.66 -1 3 C-1 3.66 -1 4.32 -1 5 C-2.32 4.67 -3.64 4.34 -5 4 C-5 3.34 -5 2.68 -5 2 Z " fill="#818181" transform="translate(156,52)"/>
<path d="M0 0 C0 0.99 0 1.98 0 3 C-3.63 3 -7.26 3 -11 3 C-6.86621405 0.2441427 -4.94796454 -0.10756445 0 0 Z " fill="#989898" transform="translate(215,72)"/>
<path d="M0 0 C1.32 0.33 2.64 0.66 4 1 C4 2.32 4 3.64 4 5 C2.35 5.66 0.7 6.32 -1 7 C-1.33 5.35 -1.66 3.7 -2 2 C-1.34 2 -0.68 2 0 2 C0 1.34 0 0.68 0 0 Z " fill="#090909" transform="translate(160,59)"/>
<path d="M0 0 C0 0.99 0 1.98 0 3 C-2.64 3 -5.28 3 -8 3 C-8 2.34 -8 1.68 -8 1 C-5.29120665 -0.35439668 -2.99066732 -0.06501451 0 0 Z " fill="#747474" transform="translate(196,38)"/>
<path d="M0 0 C0.99 0.33 1.98 0.66 3 1 C3 1.66 3 2.32 3 3 C1.35 3 -0.3 3 -2 3 C-2 2.34 -2 1.68 -2 1 C-1.34 0.67 -0.68 0.34 0 0 Z M-3 3 C-2.67 3.66 -2.34 4.32 -2 5 C-4.97 5 -7.94 5 -11 5 C-11 4.67 -11 4.34 -11 4 C-8.36 3.67 -5.72 3.34 -3 3 Z " fill="#9A9A9A" transform="translate(238,86)"/>
<path d="M0 0 C2.64 0 5.28 0 8 0 C8.33 0.66 8.66 1.32 9 2 C5.7 2.33 2.4 2.66 -1 3 C-0.67 2.01 -0.34 1.02 0 0 Z " fill="#363636" transform="translate(165,61)"/>
<path d="M0 0 C0.91007813 0.00902344 1.82015625 0.01804687 2.7578125 0.02734375 C3.45648438 0.03894531 4.15515625 0.05054687 4.875 0.0625 C4.875 0.3925 4.875 0.7225 4.875 1.0625 C3.91787109 1.13597656 3.91787109 1.13597656 2.94140625 1.2109375 C2.11511719 1.28570312 1.28882813 1.36046875 0.4375 1.4375 C-0.38621094 1.50710937 -1.20992187 1.57671875 -2.05859375 1.6484375 C-2.74050781 1.78507812 -3.42242187 1.92171875 -4.125 2.0625 C-4.455 2.7225 -4.785 3.3825 -5.125 4.0625 C-5.125 3.4025 -5.125 2.7425 -5.125 2.0625 C-5.785 1.7325 -6.445 1.4025 -7.125 1.0625 C-4.60024538 -0.19987731 -2.81299534 -0.03606404 0 0 Z " fill="#262626" transform="translate(197.125,94.9375)"/>
</svg>
